<svg width="auto" height="auto" viewBox="0 0 165 120" fill="none" xmlns="http://www.w3.org/2000/svg"> <g clip-path="url(#clip0)"> <path d="M158.147 29.9064H76.2247C68.1779 29.9064 61.6538 36.4646 61.6538 44.5543V95.2547C61.6493 96.1551 61.823 97.0475 62.165 97.8811C62.5069 98.7146 63.0105 99.4729 63.6468 100.113C64.2831 100.752 65.0398 101.261 65.8736 101.61C66.7074 101.958 67.602 102.14 68.5063 102.144H120.532C122.263 108.11 126.608 116.334 137.552 120L134.463 102.144H158.147C159.052 102.14 159.946 101.958 160.78 101.61C161.614 101.261 162.371 100.752 163.007 100.113C163.643 99.4729 164.147 98.7146 164.489 97.8811C164.831 97.0475 165.005 96.1551 165 95.2547V36.7955C165.005 35.8951 164.831 35.0027 164.489 34.1691C164.147 33.3356 163.643 32.5773 163.007 31.9376C162.371 31.2978 161.614 30.7892 160.78 30.4406C159.946 30.0921 159.052 29.9106 158.147 29.9064Z" fill="url(#paint0_linear)"/> <path d="M156.769 31.6155H77.25C75.3926 31.6155 73.5534 31.9797 71.8375 32.6875C70.1215 33.3952 68.5623 34.4325 67.2489 35.7402C65.9355 37.0479 64.8937 38.6003 64.1829 40.3089C63.4722 42.0175 63.1063 43.8487 63.1063 45.6981V94.4399C63.1063 96.1949 63.8065 97.8779 65.0528 99.1188C66.2991 100.36 67.9894 101.057 69.7519 101.057H120.253C121.933 106.793 126.156 114.699 136.772 118.223L133.766 101.063H156.759C158.522 101.063 160.212 100.365 161.459 99.1245C162.705 97.8836 163.405 96.2005 163.405 94.4456V38.238C163.407 36.4838 162.708 34.8007 161.464 33.5589C160.22 32.317 158.531 31.618 156.769 31.6155Z" fill="#FAFAFA"/> <path d="M136.185 44.2689H95.0829V49.3847H136.185V44.2689Z" fill="#E0E0E0"/> <path d="M135.953 53.7139H120.539V58.8297H135.953V53.7139Z" fill="#E0E0E0"/> <path d="M135.718 63.1572H105.323V68.273H135.718V63.1572Z" fill="#E0E0E0"/> <path d="M135.486 72.6023H98.2101V77.7181H135.486V72.6023Z" fill="#E0E0E0"/> <path d="M135.253 82.0456H115.599V87.1614H135.253V82.0456Z" fill="#E0E0E0"/> <path d="M6.81268 0H95.9412C99.7045 0 102.754 3.07969 102.754 6.87967V65.2652C102.754 69.0651 99.7045 72.1448 95.9412 72.1448H44.2177C42.4956 78.1038 38.1703 86.3239 27.2943 89.9783L30.3665 72.1448H6.82217C3.05888 72.1448 0.00951307 69.0651 0.00951307 65.2652V6.87589C1.94022e-05 3.07969 3.04939 0 6.81268 0Z" fill="url(#paint1_linear)"/> <path d="M7.83608 1.79034H94.8418C96.6043 1.79034 98.2946 2.48748 99.5409 3.72838C100.787 4.96929 101.487 6.65232 101.487 8.40723V64.6148C101.487 66.3697 100.787 68.0527 99.5409 69.2937C98.2946 70.5346 96.6043 71.2317 94.8418 71.2317H44.3525C42.6722 76.9676 38.4494 84.8738 27.8335 88.3978L30.8316 71.2317H7.83608C6.07356 71.2317 4.38323 70.5346 3.13695 69.2937C1.89066 68.0527 1.19051 66.3697 1.19051 64.6148V8.4129C1.18976 7.54348 1.3611 6.68244 1.69474 5.87898C2.02837 5.07553 2.51776 4.34542 3.13493 3.73039C3.75211 3.11535 4.48496 2.62745 5.29161 2.29457C6.09826 1.96168 6.96289 1.79034 7.83608 1.79034Z" fill="white"/> <path d="M71.8918 12.5929H30.7899V17.7087H71.8918V12.5929Z" fill="#9BC269"/> <path d="M46.4373 22.0361H31.0234V27.1519H46.4373V22.0361Z" fill="#9BC269"/> <path d="M61.6519 31.4794H31.257V36.5952H61.6519V31.4794Z" fill="#9BC269"/> <path d="M68.7665 40.9244H31.4905V46.0402H68.7665V40.9244Z" fill="#9BC269"/> <path d="M51.3779 50.3677H31.7241V55.4835H51.3779V50.3677Z" fill="#9BC269"/> </g> <defs> <linearGradient id="paint0_linear" x1="113.326" y1="120" x2="113.326" y2="29.9064" gradientUnits="userSpaceOnUse"> <stop offset="0.01" stop-color="#808080" stop-opacity="0.25"/> <stop offset="0.54" stop-color="#808080" stop-opacity="0.12"/> <stop offset="1" stop-color="#808080" stop-opacity="0.1"/> </linearGradient> <linearGradient id="paint1_linear" x1="44805.8" y1="54758.1" x2="44805.8" y2="11933.8" gradientUnits="userSpaceOnUse"> <stop offset="0.01" stop-color="#808080" stop-opacity="0.25"/> <stop offset="0.54" stop-color="#808080" stop-opacity="0.12"/> <stop offset="1" stop-color="#808080" stop-opacity="0.1"/> </linearGradient> <clipPath id="clip0"> <rect width="165" height="120" fill="white"/> </clipPath> </defs> </svg>
