<svg width="auto" height="auto" viewBox="0 0 163 120" fill="none" xmlns="http://www.w3.org/2000/svg">
  <g clip-path="url(#clip0)">
  <path d="M117.296 71.1882L118.579 70.4021C118.701 70.3253 118.821 70.2434 118.944 70.1667C116.194 69.6968 113.688 68.308 111.841 66.2301C109.993 64.1523 108.915 61.5099 108.786 58.7406C108.691 56.8359 109.054 54.9363 109.843 53.198C110.578 51.5717 111.663 50.1252 113.022 48.9607C114.38 47.7962 115.98 46.942 117.707 46.4583L117.643 51.4722L120.415 46.0149C120.427 46.0131 120.438 46.0131 120.45 46.0149C122.056 45.9404 123.662 46.181 125.175 46.7229C126.688 47.2649 128.078 48.0976 129.267 49.1735C130.456 50.2494 131.42 51.5475 132.104 52.9935C132.788 54.4396 133.179 56.0053 133.254 57.6014C133.264 57.8333 133.254 58.0618 133.254 58.2835C134.218 57.1904 135.094 56.0188 135.674 54.7346C136.848 52.1339 136.876 49.1887 136.778 45.609C136.592 38.5146 136.285 31.3673 135.883 24.2405C132.989 23.9211 130.304 22.5867 128.311 20.4771C126.317 18.3675 125.147 15.6209 125.009 12.7308C124.992 12.3573 124.997 11.9906 125.009 11.6257C125.009 11.5353 125.009 11.4432 125.023 11.3528C125.047 10.9998 125.079 10.6502 125.134 10.3057C125.134 10.2477 125.155 10.1931 125.165 10.1352C125.215 9.84297 125.276 9.55419 125.345 9.26882C125.373 9.16309 125.399 9.05565 125.428 8.94992C125.514 8.63953 125.599 8.33427 125.718 8.03241C125.754 7.9318 125.797 7.83459 125.835 7.73567C125.922 7.51397 126.017 7.29568 126.116 7.0791C126.169 6.96484 126.221 6.85228 126.277 6.73802C126.291 6.70903 126.303 6.68004 126.319 6.65104C127.611 4.11485 129.757 2.10878 132.384 0.981544C135.011 -0.145695 137.952 -0.322829 140.697 0.480932L140.614 7.00577L143.361 1.61672C145.614 2.89785 147.395 4.86103 148.445 7.21952C149.495 9.57801 149.759 12.2083 149.197 14.7261H149.211C149.192 14.8131 149.164 14.8966 149.144 14.9819C149.106 15.1422 149.065 15.3008 149.02 15.4594C148.962 15.6623 148.897 15.8619 148.83 16.0614C148.778 16.2098 148.728 16.3616 148.672 16.5082C148.589 16.7231 148.5 16.9329 148.401 17.1426C148.346 17.2654 148.296 17.3899 148.229 17.511C148.072 17.8248 147.9 18.1318 147.714 18.4319C147.65 18.5359 147.578 18.6348 147.511 18.7389C147.381 18.9401 147.249 19.1396 147.106 19.3341C147.019 19.4534 146.924 19.5677 146.832 19.6854C146.698 19.8559 146.56 20.0264 146.418 20.1816C146.317 20.2959 146.214 20.4085 146.107 20.5227C145.958 20.6796 145.803 20.8314 145.644 20.9815C145.539 21.0821 145.433 21.1827 145.323 21.2782C145.143 21.4368 144.954 21.5886 144.763 21.737C144.667 21.812 144.574 21.8904 144.475 21.9621C144.185 22.1758 143.886 22.3765 143.577 22.5641C143.519 22.5982 143.457 22.6272 143.405 22.6613C143.148 22.8131 142.89 22.9546 142.614 23.0876C142.499 23.1439 142.379 23.1934 142.26 23.2462C142.039 23.3451 141.816 23.4406 141.588 23.5276C141.455 23.5771 141.32 23.6231 141.184 23.6692C140.959 23.7459 140.731 23.8158 140.497 23.8789C140.36 23.9164 140.225 23.954 140.086 23.9864C139.835 24.0461 139.579 24.0955 139.322 24.1381C139.304 24.1381 139.289 24.1381 139.272 24.1484C139.441 27.1544 139.592 30.1622 139.723 33.1716C140.453 31.6825 141.482 30.3573 142.746 29.2773C144.01 28.1973 145.483 27.3853 147.074 26.891C148.666 26.3968 150.342 26.2308 152 26.4031C153.658 26.5755 155.263 27.0826 156.717 27.8934L154.553 33.7856L159.006 29.5374C161.389 31.708 162.809 34.7291 162.954 37.9382C163.01 39.0642 162.906 40.1925 162.643 41.2893C162.084 43.6628 160.819 45.8144 159.014 47.4652C157.208 49.1159 154.945 50.1895 152.518 50.5467C150.091 50.9039 147.612 50.5282 145.402 49.4683C143.193 48.4084 141.355 46.7133 140.127 44.6029C140.127 44.9081 140.149 45.2151 140.158 45.5204C140.238 48.6788 140.34 52.608 138.755 56.1177C137.682 58.4967 135.954 60.4289 134.246 62.1599C133.135 63.2872 131.983 64.3769 130.802 65.4325C129.641 66.9816 128.125 68.2338 126.38 69.0855C124.441 70.5703 122.432 71.9608 120.355 73.2569L119.094 74.0652C117.928 74.7832 116.733 75.5199 115.561 76.2822C115.767 76.2618 115.971 76.2396 116.181 76.2311C118.776 76.1103 121.342 76.8122 123.51 78.2355C125.677 79.6589 127.333 81.7298 128.238 84.1492L120.585 90.3381L128.997 88.3991C128.994 90.4564 128.467 92.4796 127.464 94.2796C126.461 96.0797 125.016 97.5978 123.262 98.6921C121.509 99.7865 119.504 100.421 117.437 100.538C115.369 100.654 113.306 100.247 111.439 99.3562C111.628 99.5916 111.819 99.8252 112.008 100.059C112.384 100.524 112.758 100.987 113.123 101.445C118.101 107.709 119.488 113.658 117.022 118.192L114.025 116.582C116.428 112.169 112.823 106.521 110.449 103.543C110.09 103.093 109.723 102.639 109.352 102.179C106.171 98.2562 102.567 93.8018 102.658 88.3428C102.786 80.1228 110.835 75.1652 117.296 71.1882Z" fill="#F2F2F2"/>
  <path d="M78.1896 120C121.373 120 156.379 118.397 156.379 116.419C156.379 114.441 121.373 112.837 78.1896 112.837C35.0067 112.837 0 114.441 0 116.419C0 118.397 35.0067 120 78.1896 120Z" fill="#3F3D56"/>
  <path d="M141.358 115.083C141.872 114.144 141.289 112.993 140.623 112.154C139.957 111.314 139.145 110.448 139.162 109.375C139.186 107.841 140.825 106.935 142.137 106.122C143.108 105.517 144.004 104.801 144.806 103.988C145.143 103.675 145.421 103.306 145.628 102.897C145.898 102.296 145.891 101.614 145.874 100.956C145.817 98.7662 145.708 96.5787 145.548 94.3936" stroke="#3F3D56" stroke-width="4" stroke-miterlimit="10"/>
  <path d="M148.038 94.2775C148.019 93.8769 147.899 93.4874 147.689 93.1448C147.479 92.8021 147.186 92.5173 146.837 92.3163L146.298 93.3771L146.313 92.0946C145.945 91.9849 145.555 91.9647 145.177 92.0358C144.798 92.1069 144.443 92.2672 144.14 92.5032C143.837 92.7392 143.596 93.044 143.437 93.3919C143.277 93.7399 143.204 94.1208 143.223 94.5027C143.253 95.1359 143.535 95.7313 144.007 96.1579C144.241 96.3692 144.514 96.5326 144.812 96.639C145.109 96.7453 145.424 96.7924 145.74 96.7776C146.056 96.7629 146.365 96.6865 146.651 96.5528C146.937 96.4192 147.193 96.2309 147.406 95.9988C147.619 95.7666 147.783 95.4951 147.89 95.1998C147.997 94.9045 148.045 94.5911 148.03 94.2775H148.038Z" fill="#57B793"/>
  <path d="M143.742 110.479C143.49 110.966 143.077 111.351 142.572 111.572C142.067 111.792 141.502 111.833 140.97 111.689C140.439 111.544 139.973 111.222 139.652 110.777C139.331 110.332 139.174 109.791 139.206 109.245C139.239 108.698 139.46 108.179 139.831 107.775C140.203 107.371 140.704 107.106 141.249 107.025C141.794 106.944 142.35 107.051 142.825 107.329C143.3 107.607 143.664 108.039 143.857 108.552L142.353 109.768L144.008 109.386C144.008 109.766 143.917 110.141 143.742 110.479Z" fill="#57B793"/>
  <path d="M142.552 105.825C142.236 105.84 141.92 105.793 141.622 105.686C141.325 105.58 141.051 105.416 140.817 105.204C140.583 104.992 140.394 104.737 140.26 104.452C140.126 104.167 140.05 103.859 140.036 103.545C140.017 103.17 140.088 102.797 140.243 102.455C140.388 102.135 140.601 101.85 140.868 101.621C141.135 101.392 141.449 101.224 141.788 101.128L141.776 102.116L142.322 101.041C142.961 101.011 143.585 101.235 144.058 101.663C144.53 102.09 144.812 102.687 144.842 103.321C144.872 103.956 144.647 104.576 144.217 105.045C143.786 105.515 143.186 105.795 142.547 105.825H142.552Z" fill="#57B793"/>
  <path d="M148.401 101.952C147.763 101.982 147.14 101.759 146.668 101.332C146.196 100.905 145.914 100.31 145.884 99.6768C145.854 99.0436 146.078 98.4245 146.508 97.9556C146.937 97.4867 147.537 97.2066 148.174 97.1767C148.625 97.1546 149.072 97.2599 149.465 97.4803L149.039 98.6399L149.915 97.8043C150.384 98.2309 150.665 98.8252 150.694 99.4568C150.705 99.678 150.684 99.8997 150.632 100.115C150.512 100.621 150.229 101.074 149.826 101.405C149.424 101.737 148.923 101.929 148.401 101.952Z" fill="#57B793"/>
  <path opacity="0.1" d="M147.714 94.9085C147.158 94.9699 146.617 95.1422 146.059 95.1763C145.501 95.2104 144.888 95.0774 144.535 94.6459C144.344 94.414 144.25 94.1206 144.089 93.8682C143.937 93.6324 143.728 93.4374 143.483 93.3004C143.337 93.6022 143.257 93.9311 143.248 94.2656C143.239 94.6001 143.301 94.9328 143.429 95.2421C143.558 95.5514 143.75 95.8303 143.995 96.0609C144.239 96.2915 144.529 96.4686 144.846 96.5806C145.164 96.6926 145.501 96.737 145.837 96.7111C146.173 96.6851 146.499 96.5893 146.795 96.4299C147.092 96.2705 147.351 96.051 147.556 95.7856C147.761 95.5203 147.908 95.2151 147.987 94.8898C147.894 94.8932 147.803 94.9 147.714 94.9085Z" fill="black"/>
  <path opacity="0.1" d="M148.401 101.952C147.985 101.973 147.571 101.886 147.2 101.701C146.828 101.515 146.511 101.237 146.28 100.893C146.049 100.549 145.912 100.152 145.882 99.7394C145.852 99.3271 145.93 98.9142 146.109 98.541C146.3 98.6693 146.465 98.8332 146.593 99.0236C146.765 99.2812 146.868 99.5779 147.07 99.8149C147.444 100.253 148.086 100.396 148.668 100.369C149.25 100.342 149.81 100.18 150.385 100.127C150.464 100.127 150.546 100.113 150.627 100.112C150.508 100.617 150.226 101.07 149.824 101.402C149.422 101.734 148.923 101.927 148.401 101.952Z" fill="black"/>
  <path opacity="0.1" d="M142.552 105.825C142.236 105.84 141.92 105.793 141.622 105.686C141.325 105.58 141.051 105.416 140.817 105.204C140.583 104.992 140.394 104.737 140.26 104.452C140.126 104.167 140.05 103.859 140.036 103.545C140.017 103.17 140.088 102.797 140.243 102.455C140.443 102.585 140.618 102.749 140.758 102.941C140.946 103.204 141.062 103.505 141.273 103.748C141.68 104.198 142.363 104.356 142.98 104.341C143.596 104.326 144.15 104.182 144.744 104.138C144.598 104.609 144.309 105.024 143.916 105.325C143.524 105.627 143.048 105.802 142.552 105.825Z" fill="black"/>
  <path opacity="0.1" d="M143.742 110.479C143.612 110.765 143.427 111.024 143.197 111.239C142.967 111.455 142.696 111.623 142.401 111.735C142.105 111.846 141.79 111.899 141.474 111.889C141.158 111.88 140.847 111.809 140.558 111.68C140.27 111.551 140.01 111.367 139.793 111.139C139.576 110.91 139.407 110.641 139.295 110.348C139.182 110.054 139.129 109.741 139.139 109.427C139.148 109.113 139.22 108.804 139.349 108.518C139.547 108.648 139.725 108.806 139.878 108.987C140.106 109.265 140.257 109.578 140.523 109.839C141.016 110.318 141.811 110.521 142.518 110.535C142.927 110.54 143.335 110.522 143.742 110.479Z" fill="black"/>
  <path d="M137.725 114C137.725 114 139.626 113.942 140.199 113.537C140.772 113.131 143.117 112.646 143.266 113.298C143.416 113.949 146.124 116.538 143.977 116.548C141.83 116.559 138.989 116.207 138.417 115.866C137.845 115.525 137.725 114 137.725 114Z" fill="#656380"/>
  <path opacity="0.2" d="M144.015 116.321C141.869 116.339 139.026 115.98 138.455 115.639C138.021 115.377 137.845 114.43 137.789 113.994H137.725C137.725 113.994 137.845 115.517 138.412 115.87C138.978 116.223 141.824 116.565 143.972 116.552C144.592 116.552 144.806 116.327 144.794 116.003C144.713 116.195 144.477 116.318 144.015 116.321Z" fill="black"/>
  <path d="M33.3718 109.822C32.1255 107.53 33.5434 104.723 35.1639 102.68C36.7843 100.637 38.7686 98.5121 38.7257 95.908C38.6639 92.1663 34.6678 89.9578 31.475 87.9745C29.1057 86.5025 26.9202 84.7571 24.964 82.7747C24.1796 81.9783 23.4191 81.129 22.9625 80.1126C22.3033 78.6494 22.3205 76.9866 22.3634 75.3835C22.5007 70.04 22.7662 64.7066 23.1599 59.3835" stroke="#3F3D56" stroke-width="4" stroke-miterlimit="10"/>
  <path d="M17.0884 59.0919C17.1354 58.1157 17.4285 57.1668 17.9408 56.3325C18.4531 55.4982 19.1682 54.805 20.0203 54.3168L21.3352 56.9005L21.2957 53.7728C22.4903 53.4231 23.7658 53.4596 24.9381 53.877C26.1104 54.2945 27.1188 55.0713 27.8177 56.0953C28.5167 57.1193 28.87 58.3375 28.8266 59.5739C28.7832 60.8104 28.3454 62.0012 27.5764 62.9743C26.8074 63.9475 25.747 64.6527 24.5483 64.988C23.3496 65.3234 22.0746 65.2716 20.9075 64.8401C19.7403 64.4086 18.7414 63.6198 18.055 62.5875C17.3685 61.5552 17.03 60.3329 17.0884 59.097V59.0919Z" fill="#57B793"/>
  <path d="M27.5629 98.582C28.1534 99.7253 29.1075 100.643 30.2769 101.192C31.4463 101.741 32.7656 101.892 34.0297 101.619C35.2938 101.347 36.4321 100.668 37.2676 99.6868C38.1032 98.7058 38.5892 97.4781 38.6502 96.1944C38.6912 95.3875 38.5608 94.581 38.2674 93.8274C37.8386 92.722 37.0813 91.7725 36.0962 91.1051C35.1111 90.4376 33.9449 90.0838 32.7525 90.0906C31.5601 90.0975 30.3981 90.4647 29.4209 91.1434C28.4436 91.8221 27.6974 92.7803 27.2814 93.8905L30.9497 96.8544L26.9141 95.9216C26.9124 96.8473 27.135 97.7597 27.5629 98.582Z" fill="#57B793"/>
  <path d="M30.4622 87.2547C31.9023 87.3202 33.3164 86.8572 34.4352 85.9539C35.5539 85.0506 36.2993 83.7701 36.5293 82.3563C36.7594 80.9424 36.4581 79.4938 35.6827 78.2863C34.9074 77.0789 33.7122 76.1968 32.3247 75.8081L32.3556 78.211L31.0338 75.5967H31.0184C29.4621 75.5245 27.9407 76.0696 26.7888 77.1119C25.637 78.1542 24.9491 79.6084 24.8765 81.1545C24.8039 82.7007 25.3525 84.2122 26.4016 85.3566C27.4508 86.5009 28.9145 87.1843 30.4708 87.2564L30.4622 87.2547Z" fill="#57B793"/>
  <path d="M16.2044 77.829C17.1137 77.8731 18.0209 77.7065 18.8543 77.3425C19.6877 76.9785 20.4245 76.427 21.0066 75.7316C21.5887 75.0363 22.0002 74.216 22.2085 73.3355C22.4168 72.455 22.4163 71.5385 22.207 70.6583C21.9977 69.7781 21.5853 68.9583 21.0024 68.2635C20.4195 67.5688 19.682 67.0181 18.8482 66.6551C18.0144 66.292 17.1071 66.1265 16.1978 66.1715C15.2886 66.2165 14.4023 66.4709 13.609 66.9145L14.6389 69.7404L12.5121 67.699C11.9435 68.213 11.4826 68.8334 11.1556 69.5246C10.8287 70.2158 10.6421 70.9642 10.6067 71.7271C10.5794 72.267 10.6297 72.8079 10.756 73.3336C11.048 74.5699 11.738 75.6779 12.7213 76.4892C13.7046 77.3005 14.9275 77.7709 16.2044 77.829Z" fill="#57B793"/>
  <path opacity="0.1" d="M17.878 60.6472C19.2341 60.7956 20.5524 61.2134 21.912 61.297C23.2715 61.3805 24.7666 61.0582 25.6266 60.0077C26.0901 59.4415 26.3218 58.7252 26.7132 58.1079C27.084 57.5326 27.5924 57.0575 28.1929 56.7248C28.5668 57.4643 28.7782 58.2744 28.8129 59.1012C28.8476 59.9281 28.7049 60.7529 28.3943 61.5207C28.0837 62.2886 27.6122 62.9821 27.0112 63.5551C26.4101 64.1282 25.6933 64.5676 24.9083 64.8444C24.1232 65.1211 23.2879 65.2288 22.4578 65.1604C21.6276 65.0919 20.8216 64.8488 20.0933 64.4471C19.3649 64.0455 18.7309 63.4946 18.2333 62.8309C17.7356 62.1673 17.3857 61.406 17.2068 60.5977C17.4352 60.608 17.6583 60.6233 17.878 60.6472Z" fill="black"/>
  <path opacity="0.1" d="M16.2044 77.829C17.2165 77.8754 18.2236 77.661 19.1277 77.2067C20.0319 76.7524 20.8025 76.0736 21.3647 75.2362C21.927 74.3987 22.2617 73.4311 22.3366 72.4272C22.4114 71.4234 22.2238 70.4173 21.7918 69.5067C21.3255 69.8183 20.9244 70.2167 20.6108 70.68C20.192 71.3076 19.9396 72.0324 19.447 72.6088C18.5321 73.6764 16.97 74.026 15.5521 73.9629C14.1342 73.8998 12.7661 73.4973 11.3551 73.3694C11.1594 73.3524 10.9603 73.3387 10.7629 73.3336C11.0545 74.5688 11.7435 75.676 12.7254 76.4872C13.7074 77.2984 14.9287 77.7695 16.2044 77.829Z" fill="black"/>
  <path opacity="0.1" d="M30.4622 87.2547C31.4645 87.3015 32.4621 87.0923 33.3599 86.6472C34.2577 86.2021 35.0257 85.5358 35.5907 84.712C36.1556 83.8882 36.4987 82.9343 36.5872 81.9413C36.6756 80.9484 36.5065 79.9494 36.096 79.0399C35.6123 79.3591 35.1917 79.7637 34.8549 80.2336C34.3983 80.8732 34.1133 81.6099 33.5795 82.1999C32.589 83.2965 30.9239 83.6836 29.4219 83.6478C27.968 83.6171 26.5673 83.2624 25.1219 83.1516C25.4798 84.2978 26.1844 85.3067 27.14 86.0408C28.0955 86.775 29.2555 87.1989 30.4622 87.2547Z" fill="black"/>
  <path opacity="0.1" d="M27.5629 98.582C28.1534 99.7253 29.1075 100.643 30.2769 101.192C31.4463 101.741 32.7656 101.892 34.0297 101.619C35.2939 101.347 36.4321 100.668 37.2676 99.6868C38.1032 98.7058 38.5892 97.4781 38.6502 96.1944C38.6912 95.3874 38.5608 94.5809 38.2674 93.8273C37.7842 94.1427 37.3504 94.5271 36.98 94.9682C36.4221 95.6504 36.0531 96.411 35.4076 97.042C34.206 98.2119 32.268 98.6962 30.5429 98.7474C29.5472 98.7508 28.5521 98.6956 27.5629 98.582Z" fill="black"/>
  <path d="M74.0218 113.23L51.3631 117.834L50.8482 117.783L30.936 115.788V90.7184L55.3112 86.6255L72.9919 88.672L72.997 88.7828L72.9987 88.8374L74.0218 113.23Z" fill="#9BC269"/>
  <path opacity="0.1" d="M74.0218 113.23L51.3631 117.834L50.8481 117.783V92.0827L72.997 88.7828L74.0218 113.23Z" fill="black"/>
  <path opacity="0.05" d="M72.9987 88.8374L72.9919 88.8425L50.8482 92.0827L30.936 90.7184L55.3112 86.6255L72.9919 88.672L72.997 88.7828L72.9987 88.8374Z" fill="black"/>
  <path d="M98.912 114.253L76.2533 118.857L75.7383 118.806L55.8262 116.811V91.7416L80.2014 87.6487L97.882 89.6952L97.8872 89.806L97.8889 89.8606L98.912 114.253Z" fill="#3F3D56"/>
  <path opacity="0.1" d="M98.912 114.253L76.2533 118.857L75.7383 118.806V93.106L97.8872 89.806L98.912 114.253Z" fill="black"/>
  <path opacity="0.05" d="M97.8889 89.8606L97.882 89.8657L75.7383 93.1059L55.8262 91.7416L80.2014 87.6487L97.882 89.6952L97.8872 89.806L97.8889 89.8606Z" fill="black"/>
  <path d="M83.2913 89.6952L60.6326 94.2998L60.1176 94.2486L40.2054 92.2533V67.184L64.5807 63.0911L82.2613 65.1375L82.2665 65.2484L82.2682 65.303L83.2913 89.6952Z" fill="#3F3D56"/>
  <path opacity="0.1" d="M83.2913 89.6952L60.6326 94.2997L60.1176 94.2486V68.5483L82.2665 65.2484L83.2913 89.6952Z" fill="black"/>
  <path opacity="0.05" d="M82.2682 65.303L82.2613 65.3081L60.1176 68.5483L40.2054 67.184L64.5807 63.0911L82.2613 65.1375L82.2665 65.2484L82.2682 65.303Z" fill="black"/>
  <path d="M96.1655 90.7457L84.3401 93.1503L84.0706 93.123L73.6785 92.081V78.9972L86.3999 76.8604L95.6282 77.9296L95.6316 77.9876V78.0149L96.1655 90.7457Z" fill="#3F3D56"/>
  <path opacity="0.1" d="M96.1655 90.7457L84.3401 93.1503L84.0706 93.123V79.7101L95.6316 77.9877L96.1655 90.7457Z" fill="black"/>
  <path opacity="0.05" d="M95.6316 78.0149L95.6282 78.0183L84.0706 79.7101L73.6785 78.9972L86.3999 76.8604L95.6282 77.9296L95.6316 77.9876V78.0149Z" fill="black"/>
  <path d="M64.409 65.3353L52.5836 67.7382L52.3141 67.7126L41.922 66.6706V53.5869L54.6435 51.45L63.8717 52.5193L63.8752 52.5773V52.6046L64.409 65.3353Z" fill="#3F3D56"/>
  <path opacity="0.1" d="M64.409 65.3353L52.5836 67.7382L52.3141 67.7126V54.2997L63.8752 52.5773L64.409 65.3353Z" fill="black"/>
  <path opacity="0.05" d="M63.8752 52.6046L63.8717 52.608L52.3141 54.2997L41.922 53.5869L54.6435 51.45L63.8717 52.5193L63.8752 52.5773V52.6046Z" fill="black"/>
  <path d="M85.1795 64.8237L73.354 67.2266L73.0845 67.201L62.6924 66.1591V53.0753L75.4139 50.9384L84.6422 52.0077L84.6456 52.0657V52.093L85.1795 64.8237Z" fill="#9BC269"/>
  <path opacity="0.1" d="M85.1795 64.8237L73.354 67.2266L73.0845 67.201V53.7881L84.6456 52.0657L85.1795 64.8237Z" fill="black"/>
  <path opacity="0.05" d="M84.6456 52.093L84.6422 52.0964L73.0845 53.7881L62.6924 53.0753L75.4139 50.9384L84.6422 52.0077L84.6456 52.0657V52.093Z" fill="black"/>
  <path d="M91.3591 51.6922L79.5337 54.0951L79.2642 54.0695L68.8721 53.0275V39.9437L81.5935 37.8069L90.8218 38.8762L90.8252 38.9342V38.9614L91.3591 51.6922Z" fill="#3F3D56"/>
  <path opacity="0.1" d="M91.3591 51.6922L79.5337 54.0951L79.2642 54.0695V40.6566L90.8252 38.9341L91.3591 51.6922Z" fill="black"/>
  <path opacity="0.05" d="M90.8252 38.9614L90.8218 38.9648L79.2642 40.6566L68.8721 39.9437L81.5935 37.8069L90.8218 38.8762L90.8252 38.9342V38.9614Z" fill="black"/>
  <path d="M99.4133 24.9448C99.2879 26.0533 98.4365 26.9469 98.1207 28.0145C97.6469 29.6261 98.464 31.3571 99.5901 32.6191C100.498 33.6218 101.596 34.4357 102.823 35.0135C104.049 35.5914 105.379 35.9218 106.734 35.9855C107.133 36.0196 107.534 35.9761 107.915 35.8576C108.255 35.7202 108.561 35.512 108.813 35.2471C109.658 34.4029 110.113 33.2347 110.293 32.0563C110.473 30.8779 110.404 29.679 110.334 28.4903C110.334 28.2443 110.289 28.0004 110.2 27.7706C110.085 27.5521 109.927 27.3589 109.735 27.2027C109.126 26.6469 108.455 26.1622 107.735 25.7583C107.426 25.5877 107.095 25.4172 106.897 25.1222C106.762 24.8872 106.674 24.6283 106.638 24.3599L106.417 23.2411C106.378 22.9186 106.267 22.6087 106.092 22.3338C105.703 21.812 104.956 21.7404 104.302 21.7148L101.899 21.621C101.152 21.592 100.17 21.3788 99.4407 21.5255C98.7541 21.6602 98.9858 22.2844 99.1094 22.8506C99.2882 23.5354 99.3901 24.2377 99.4133 24.9448Z" fill="#FFC0C6"/>
  <path opacity="0.1" d="M99.4133 24.9448C99.2879 26.0533 98.4365 26.9469 98.1207 28.0145C97.6469 29.6261 98.464 31.3571 99.5901 32.6191C100.498 33.6218 101.596 34.4357 102.823 35.0135C104.049 35.5914 105.379 35.9218 106.734 35.9855C107.133 36.0196 107.534 35.9761 107.915 35.8576C108.255 35.7202 108.561 35.512 108.813 35.2471C109.658 34.4029 110.113 33.2347 110.293 32.0563C110.473 30.8779 110.404 29.679 110.334 28.4903C110.334 28.2443 110.289 28.0004 110.2 27.7706C110.085 27.5521 109.927 27.3589 109.735 27.2027C109.126 26.6469 108.455 26.1622 107.735 25.7583C107.426 25.5877 107.095 25.4172 106.897 25.1222C106.762 24.8872 106.674 24.6283 106.638 24.3599L106.417 23.2411C106.378 22.9186 106.267 22.6087 106.092 22.3338C105.703 21.812 104.956 21.7404 104.302 21.7148L101.899 21.621C101.152 21.592 100.17 21.3788 99.4407 21.5255C98.7541 21.6602 98.9858 22.2844 99.1094 22.8506C99.2882 23.5354 99.3901 24.2377 99.4133 24.9448Z" fill="black"/>
  <path d="M114.675 74.8719L113.656 85.9774C113.39 88.8903 113.118 91.815 112.596 94.6903C112.425 95.6811 112.205 96.6668 111.954 97.644C111.258 100.357 110.246 103.009 109.92 105.791C109.91 105.871 109.901 105.961 109.893 106.035C109.826 106.649 109.768 107.269 109.55 107.842C109.378 108.267 109.136 108.654 108.959 109.074C108.616 109.913 108.561 110.84 108.518 111.749C107.281 111.055 105.925 110.593 104.52 110.385C103.833 110.284 103.087 110.214 102.632 109.703C102.117 109.147 102.177 108.296 102.263 107.549C102.533 105.23 102.802 102.911 103.07 100.594C103.159 99.5973 103.331 98.6094 103.584 97.6406C103.677 97.3183 103.789 97.0011 103.902 96.6839C104.058 96.2473 104.216 95.8107 104.335 95.3622C104.499 94.6416 104.612 93.9105 104.675 93.1742C104.951 90.8412 105.284 88.5134 105.576 86.1821L105.591 86.0593C106.029 82.5257 106.362 78.9751 106.266 75.4159C106.252 74.889 106.23 74.362 106.195 73.8333C106.147 73.0676 106.077 72.6617 106.71 72.1825C107.416 71.6538 108.345 71.2838 109.151 70.9376C109.586 70.75 114.368 69.0617 114.473 69.4334C114.695 70.2231 114.81 71.0386 114.816 71.8585C114.826 72.8648 114.779 73.8708 114.675 74.8719Z" fill="#605D82"/>
  <path opacity="0.1" d="M112.596 94.6903C112.425 95.6811 112.205 96.6668 111.954 97.644C111.258 100.357 110.246 103.009 109.92 105.791C109.91 105.871 109.901 105.961 109.893 106.035C107.761 103.009 105.965 99.7553 103.885 96.6975C104.041 96.2609 104.199 95.8243 104.317 95.3758C104.488 94.6511 104.607 93.9154 104.675 93.1742C104.951 90.8412 105.284 88.5133 105.576 86.1821L105.591 86.0593C105.712 86.554 105.884 87.0347 106.106 87.4935C107.503 90.3142 110.823 91.7399 112.447 94.4396C112.501 94.5237 112.551 94.6073 112.596 94.6903Z" fill="black"/>
  <path d="M95.2969 69.8904C95.3673 72.1518 95.7312 74.3944 96.0951 76.6284L96.8452 81.233C97.2555 83.757 97.6846 86.3304 98.8862 88.5901C99.7857 90.2818 101.08 91.7246 102.252 93.2407C105.133 96.9687 107.297 101.193 110.028 105.03C110.823 106.145 111.958 107.353 113.312 107.119C114.201 106.967 114.847 106.231 115.544 105.664C116.368 104.996 117.36 104.507 118.009 103.667C118.658 102.828 118.785 101.437 117.906 100.84C117.605 100.637 117.24 100.56 116.9 100.431C115.539 99.919 114.656 98.5956 114.097 97.2586C113.537 95.9216 113.196 94.4873 112.449 93.2441C110.825 90.5445 107.503 89.1188 106.106 86.2963C105.323 84.7171 105.248 82.8855 105.189 81.1341L105.037 76.6472C105.02 76.1561 105.007 75.6461 105.208 75.1976C105.742 74.0038 107.356 73.8913 108.664 73.7395C110.147 73.5674 111.584 73.1172 112.899 72.4127C113.652 72.0085 114.387 71.4935 114.787 70.7431C115.154 70.061 115.204 69.2577 115.247 68.4835L115.7 60.3505C115.739 59.6513 115.774 58.9265 115.528 58.2716C114.905 56.6242 112.811 56.0853 111.041 56.1637C107.749 56.3104 104.711 57.7173 101.6 58.669C100.829 58.9043 100.055 59.1158 99.2604 59.2744C98.5738 59.4125 97.7155 59.3562 97.0564 59.5779C95.8754 59.9736 95.9045 62.5419 95.738 63.6061C95.3945 65.6827 95.2468 67.7866 95.2969 69.8904Z" fill="#605D82"/>
  <path d="M112.866 107.464C113.156 107.755 113.25 108.182 113.326 108.584C113.746 110.818 113.964 113.084 113.978 115.356C113.96 115.568 114.002 115.781 114.1 115.97C114.182 116.082 114.293 116.17 114.421 116.226C115.261 116.623 116.234 116.069 116.934 115.46C118.23 114.333 119.327 112.819 119.401 111.108C119.42 110.668 119.37 110.223 119.447 109.788C119.561 109.143 119.94 108.582 120.273 108.02C120.843 107.06 121.303 106.041 121.646 104.981C121.773 104.582 121.859 104.08 121.543 103.802C121.433 103.715 121.306 103.649 121.171 103.609L117.377 102.211C117.048 102.09 116.23 104.176 116.102 104.404C115.784 104.962 115.468 105.277 114.831 105.407C114.195 105.537 113.408 105.349 112.801 105.671C111.771 106.215 112.284 106.882 112.866 107.464Z" fill="#535070"/>
  <path d="M107.016 108.751C106.946 108.612 106.847 108.488 106.727 108.388C106.552 108.277 106.353 108.21 106.146 108.192C105.425 108.069 104.57 107.989 104.07 108.523C103.603 109.022 103.684 109.836 103.294 110.399C103.171 110.569 103.003 110.723 102.896 110.91C102.764 111.197 102.705 111.513 102.724 111.828C102.704 112.696 102.683 113.567 102.745 114.434C102.795 115.16 102.917 115.922 103.375 116.492C104.11 117.406 105.435 117.537 106.609 117.595L107.562 117.645C107.824 117.675 108.089 117.651 108.341 117.573C108.497 117.502 108.637 117.4 108.753 117.274C108.868 117.147 108.957 116.999 109.014 116.838C109.51 115.614 108.726 114.295 108.242 113.068C107.684 111.654 107.783 110.087 107.016 108.751Z" fill="#535070"/>
  <path d="M99.1386 18.6945C99.1264 18.5704 99.1446 18.4452 99.1918 18.3296C99.3308 18.0857 99.6947 18.159 99.9694 18.2204C101.073 18.4967 102.237 18.246 103.375 18.3108C104.513 18.3756 105.794 18.9401 106.022 20.0486C106.848 19.4681 107.559 18.7421 108.121 17.9066C108.437 17.4376 108.712 16.9004 108.669 16.3377C108.607 15.5259 107.922 14.9188 107.296 14.4038L105.407 12.8689C105.159 12.6422 104.872 12.4609 104.559 12.3334C104.123 12.185 103.646 12.2567 103.186 12.2567C101.813 12.2567 100.34 11.6342 99.1162 12.2567C98.6013 12.5176 98.2185 12.9661 97.8477 13.4027L96.1603 15.3878C96.0326 15.5143 95.9393 15.671 95.8891 15.8431C95.841 16.0853 95.9663 16.324 96.011 16.5679C96.0899 17.0113 95.8977 17.4854 96.0453 17.9117C96.2908 18.6178 97.1559 18.7184 97.6846 19.1243C97.8803 19.2744 98.1893 19.7877 98.4245 19.7809C98.8382 19.7723 99.1265 19.022 99.1386 18.6945Z" fill="#3F3D56"/>
  <path d="M102.002 24.5492C104.988 24.5492 107.409 22.144 107.409 19.1772C107.409 16.2103 104.988 13.8052 102.002 13.8052C99.0155 13.8052 96.5946 16.2103 96.5946 19.1772C96.5946 22.144 99.0155 24.5492 102.002 24.5492Z" fill="#FFC0C6"/>
  <path d="M103.269 30.9324C103.085 30.4118 102.741 29.9624 102.284 29.6491C101.827 29.3359 101.281 29.1749 100.726 29.1895C100.567 29.2197 100.403 29.1988 100.256 29.1298C100.173 29.0669 100.107 28.985 100.062 28.8911C99.7343 28.3031 99.4702 27.6823 99.2742 27.039C99.1884 26.7542 99.0699 26.4183 98.7798 26.3449C98.5464 26.2852 98.3078 26.4353 98.1516 26.6178C98.0131 26.8136 97.8629 27.001 97.7018 27.1789C97.0152 27.7826 95.8136 27.2317 95.0944 27.786C94.9759 27.8764 94.8781 27.9923 94.7511 28.0759C94.6275 28.1507 94.494 28.2081 94.3545 28.2464C92.9584 28.6977 91.5897 29.229 90.2554 29.8376C90.736 32.7095 91.2269 35.6359 92.353 38.3219C92.8886 39.601 93.4945 40.8544 93.9237 42.1727C94.8747 45.094 94.9158 48.22 94.9279 51.2914C94.9279 53.3925 94.9279 55.5379 94.2412 57.5263C94.0867 57.9766 93.8979 58.4234 93.855 58.8907C93.8121 59.3579 93.9529 59.8866 94.3391 60.1663C94.5627 60.3128 94.8191 60.4024 95.0858 60.4272C96.2719 60.5978 97.4667 60.2874 98.6339 60.0179C101.763 59.2982 104.956 58.8855 108.14 58.4831L113.479 57.8009C113.862 57.7743 114.237 57.6778 114.584 57.5161C115.561 56.9857 115.654 55.5259 115.046 54.5982C114.756 54.1531 114.346 53.7881 114.1 53.3174C113.855 52.8467 113.836 52.1851 114.256 51.8593C115.115 51.1942 114.857 49.9612 114.898 48.8834C115.013 45.8683 114.997 42.8554 114.852 39.8448C114.808 39.2205 114.798 38.5943 114.821 37.9689C114.881 36.9081 115.146 35.8696 115.41 34.8378L117.032 28.4937C116.608 27.8286 115.796 27.4057 115.029 27.2147C114.262 27.0237 113.46 26.9674 112.703 26.7338C111.158 26.2563 109.771 25.0454 108.152 25.158C108.03 25.1602 107.909 25.1893 107.799 25.2433C107.435 25.4496 107.491 25.9715 107.469 26.3876C107.418 27.3102 106.734 28.0793 105.983 28.6199C105.231 29.1605 104.369 29.5528 103.677 30.1684C103.557 30.2584 103.458 30.3734 103.388 30.5054C103.317 30.6374 103.276 30.7832 103.269 30.9324Z" fill="#3F3D56"/>
  <path d="M81.8442 36.9508C81.4861 37.1821 81.1053 37.3769 80.7078 37.5323C80.3302 37.6807 79.9268 37.7983 79.6178 38.0576C79.4648 38.1894 79.3364 38.347 79.2385 38.5231C79.0555 38.8456 78.963 39.2109 78.9706 39.581C78.9783 39.9511 79.0857 40.3124 79.2817 40.6272C79.4778 40.942 79.7552 41.1987 80.0852 41.3707C80.4151 41.5426 80.7855 41.6235 81.1576 41.6048C81.6537 41.5792 82.1223 41.3797 82.5772 41.1836L86.3914 39.5344C87.0368 39.2565 87.7337 38.9324 88.0393 38.3014C88.0743 38.2424 88.0876 38.1731 88.0771 38.1053C88.0475 38.031 87.9912 37.9702 87.9191 37.9348C87.0596 37.3792 86.3078 36.6744 85.6996 35.8542C85.5434 35.6427 85.3563 35.1448 85.1297 35.0168C84.3229 34.5717 82.4913 36.5346 81.8442 36.9508Z" fill="#FFC0C6"/>
  <path d="M122.616 35.6121L124.022 37.2083C124.324 37.5494 124.626 37.8905 124.901 38.2588C125.577 39.1836 126.119 40.1979 126.511 41.2723C126.816 42.0687 127.071 42.918 126.964 43.7638C126.893 44.1975 126.775 44.6223 126.612 45.0309C126.355 45.8165 126.035 46.5807 125.656 47.3162C125.34 47.8743 124.982 48.4084 124.587 48.9141C123.498 50.3476 122.306 51.7012 121.021 52.9644C120.541 53.4368 120.335 54.2026 120.13 54.8404C119.744 56.0188 118.826 56.938 117.938 57.8078C117.653 58.1075 117.337 58.3773 116.996 58.6127C116.485 58.9402 115.887 59.1089 115.279 59.097C115.014 59.0985 114.752 59.0445 114.509 58.9384C113.901 58.6519 113.592 57.9544 113.529 57.2893C113.472 56.685 113.574 56.0765 113.824 55.5225C114.631 53.7472 116.702 52.9781 118.167 51.682C119.025 50.9231 119.682 49.9681 120.331 49.025C120.771 48.4355 121.138 47.796 121.425 47.1201C121.751 46.252 121.624 45.2254 121.911 44.3454C122.031 43.9719 122.254 43.6359 122.376 43.2659C122.498 42.8958 122.539 42.4575 122.311 42.1386C122.139 41.9347 121.921 41.7755 121.674 41.6747C120.738 41.204 119.691 40.5969 119.513 39.5686C119.441 38.9991 119.591 38.4239 119.931 37.9604C120.27 37.5027 120.666 37.0901 121.111 36.7325C121.517 36.3676 122.206 35.9634 122.616 35.6121Z" fill="#FFC0C6"/>
  <path d="M80.9413 39.178C80.6941 38.68 80.3834 38.1718 79.8821 37.9245C79.6382 37.82 79.3753 37.7661 79.1097 37.7661C78.844 37.7661 78.5812 37.82 78.3372 37.9245C77.8515 38.1332 77.3965 38.4062 76.9846 38.7363L75.7727 39.6248C75.498 39.8039 75.2549 40.0269 75.0534 40.2848C74.8612 40.5977 74.734 40.9456 74.6792 41.308C74.5076 42.1386 74.3685 42.993 74.4887 43.8337C74.6809 45.198 75.5049 46.3782 76.4112 47.415C76.9777 48.0597 77.6781 48.7111 78.5398 48.7401C78.9123 48.7521 79.326 48.6054 79.4805 48.2694C79.5343 48.136 79.5628 47.9937 79.5646 47.8499C79.6573 46.3355 79.1114 44.857 78.4763 43.4773C78.3046 43.1021 78.1192 42.7133 78.133 42.3023C78.1277 42.2325 78.1458 42.1629 78.1845 42.1045C78.2389 42.0477 78.3119 42.0121 78.3904 42.0038C79.2607 41.8333 80.761 42.5052 81.3704 41.5451C81.7652 40.9107 81.2228 39.7425 80.9413 39.178Z" fill="#FFC0C6"/>
  <path d="M98.8536 17.0045C98.8429 16.8802 98.8617 16.7552 98.9086 16.6395C99.0476 16.394 99.4115 16.469 99.6862 16.5304C100.79 16.8067 101.954 16.556 103.092 16.6208C104.23 16.6856 105.509 17.2501 105.739 18.3586C106.564 17.7771 107.275 17.0513 107.838 16.2166C108.154 15.7459 108.429 15.2087 108.386 14.6459C108.324 13.8342 107.637 13.227 107.012 12.7137L105.124 11.1789C104.876 10.9522 104.59 10.7709 104.278 10.6434C103.84 10.495 103.365 10.5666 102.905 10.5666C101.531 10.5666 100.059 9.94416 98.8347 10.5666C98.3198 10.8276 97.937 11.2761 97.5662 11.7127L95.8771 13.6977C95.7501 13.8246 95.6574 13.9812 95.6076 14.1531C95.5595 14.3952 95.6849 14.634 95.7295 14.8779C95.8084 15.3213 95.6162 15.7954 95.7638 16.22C96.0093 16.9277 96.8744 17.0284 97.4031 17.4342C97.5988 17.5843 97.9078 18.0976 98.143 18.0908C98.5498 18.0823 98.8382 17.3319 98.8536 17.0045Z" fill="#3F3D56"/>
  <path d="M87.3698 31.7254C87.1519 31.866 86.9602 32.0432 86.8033 32.249C86.6059 32.5474 86.5647 32.9311 86.3948 33.2381C86.0309 33.91 85.1777 34.1505 84.6473 34.7013C84.5613 34.7766 84.5013 34.8768 84.4757 34.9878C84.4724 35.1378 84.5229 35.2841 84.6181 35.4005L87.1827 39.4048C88.041 39.4798 88.8546 38.9478 89.7095 39.0194C90.027 39.045 90.3549 39.1541 90.6605 39.0603C90.8788 38.9637 91.0837 38.8393 91.2698 38.6902C91.7848 38.3696 92.4577 38.3321 92.8851 37.9109C93.3126 37.4896 93.3486 36.8706 93.3434 36.2959C93.3511 35.7971 93.2999 35.2991 93.1907 34.8122C92.813 33.2773 91.6303 32.0938 90.8888 30.7329C90.5266 30.0695 90.3309 29.6824 89.567 30.1377C88.8031 30.593 88.0925 31.2002 87.3698 31.7254Z" fill="#3F3D56"/>
  <path d="M118.51 29.7011C118.992 30.012 119.427 30.3899 119.801 30.8233C120.191 31.323 120.412 31.9369 120.788 32.4485C121.164 32.9601 121.646 33.3285 122.058 33.7855C122.685 34.4779 123.109 35.3204 123.524 36.1577C122.507 37.4723 121.399 38.7145 120.208 39.8755C120.075 40.0308 119.9 40.1445 119.703 40.2029C119.57 40.2172 119.435 40.1983 119.311 40.148C119.187 40.0977 119.078 40.0175 118.992 39.9147C118.807 39.7237 118.677 39.485 118.5 39.2854C118.083 38.8586 117.528 38.5922 116.932 38.5334C116.342 38.4762 115.748 38.4677 115.156 38.5078C115.026 38.5231 114.894 38.5012 114.776 38.4447C114.689 38.3849 114.618 38.3039 114.571 38.2093C113.884 37.036 114.098 35.5626 114.344 34.2221L114.905 31.1524C114.987 30.5663 115.145 29.9932 115.374 29.447C115.587 28.9951 116.06 28.2277 116.648 28.3641C117.235 28.5005 118.014 29.3464 118.51 29.7011Z" fill="#3F3D56"/>
  <path d="M69.5587 52.2038L57.7332 54.6067L57.4638 54.5811L47.0717 53.5391V40.4553L59.7931 38.3185L69.0214 39.3878L69.0248 39.4457V39.473L69.5587 52.2038Z" fill="#9BC269"/>
  <path opacity="0.1" d="M69.5587 52.2038L57.7333 54.6067L57.4638 54.5811V41.1682L69.0249 39.4457L69.5587 52.2038Z" fill="black"/>
  <path opacity="0.05" d="M69.0248 39.473L69.0214 39.4764L57.4637 41.1682L47.0717 40.4553L59.7931 38.3185L69.0214 39.3878L69.0248 39.4457V39.473Z" fill="black"/>
  <path d="M75.7384 39.2428L63.9129 41.6474L63.6434 41.6201L53.2513 40.5781V27.4943L65.9728 25.3575L75.2011 26.4268L75.2045 26.4847V26.512L75.7384 39.2428Z" fill="#3F3D56"/>
  <path opacity="0.1" d="M75.7384 39.2428L63.9129 41.6474L63.6434 41.6201V28.2072L75.2045 26.4847L75.7384 39.2428Z" fill="black"/>
  <path opacity="0.05" d="M75.2045 26.512L75.2011 26.5154L63.6434 28.2072L53.2513 27.4943L65.9728 25.3575L75.2011 26.4268L75.2045 26.4847V26.512Z" fill="black"/>
  </g>
  <defs>
  <clipPath id="clip0">
  <rect width="163" height="120" fill="white"/>
  </clipPath>
  </defs>
  </svg>
