<svg width="auto" height="auto" viewBox="0 0 163 120" fill="none" xmlns="http://www.w3.org/2000/svg">
  <g clip-path="url(#clip0)">
  <g opacity="0.2">
  <path opacity="0.2" d="M133.61 100.315C132.518 101.043 131.405 101.749 130.27 102.433C130.094 102.538 129.917 102.644 129.741 102.753C128.887 103.26 128.021 103.753 127.142 104.232C127.149 104.155 127.157 104.079 127.168 104.002C127.269 103.206 127.492 102.436 127.829 101.725C127.988 101.385 128.176 101.063 128.393 100.765C129.259 99.575 130.444 98.9106 131.663 99.1043C132.423 99.2335 133.114 99.6635 133.61 100.315Z" fill="#3F3D56"/>
  <path opacity="0.2" d="M135.611 98.4879C135.589 98.6592 135.562 98.8273 135.529 98.9938C134.898 99.4421 134.259 99.8823 133.61 100.315C132.518 101.043 131.405 101.749 130.27 102.433C130.094 102.538 129.917 102.644 129.741 102.753C129.529 102.58 129.336 102.382 129.164 102.162C128.841 101.748 128.581 101.278 128.397 100.771C128.011 99.6633 127.888 98.4644 128.04 97.2891C128.191 96.1137 128.613 95.0012 129.263 94.0581C130.13 92.8685 131.315 92.2041 132.534 92.3979C133.753 92.5916 134.729 93.6018 135.252 95.0106C135.648 96.1138 135.772 97.314 135.611 98.4879Z" fill="#3F3D56"/>
  <path opacity="0.2" d="M136.485 91.7805C136.879 88.7471 135.503 86.018 133.412 85.6849C131.322 85.3518 129.309 87.5408 128.915 90.5742C128.522 93.6076 129.898 96.3367 131.988 96.6698C134.079 97.003 136.092 94.814 136.485 91.7805Z" fill="#3F3D56"/>
  <path opacity="0.2" d="M158.307 35.6838C157.935 38.5853 156.999 41.3625 155.563 43.8231L144.815 42.0285L154.525 45.4241C153.999 46.1602 153.428 46.8556 152.817 47.5053C154.87 51.4481 155.669 56.0415 155.085 60.5482C154.501 65.0549 152.568 69.2132 149.597 72.3554C151.334 75.6784 152.181 79.4813 152.038 83.3188C147.471 89.212 141.898 94.4983 135.529 99.0082C134.898 99.4565 134.259 99.8968 133.61 100.329C132.518 101.057 131.405 101.763 130.27 102.447C129.896 102.367 129.528 102.276 129.164 102.17C128.712 102.044 128.268 101.896 127.834 101.733C124.851 100.608 122.18 98.6498 120.08 96.0464C117.98 93.4431 116.521 90.2831 115.844 86.8718C115.167 83.4605 115.295 79.9133 116.216 76.573C117.137 73.2328 118.82 70.2124 121.102 67.8039C120.917 67.4496 120.742 67.0904 120.577 66.7265C120.528 66.6208 120.482 66.5151 120.433 66.4063C119.099 63.3216 118.492 59.9117 118.671 56.4963L118.693 56.1425C118.706 55.952 118.722 55.7599 118.739 55.5694C118.765 55.3004 118.796 55.0299 118.83 54.7593V54.7337C119.113 52.5501 119.717 50.4327 120.618 48.4659L133.717 55.7791L121.78 46.287C122.517 45.0769 123.369 43.9584 124.322 42.9506C123.063 40.5365 122.267 37.861 121.982 35.0907C121.697 32.3204 121.93 29.5148 122.666 26.8487C123.402 24.1825 124.626 21.713 126.26 19.594C127.895 17.475 129.905 15.7519 132.167 14.5321C134.428 13.3123 136.892 12.6219 139.405 12.5041C141.917 12.3862 144.425 12.8433 146.771 13.8469C149.118 14.8505 151.252 16.3791 153.042 18.3374C154.833 20.2958 156.24 22.6419 157.176 25.2296L142.466 33.9532L157.969 27.9544C158.529 30.4828 158.644 33.1072 158.307 35.6838Z" fill="#3C9DC0"/>
  <path opacity="0.1" d="M152.038 83.3044C147.471 89.1976 141.898 94.4839 135.529 98.9938C134.898 99.4421 134.259 99.8824 133.61 100.315C132.518 101.043 131.405 101.749 130.27 102.433C129.896 102.353 129.528 102.261 129.164 102.156C128.712 102.029 128.268 101.882 127.834 101.719C124.854 100.593 122.185 98.6343 120.087 96.0321C117.989 93.4299 116.531 90.2719 115.854 86.8629C115.177 83.4539 115.305 79.9091 116.224 76.5707C117.143 73.2322 118.823 70.2128 121.102 67.8039C120.917 67.4496 120.742 67.0904 120.577 66.7265C120.528 66.6208 120.482 66.5151 120.433 66.4063C119.099 63.3216 118.492 59.9117 118.671 56.4963L118.693 56.1425C118.706 55.952 118.722 55.7599 118.739 55.5694C118.765 55.3004 118.796 55.0299 118.83 54.7593V54.7337C118.943 54.3014 120.433 54.6648 122.703 55.5342L123.182 55.7231C123.685 55.9232 124.221 56.1441 124.784 56.3859C126.013 56.911 127.37 57.5306 128.803 58.2158L128.896 58.2606L129.096 58.3567C138.727 62.9866 151.397 70.4151 149.581 72.333C151.325 75.6565 152.177 79.4625 152.038 83.3044Z" fill="black"/>
  </g>
  <g opacity="0.2">
  <path opacity="0.2" d="M46.0528 109.293C45.4463 109.061 44.8442 108.822 44.2463 108.576C42.8543 108.008 41.4839 107.407 40.1352 106.774C40.4087 106.528 40.719 106.338 41.0521 106.211C42.255 105.753 43.5763 106.19 44.6521 107.244C45.2328 107.821 45.7082 108.517 46.0528 109.293Z" fill="#3F3D56"/>
  <path opacity="0.2" d="M44.6521 107.244C44.5703 107.705 44.4339 108.153 44.2463 108.576C42.8543 108.008 41.4839 107.407 40.1352 106.774C38.9617 106.227 37.8065 105.655 36.6695 105.06C36.6198 104.678 36.5976 104.292 36.6031 103.906C36.608 103.503 36.6466 103.102 36.7186 102.708C37.0074 101.134 37.8248 99.8808 39.0291 99.4229C40.2334 98.965 41.5532 99.4021 42.629 100.457C42.8895 100.713 43.1283 100.995 43.3424 101.299C43.8166 101.976 44.182 102.739 44.4225 103.553C44.7871 104.74 44.8662 106.012 44.6521 107.244Z" fill="#3F3D56"/>
  <path opacity="0.2" d="M40.2428 103.767C42.3203 103.039 43.2923 99.9512 42.4139 96.8697C41.5354 93.7882 39.1391 91.8804 37.0616 92.6084C34.9841 93.3364 34.0121 96.4245 34.8906 99.506C35.769 102.587 38.1653 104.495 40.2428 103.767Z" fill="#3F3D56"/>
  <path opacity="0.2" d="M38.2129 96.9775C40.2904 96.2495 41.2624 93.1613 40.3839 90.0799C39.5055 86.9984 37.1092 85.0906 35.0317 85.8186C32.9542 86.5466 31.9822 89.6347 32.8606 92.7162C33.7391 95.7976 36.1354 97.7055 38.2129 96.9775Z" fill="#3F3D56"/>
  <path opacity="0.2" d="M43.3352 101.299C42.9337 101.56 42.5217 101.804 42.0991 102.031C41.4179 102.398 40.7172 102.719 40.0009 102.991C39.3473 103.242 38.6815 103.451 38.0067 103.617C37.5379 103.735 37.0686 103.83 36.5988 103.904C36.0154 103.997 35.4335 104.058 34.853 104.086C27.8754 100.244 21.6113 95.5438 16.2655 90.1757C16.189 89.9484 16.1211 89.7195 16.0474 89.4873C14.6771 84.9318 14.7004 80.0023 16.1139 75.4629C12.5392 72.8019 9.86968 68.8921 8.52985 64.3554C7.86331 62.1354 7.52204 59.8112 7.51903 57.4713H22.6423L7.66632 54.8169C7.83267 53.2905 8.1444 51.7879 8.59627 50.3342C5.02114 47.6737 2.35149 43.7638 1.01226 39.2268C-2.34654 28.0024 2.93425 15.8527 12.807 12.0841C19.4163 9.56417 26.4069 11.4437 31.3151 16.3266L21.4741 32.2978L33.1909 18.4783C34.7762 20.5768 35.9876 22.9901 36.7605 25.5898C37.6418 28.5262 37.9509 31.6366 37.6674 34.7153L27.035 38.6664L37.3887 36.7565C37.2162 37.725 36.9841 38.6792 36.6941 39.6126C40.2687 42.2731 42.9382 46.1823 44.2781 50.7185C44.9272 52.8794 45.2682 55.1394 45.2889 57.4169V57.4345C45.2889 57.6106 45.2889 57.7867 45.2889 57.9628C45.2889 58.0381 45.2889 58.1117 45.2889 58.1869C45.2385 60.4229 44.8775 62.6368 44.2189 64.7509C45.6717 65.83 46.9836 67.1256 48.1178 68.6012C48.1466 68.6364 48.1741 68.6716 48.2001 68.7085C49.7993 70.8151 51.0203 73.2414 51.7971 75.8568C54.7531 85.7347 51.0116 96.3378 43.3352 101.299Z" fill="#3C9DC0"/>
  <path opacity="0.1" d="M43.3351 101.299C42.9337 101.56 42.5217 101.804 42.0991 102.031C41.4179 102.398 40.7172 102.719 40.0009 102.991C39.3473 103.242 38.6815 103.451 38.0067 103.617C37.5379 103.735 37.0686 103.83 36.5988 103.904C36.0154 103.997 35.4334 104.058 34.8529 104.086C27.8754 100.244 21.6113 95.5437 16.2655 90.1757C16.189 89.9484 16.1211 89.7195 16.0474 89.4873C14.6771 84.9318 14.7004 80.0022 16.1139 75.4629C12.5392 72.8018 9.86968 68.8921 8.52985 64.3554C8.01145 62.6248 29.6299 61.2272 39.4796 62.5672L39.7092 62.5992C42.6983 63.0266 44.5337 63.7198 44.2146 64.7461C45.6673 65.8251 46.9792 67.1207 48.1134 68.5964C48.1423 68.6316 48.1697 68.6668 48.1957 68.7036C49.795 70.8102 51.016 73.2366 51.7928 75.8519C54.753 85.7347 51.0116 96.3378 43.3351 101.299Z" fill="black"/>
  </g>
  <path opacity="0.1" d="M88.406 17.9147C88.4842 17.79 88.5274 17.6424 88.5302 17.4905C88.5302 16.5715 86.8393 15.8271 84.7541 15.8271C82.6689 15.8271 80.978 16.5715 80.978 17.4905C80.9805 17.6653 81.0354 17.8342 81.1339 17.9708C78.8134 18.2573 77.248 18.7969 77.248 19.4116C77.248 20.3322 80.7137 21.0766 84.9808 21.0766C89.2479 21.0766 92.715 20.3322 92.715 19.4116C92.715 18.7536 90.9576 18.1869 88.406 17.9147Z" fill="#3C9DC0"/>
  <path opacity="0.1" d="M115.109 7.51492C115.233 7.31752 115.302 7.08335 115.305 6.84251C115.305 5.38404 112.622 4.20093 109.313 4.20093C106.003 4.20093 103.32 5.38404 103.32 6.84251C103.326 7.11617 103.414 7.37992 103.568 7.59336C99.8831 8.04964 97.3994 8.90455 97.3994 9.88434C97.3994 11.3428 102.895 12.5259 109.674 12.5259C116.452 12.5259 121.948 11.3428 121.948 9.88434C121.948 8.84531 119.161 7.94718 115.109 7.51492Z" fill="#3C9DC0"/>
  <path opacity="0.1" d="M67.0229 7.51492C67.1474 7.31752 67.2158 7.08335 67.2193 6.84251C67.2193 5.38404 64.5363 4.20093 61.2266 4.20093C57.9169 4.20093 55.2339 5.38404 55.2339 6.84251C55.2404 7.11617 55.3277 7.37992 55.4823 7.59336C51.7971 8.04964 49.3134 8.90455 49.3134 9.88434C49.3134 11.3428 54.8094 12.5259 61.5876 12.5259C68.3659 12.5259 73.8618 11.3428 73.8618 9.88434C73.8618 8.84531 71.0749 7.94718 67.0229 7.51492Z" fill="#3C9DC0"/>
  <path opacity="0.1" d="M51.8303 21.3072C52.1668 21.091 52.6216 21.2975 52.8527 21.645C53.0837 21.9924 53.1487 22.4454 53.2065 22.8665C53.335 23.8127 53.4289 24.8997 52.8527 25.6137C53.7942 22.4486 56.5017 20.0232 59.4952 19.6694" stroke="#3C9DC0" stroke-width="3" stroke-miterlimit="10"/>
  <path opacity="0.1" d="M89.5872 5.61455C89.8039 5.47526 90.0955 5.61455 90.2443 5.83068C90.3763 6.06851 90.4546 6.33818 90.4724 6.61675C90.5547 7.22511 90.6168 7.92313 90.2443 8.37781C90.563 7.36373 91.1318 6.46902 91.8861 5.79523C92.6403 5.12144 93.5498 4.69556 94.5114 4.56592" stroke="#3C9DC0" stroke-width="3" stroke-miterlimit="10"/>
  <path opacity="0.1" d="M127.854 1.29198C128.07 1.15269 128.362 1.29198 128.511 1.50811C128.643 1.74593 128.721 2.01561 128.739 2.29418C128.821 2.90254 128.883 3.60056 128.511 4.05523C128.83 3.04115 129.398 2.14645 130.153 1.47266C130.907 0.798873 131.816 0.37299 132.778 0.243347" stroke="#3C9DC0" stroke-width="3" stroke-miterlimit="10"/>
  <path opacity="0.1" d="M84.0119 120C127.636 120 163 116.81 163 112.876C163 108.941 127.636 105.751 84.0119 105.751C40.3879 105.751 5.02374 108.941 5.02374 112.876C5.02374 116.81 40.3879 120 84.0119 120Z" fill="#3C9DC0"/>
  <path d="M143.727 31.1467H22.5643C21.0913 31.1467 19.8972 32.4706 19.8972 34.1037V108.558C19.8972 110.191 21.0913 111.515 22.5643 111.515H143.727C145.2 111.515 146.394 110.191 146.394 108.558V34.1037C146.394 32.4706 145.2 31.1467 143.727 31.1467Z" fill="white"/>
  <path d="M146.395 34.1036V38.3462H19.8986V34.1036C19.8981 33.7149 19.9666 33.3299 20.1004 32.9706C20.2342 32.6113 20.4305 32.2847 20.6783 32.0096C20.926 31.7345 21.2202 31.5163 21.5441 31.3674C21.8679 31.2185 22.2151 31.1418 22.5657 31.1418H143.728C144.079 31.1418 144.426 31.2185 144.75 31.3674C145.074 31.5163 145.368 31.7345 145.615 32.0096C145.863 32.2847 146.06 32.6113 146.193 32.9706C146.327 33.3299 146.396 33.7149 146.395 34.1036Z" fill="#3F3D56"/>
  <g opacity="0.6">
  <path opacity="0.6" d="M51.9011 49.9579H31.6472C30.3018 49.9579 29.2112 51.1672 29.2112 52.6588V66.1485C29.2112 67.6401 30.3018 68.8493 31.6472 68.8493H51.9011C53.2465 68.8493 54.3372 67.6401 54.3372 66.1485V52.6588C54.3372 51.1672 53.2465 49.9579 51.9011 49.9579Z" fill="#3C9DC0"/>
  <path opacity="0.6" d="M39.3266 66.1772C38.4239 65.5261 37.7547 64.5458 37.4346 63.4058C37.1146 62.2658 37.1637 61.0376 37.5735 59.9335C37.0614 59.1436 36.7495 58.2159 36.6705 57.247C36.5914 56.2781 36.748 55.3034 37.1239 54.4244C37.4999 53.5454 38.0814 52.7941 38.8081 52.2488C39.5347 51.7035 40.3799 51.384 41.2557 51.3237C42.1315 51.2634 43.0059 51.4644 43.7878 51.9058C44.5698 52.3472 45.2307 53.0129 45.7019 53.8335C46.1731 54.6542 46.4373 55.5999 46.467 56.5722C46.4967 57.5445 46.2909 58.5078 45.8709 59.362C46.4482 60.4961 46.6143 61.8315 46.3354 63.0966C46.0564 64.3617 45.3533 65.4615 44.3691 66.1724C45.373 66.8417 46.1739 67.8278 46.6694 69.0045H37.0248C37.5214 67.8293 38.3228 66.8449 39.3266 66.1772Z" fill="white"/>
  </g>
  <path d="M92.3338 81.0166H72.0799C70.7345 81.0166 69.6438 82.2258 69.6438 83.7174V97.2071C69.6438 98.6987 70.7345 99.9079 72.0799 99.9079H92.3338C93.6792 99.9079 94.7699 98.6987 94.7699 97.2071V83.7174C94.7699 82.2258 93.6792 81.0166 92.3338 81.0166Z" fill="#3C9DC0"/>
  <path d="M84.6573 98.1965C85.3725 98.6675 85.9862 99.3063 86.4551 100.068H77.817C78.286 99.3063 78.8996 98.6675 79.6148 98.1965C78.7121 97.5454 78.043 96.5651 77.7229 95.4251C77.4028 94.2851 77.4519 93.0569 77.8617 91.9528C77.3496 91.1629 77.0378 90.2352 76.9587 89.2663C76.8796 88.2974 77.0362 87.3227 77.4121 86.4437C77.7881 85.5647 78.3696 84.8134 79.0963 84.2681C79.823 83.7228 80.6682 83.4033 81.544 83.343C82.4197 83.2827 83.2941 83.4837 84.0761 83.9251C84.858 84.3665 85.519 85.0322 85.9902 85.8528C86.4614 86.6735 86.7256 87.6192 86.7553 88.5915C86.785 89.5638 86.5791 90.5271 86.1591 91.3813C86.7365 92.5154 86.9026 93.8508 86.6236 95.1159C86.3446 96.381 85.6416 97.4808 84.6573 98.1917V98.1965Z" fill="white"/>
  <g opacity="0.6">
  <path opacity="0.6" d="M92.3338 49.958H72.0799C70.7345 49.958 69.6438 51.1672 69.6438 52.6588V66.1485C69.6438 67.6401 70.7345 68.8493 72.0799 68.8493H92.3338C93.6792 68.8493 94.7699 67.6401 94.7699 66.1485V52.6588C94.7699 51.1672 93.6792 49.958 92.3338 49.958Z" fill="#3C9DC0"/>
  <path opacity="0.6" d="M87.0963 60.8526C87.2832 61.8608 87.1917 62.908 86.834 63.8578C86.4762 64.8076 85.8687 65.6159 85.0906 66.1774C86.0945 66.8466 86.8954 67.8327 87.3909 69.0095H77.7463C78.2418 67.8327 79.0427 66.8466 80.0466 66.1774C79.2143 65.5757 78.579 64.6925 78.2351 63.6589C77.8913 62.6253 77.8571 61.4964 78.1376 60.4395C78.0748 60.4473 78.0117 60.451 77.9485 60.4507C77.4664 60.4453 77.0047 60.2345 76.659 59.862C76.3133 59.4895 76.1102 58.9838 76.0916 58.4497C76.073 57.9156 76.2405 57.3941 76.5593 56.9932C76.8781 56.5923 77.3238 56.3427 77.8041 56.2962C77.7073 56.0403 77.6582 55.7653 77.6597 55.4877C77.661 55.0008 77.8163 54.5298 78.0986 54.1568C78.3808 53.7837 78.7721 53.5321 79.2044 53.4459C79.6366 53.3596 80.0824 53.4441 80.4643 53.6847C80.8462 53.9253 81.1398 54.3067 81.2943 54.7625C81.5884 54.4606 81.9619 54.271 82.3603 54.2214C82.7586 54.1719 83.1608 54.265 83.5079 54.4871C83.7384 54.3388 83.9946 54.2466 84.2596 54.2166C84.5247 54.1866 84.7925 54.2195 85.0452 54.3131C85.2979 54.4067 85.5297 54.5588 85.7253 54.7594C85.9208 54.96 86.0756 55.2045 86.1794 55.4765C86.6693 55.4764 87.14 55.6886 87.4907 56.0679C87.8415 56.4472 88.0445 56.9635 88.0566 57.5065C88.258 57.775 88.3952 58.0953 88.4557 58.438C88.5161 58.7807 88.4978 59.1348 88.4025 59.4676C88.3071 59.8004 88.1378 60.1012 87.91 60.3424C87.6823 60.5836 87.4034 60.7574 87.0992 60.8478L87.0963 60.8526Z" fill="white"/>
  </g>
  <g opacity="0.6">
  <path opacity="0.6" d="M134.644 81.0166H114.39C113.044 81.0166 111.954 82.2258 111.954 83.7174V97.2071C111.954 98.6987 113.044 99.9079 114.39 99.9079H134.644C135.989 99.9079 137.08 98.6987 137.08 97.2071V83.7174C137.08 82.2258 135.989 81.0166 134.644 81.0166Z" fill="#3C9DC0"/>
  <path opacity="0.6" d="M129.406 92.8717C129.593 93.8799 129.502 94.9272 129.144 95.877C128.786 96.8268 128.179 97.6351 127.4 98.1965C128.116 98.6675 128.729 99.3063 129.198 100.068H120.56C121.029 99.3063 121.643 98.6675 122.358 98.1965C121.525 97.595 120.89 96.712 120.546 95.6783C120.201 94.6447 120.167 93.5157 120.447 92.4587C120.385 92.4664 120.321 92.4702 120.258 92.4699C119.776 92.4645 119.315 92.2537 118.969 91.8811C118.623 91.5086 118.42 91.0029 118.401 90.4689C118.383 89.9348 118.55 89.4133 118.869 89.0124C119.188 88.6115 119.634 88.3619 120.114 88.3154C120.017 88.0594 119.968 87.7844 119.969 87.5069C119.971 87.02 120.126 86.549 120.408 86.1759C120.691 85.8028 121.082 85.5513 121.514 85.465C121.946 85.3788 122.392 85.4633 122.774 85.7039C123.156 85.9444 123.45 86.3258 123.604 86.7817C123.898 86.4797 124.272 86.2901 124.67 86.2406C125.068 86.191 125.471 86.2842 125.818 86.5063C126.048 86.358 126.304 86.2658 126.57 86.2358C126.835 86.2058 127.102 86.2386 127.355 86.3322C127.608 86.4258 127.84 86.578 128.035 86.7786C128.231 86.9792 128.385 87.2236 128.489 87.4957C128.979 87.4955 129.45 87.7077 129.801 88.087C130.151 88.4663 130.354 88.9826 130.366 89.5257C130.568 89.7942 130.705 90.1145 130.766 90.4572C130.826 90.7999 130.808 91.1539 130.712 91.4867C130.617 91.8195 130.448 92.1204 130.22 92.3616C129.992 92.6027 129.713 92.7765 129.409 92.8669L129.406 92.8717Z" fill="white"/>
  </g>
  <path d="M134.644 49.958H114.39C113.044 49.958 111.954 51.1672 111.954 52.6588V66.1485C111.954 67.6401 113.044 68.8493 114.39 68.8493H134.644C135.989 68.8493 137.08 67.6401 137.08 66.1485V52.6588C137.08 51.1672 135.989 49.958 134.644 49.958Z" fill="#3C9DC0"/>
  <path d="M129.268 69.0094H119.623C120.118 67.8326 120.919 66.8465 121.923 66.1773C120.958 65.4806 120.263 64.4096 119.973 63.1741C119.683 61.9386 119.82 60.6277 120.357 59.4981C119.749 58.9986 119.39 58.3855 119.39 57.7227C119.39 56.0433 121.685 54.6808 124.517 54.6808C127.348 54.6808 129.643 56.0433 129.643 57.7227C129.643 58.4239 129.243 59.0675 128.572 59.583C129.082 60.7087 129.201 62.0036 128.905 63.2201C128.608 64.4367 127.918 65.4895 126.966 66.1773C127.97 66.8463 128.772 67.8324 129.268 69.0094Z" fill="white"/>
  <g opacity="0.6">
  <path opacity="0.6" d="M51.9011 81.0166H31.6472C30.3018 81.0166 29.2112 82.2258 29.2112 83.7174V97.2071C29.2112 98.6987 30.3018 99.9079 31.6472 99.9079H51.9011C53.2465 99.9079 54.3372 98.6987 54.3372 97.2071V83.7174C54.3372 82.2258 53.2465 81.0166 51.9011 81.0166Z" fill="#3C9DC0"/>
  <path opacity="0.6" d="M43.9359 98.1966C44.6511 98.6676 45.2647 99.3063 45.7337 100.068H37.0955C37.5645 99.3063 38.1781 98.6676 38.8933 98.1966C37.9285 97.4998 37.2331 96.4288 36.9433 95.1933C36.6535 93.9579 36.7902 92.6469 37.3266 91.5174C36.7186 91.0179 36.3605 90.3967 36.3605 89.7419C36.3605 88.0625 38.6551 86.7001 41.4868 86.7001C44.3185 86.7001 46.6131 88.0625 46.6131 89.7419C46.6131 90.4431 46.2131 91.0867 45.5416 91.6022C46.0523 92.7279 46.1708 94.0228 45.8746 95.2394C45.5784 96.4559 44.8881 97.5087 43.9359 98.1966Z" fill="#3C9DC0"/>
  <path opacity="0.6" d="M51.9011 81.0166H31.6472C30.3018 81.0166 29.2112 82.2258 29.2112 83.7174V97.2071C29.2112 98.6987 30.3018 99.9079 31.6472 99.9079H51.9011C53.2465 99.9079 54.3372 98.6987 54.3372 97.2071V83.7174C54.3372 82.2258 53.2465 81.0166 51.9011 81.0166Z" fill="#3C9DC0"/>
  <path opacity="0.6" d="M43.9359 98.1966C44.6511 98.6676 45.2647 99.3063 45.7337 100.068H37.0955C37.5645 99.3063 38.1781 98.6676 38.8933 98.1966C37.9285 97.4998 37.2331 96.4288 36.9433 95.1933C36.6535 93.9579 36.7902 92.6469 37.3266 91.5174C36.7186 91.0179 36.3605 90.3967 36.3605 89.7419C36.3605 88.0625 38.6551 86.7001 41.4868 86.7001C44.3185 86.7001 46.6131 88.0625 46.6131 89.7419C46.6131 90.4431 46.2131 91.0867 45.5416 91.6022C46.0523 92.7279 46.1708 94.0228 45.8746 95.2394C45.5784 96.4559 44.8881 97.5087 43.9359 98.1966Z" fill="white"/>
  </g>
  <path d="M152.402 110.524C152.163 110.326 151.902 110.165 151.624 110.044C151.604 110.031 151.581 110.025 151.558 110.024C150.983 109.567 150.446 109.053 149.953 108.491C150.053 108.4 150.154 108.307 150.256 108.219C149.623 107.886 149.279 107.125 148.938 106.438C148.041 104.611 146.858 102.976 145.444 101.61C145.409 101.461 145.207 101.491 145.098 101.399C145.064 101.36 145.039 101.313 145.026 101.261C145.012 101.208 145.011 101.153 145.022 101.101C145.039 100.993 145.083 100.896 145.107 100.79C145.142 100.54 145.137 100.284 145.09 100.036C145.065 99.7831 145.075 99.503 145.225 99.314C145.275 99.2516 145.335 99.2052 145.383 99.1427C145.433 99.0689 145.468 98.9844 145.487 98.8945C145.505 98.8046 145.507 98.7114 145.491 98.6208C145.478 98.4392 145.441 98.2606 145.381 98.0909L146.922 93.4337C147.282 92.3483 147.644 91.2388 147.68 90.0813C147.709 89.1576 147.494 88.1858 146.986 87.4765C147.078 87.4509 147.171 87.4253 147.263 87.3965C146.662 86.5144 146.597 85.3473 146.581 84.2394C146.575 83.6855 146.558 83.1315 146.531 82.5776C146.704 82.6624 146.881 82.7372 147.061 82.8017C147.117 82.8225 147.172 82.8418 147.228 82.8594C147.501 82.9486 147.779 83.015 148.06 83.0579C148.184 83.0771 148.31 83.0915 148.436 83.1011L147.894 81.5978C147.801 81.3752 147.744 81.1362 147.727 80.8918C147.727 80.8774 147.727 80.8614 147.727 80.8454C147.725 80.8176 147.725 80.7898 147.727 80.7621C147.734 80.6956 147.747 80.6301 147.767 80.5668C147.777 80.5352 147.788 80.5042 147.8 80.4739C147.838 80.3831 147.882 80.2958 147.933 80.213C147.972 80.1489 148.014 80.0881 148.056 80.0257C148.212 79.823 148.339 79.5945 148.431 79.3485C148.469 79.2246 148.489 79.095 148.49 78.9642C148.491 78.8321 148.481 78.7002 148.459 78.5704C148.443 78.4823 148.424 78.3959 148.404 78.3126C148.389 78.2614 148.376 78.2086 148.36 78.1525C148.357 78.1384 148.354 78.1245 148.349 78.1109C148.337 78.0709 148.324 78.0325 148.313 77.994L148.3 77.9556C148.287 77.914 148.272 77.8724 148.258 77.8307L148.249 77.8051C148.049 77.2352 147.783 76.6845 147.624 76.1049C147.581 75.9471 147.547 75.7867 147.52 75.6246L147.503 75.5013C147.503 75.4661 147.493 75.4309 147.488 75.3973L147.475 75.2756C147.475 75.2372 147.468 75.1988 147.465 75.1603C147.462 75.1219 147.465 75.0867 147.465 75.0483C147.465 74.9778 147.465 74.9074 147.465 74.8353C147.465 74.8113 147.465 74.7857 147.465 74.7601C147.465 74.7073 147.465 74.6528 147.465 74.6V74.512C147.465 74.4591 147.465 74.4063 147.477 74.3519C147.477 74.3262 147.477 74.3022 147.477 74.2766C147.477 74.1998 147.493 74.1165 147.504 74.0461L147.539 73.8379C147.578 73.6456 147.598 73.4491 147.598 73.252C147.598 73.2136 147.598 73.1768 147.598 73.1383L147.585 73.0455C147.584 73.0364 147.584 73.0273 147.585 73.0183C147.585 72.9974 147.576 72.9766 147.571 72.9558C147.565 72.935 147.571 72.935 147.571 72.9254L147.553 72.8662L147.545 72.8389L147.521 72.7765L147.513 72.7573C147.503 72.7317 147.491 72.7061 147.48 72.682C147.438 72.597 147.39 72.5161 147.335 72.4403C146.992 71.9376 146.417 71.555 146.102 70.9994C145.919 70.6422 145.798 70.2493 145.748 69.8419C145.732 69.7491 145.719 69.6562 145.705 69.5634C145.69 69.4705 145.677 69.3825 145.663 69.2912C145.653 69.2352 145.644 69.1791 145.634 69.1311C145.633 69.1189 145.633 69.1066 145.634 69.0943L145.608 68.9598C145.608 68.9502 145.608 68.939 145.608 68.9294L145.578 68.7901C145.578 68.7821 145.578 68.7725 145.578 68.7645C145.568 68.7165 145.556 68.6668 145.543 68.6188C145.543 68.6188 145.543 68.6076 145.543 68.6012C145.53 68.55 145.517 68.4987 145.503 68.4411V68.4315C145.488 68.3787 145.474 68.3258 145.458 68.2714C145.441 68.217 145.425 68.1625 145.406 68.1113C145.389 68.0553 145.37 68.0024 145.35 67.9512C145.218 67.5774 145.04 67.226 144.82 66.9074C144.339 66.2238 143.597 65.7323 142.823 65.7659C142.41 65.8078 142.005 65.9213 141.624 66.1021L140.613 66.5152L140.895 66.3711C140.6 66.3799 140.309 66.4488 140.037 66.5744C139.901 66.6397 139.783 66.7442 139.695 66.8771C139.608 67.0099 139.554 67.1663 139.539 67.33C139.539 67.5222 139.601 67.7127 139.579 67.9032C139.543 68.2234 139.282 68.4315 139.146 68.7117C139.067 68.8796 139.031 69.0685 139.042 69.2576V69.2688V69.3328C139.043 69.3392 139.043 69.3457 139.042 69.3521V69.3889C138.621 69.1872 138.2 68.9758 137.787 68.7485C137.096 68.3707 136.394 67.9272 135.962 67.21C135.818 66.9794 135.717 66.7297 135.579 66.4959C135.422 66.2481 135.248 66.0146 135.057 65.7979L133.77 64.253C133.672 64.4595 133.798 64.7029 133.897 64.9062C134.003 65.121 134.083 65.3503 134.135 65.5882C134.163 65.6643 134.163 65.7491 134.135 65.8251C134.089 65.8877 134.028 65.9356 133.959 65.9644C133.841 66.0461 133.751 66.1692 133.703 66.3141C133.654 66.4591 133.651 66.6177 133.694 66.7649C133.739 66.9097 133.817 67.0388 133.921 67.1396C134.026 67.2404 134.152 67.3094 134.287 67.3396C134.378 67.3513 134.468 67.3755 134.554 67.4117C134.709 67.4981 134.782 67.6935 134.892 67.8423C135.096 68.1113 135.421 68.2138 135.725 68.3018C136.2 68.9102 136.696 69.4945 137.169 70.1029C137.891 71.0251 138.626 71.9616 139.566 72.586C139.663 72.65 139.763 72.7109 139.864 72.7669C139.864 72.7861 139.864 72.8037 139.864 72.8229C139.838 72.9604 139.854 73.1036 139.91 73.2296C139.961 73.2958 140.024 73.3497 140.095 73.388C140.166 73.4263 140.243 73.4481 140.322 73.4521L141.032 73.593C141.032 73.6939 141.013 73.7963 140.997 73.8972C140.987 73.958 140.976 74.0189 140.966 74.0797L140.953 74.1597C140.953 74.1634 140.953 74.1673 140.953 74.1709C140.953 74.1918 140.953 74.2126 140.945 74.235C140.938 74.2574 140.945 74.2494 140.945 74.2574C140.945 74.2654 140.945 74.2942 140.945 74.3134V74.3358C140.944 74.3609 140.944 74.386 140.945 74.4111C140.97 74.7217 141.161 74.9762 141.34 75.2116C141.374 75.2548 141.408 75.2996 141.441 75.3444C141.283 75.5658 141.172 75.8234 141.116 76.0985C141.084 76.2708 141.069 76.4463 141.071 76.622C140.974 76.7219 140.9 76.8459 140.854 76.9838C140.806 77.1747 140.787 77.3736 140.801 77.5714V77.5858C140.801 77.6578 140.801 77.7315 140.801 77.8035C140.788 78.0822 140.83 78.3606 140.922 78.62L140.953 78.6793C140.795 79.0219 140.528 79.2876 140.345 79.6142C140.155 79.9717 140.07 80.3851 140.1 80.7983C140.129 81.2115 140.273 81.6046 140.511 81.9244C140.655 82.1085 140.84 82.2862 140.856 82.5296C140.854 82.6402 140.844 82.7504 140.827 82.8594C140.81 83.1219 140.919 83.3717 140.979 83.6262C141.009 83.7316 141.02 83.8429 141.01 83.9531C141 84.0634 140.97 84.1701 140.921 84.2666C140.81 84.4448 140.758 84.6608 140.776 84.8766C140.828 85.2064 140.706 85.5346 140.685 85.8676C140.675 86.0117 140.685 86.1557 140.674 86.2998C140.646 86.4349 140.609 86.5671 140.561 86.6953L140.551 86.7401C140.291 86.8666 140.034 86.9979 139.787 87.1499C139.653 87.2159 139.541 87.3281 139.468 87.4701C139.427 87.6136 139.421 87.7669 139.452 87.9136C139.525 88.4867 139.6 89.0604 139.676 89.6346C139.662 89.6346 139.65 89.6218 139.636 89.6154C139.654 89.8988 139.672 90.1822 139.691 90.4655C139.685 90.6815 139.735 90.8948 139.835 91.0803C139.894 91.1505 139.947 91.226 139.994 91.306C140.08 91.503 139.976 91.7335 139.898 91.9352C139.821 92.1369 139.795 92.4251 139.965 92.534C140.055 92.6029 140.152 92.6598 140.254 92.7037C140.041 93.6643 140.236 94.6889 140.433 95.6623L140.879 97.8908C140.937 98.2071 140.971 98.5286 140.979 98.8514C140.979 98.8978 140.979 98.9442 140.979 98.9907C141 99.4335 141.071 99.8717 141.189 100.295C141.422 101.165 141.2 102.217 141.272 103.155C141.321 103.611 141.403 104.062 141.517 104.504C142.024 106.73 142.475 108.913 142.649 111.203C142.835 111.465 143.086 111.66 143.371 111.765C143.35 112.046 143.371 112.367 143.371 112.532C143.37 112.667 143.351 112.802 143.314 112.932C143.261 113.056 143.185 113.167 143.091 113.256C142.996 113.346 142.886 113.411 142.766 113.449C142.693 113.476 142.622 113.499 142.542 113.519L142.626 113.439C142.15 113.324 141.652 113.419 141.239 113.705C141.107 113.78 141.008 113.91 140.963 114.065C140.946 114.213 140.98 114.363 141.059 114.483C141.29 114.857 141.634 115.128 142.028 115.247C142.419 115.361 142.82 115.423 143.224 115.431L143.965 115.479C143.939 115.526 143.93 115.581 143.939 115.635C143.948 115.689 143.975 115.737 144.014 115.77C144.092 115.835 144.186 115.874 144.284 115.881C144.587 115.93 144.894 115.935 145.198 115.895C145.274 115.893 145.347 115.864 145.407 115.812C145.421 115.798 145.433 115.781 145.44 115.762C145.448 115.742 145.452 115.722 145.452 115.701C145.452 115.68 145.448 115.659 145.44 115.64C145.433 115.621 145.421 115.604 145.407 115.589C145.452 115.588 145.495 115.572 145.531 115.544C145.567 115.515 145.594 115.475 145.61 115.429C145.638 115.335 145.647 115.235 145.636 115.136C145.617 114.754 145.585 114.197 145.406 113.856C145.376 113.793 145.328 113.743 145.269 113.714C145.21 113.685 145.145 113.679 145.083 113.695C144.969 113.015 144.9 112.325 144.877 111.633C145.062 111.556 145.243 111.466 145.418 111.363C144.902 110.442 144.888 109.272 145.049 108.199C145.115 107.861 145.163 107.519 145.194 107.175C145.228 106.491 145.136 105.713 144.792 105.146C145.417 105.587 145.971 106.142 146.428 106.787C147.15 107.831 147.595 109.101 148.482 109.972L148.836 109.595C149.025 109.948 149.202 110.308 149.368 110.673C149.5 110.942 149.603 111.228 149.676 111.523C149.759 111.974 149.768 112.438 149.705 112.893C149.68 113.135 149.651 113.374 149.615 113.615C149.601 113.717 149.58 113.818 149.552 113.916C149.551 113.885 149.544 113.855 149.532 113.827C149.475 113.718 149.328 113.768 149.243 113.841C149.093 113.967 148.969 114.128 148.88 114.312C148.831 114.401 148.809 114.504 148.815 114.608C148.828 114.67 148.854 114.729 148.889 114.779C148.925 114.83 148.97 114.871 149.022 114.899C149.41 115.152 149.898 114.97 150.321 114.783C150.437 114.737 150.546 114.676 150.648 114.6C150.853 114.44 150.973 114.157 151.181 113.995C151.292 113.927 151.4 113.851 151.503 113.768C151.696 113.572 151.718 113.241 151.854 112.991C152.089 112.562 152.615 112.453 152.82 111.998C153.039 111.486 152.762 110.852 152.402 110.524Z" fill="url(#paint0_linear)"/>
  <path d="M143.364 112.57C143.364 112.704 143.345 112.838 143.308 112.965C143.254 113.089 143.178 113.198 143.083 113.286C142.988 113.373 142.878 113.438 142.759 113.474C142.527 113.564 142.28 113.593 142.037 113.67C141.933 113.696 141.836 113.751 141.757 113.83C141.552 114.059 141.673 114.481 141.919 114.654C142.164 114.827 142.476 114.814 142.768 114.8C143.386 114.76 144.001 114.663 144.605 114.51C144.823 114.454 145.077 114.341 145.111 114.097C145.119 114.019 145.113 113.941 145.094 113.865C144.945 113.033 144.867 112.188 144.86 111.34C144.86 111.286 143.643 111.251 143.529 111.331C143.282 111.51 143.379 112.283 143.364 112.57Z" fill="#A1616A"/>
  <path d="M148.784 109.61C148.984 109.98 149.173 110.356 149.351 110.742C149.701 111.401 149.821 112.18 149.688 112.93C149.663 113.169 149.633 113.41 149.598 113.643C149.563 113.875 149.507 114.139 149.328 114.273C149.408 114.326 149.497 114.358 149.59 114.367C149.682 114.376 149.775 114.362 149.862 114.326C150.035 114.252 150.195 114.143 150.333 114.006C151.231 113.185 151.91 111.99 151.939 110.698C151.949 110.598 151.932 110.496 151.89 110.407C151.848 110.342 151.794 110.287 151.732 110.247C151.062 109.741 150.439 109.161 149.874 108.516C149.862 108.492 149.845 108.471 149.825 108.455C149.805 108.438 149.782 108.427 149.757 108.421C149.733 108.416 149.708 108.416 149.683 108.423C149.659 108.429 149.636 108.442 149.617 108.459C149.272 108.651 148.695 108.925 148.551 109.358C148.649 109.415 148.73 109.502 148.784 109.61Z" fill="#A1616A"/>
  <path d="M144.605 113.92C143.849 114.272 143.028 114.4 142.216 114.513C142.167 114.529 142.116 114.532 142.065 114.522C142.015 114.511 141.968 114.488 141.927 114.454C141.9 114.416 141.884 114.37 141.881 114.322C141.877 114.274 141.887 114.226 141.909 114.184C141.953 114.1 142.013 114.027 142.083 113.969L142.626 113.466C142.151 113.352 141.654 113.446 141.24 113.729C141.175 113.765 141.117 113.815 141.07 113.876C141.022 113.937 140.987 114.008 140.964 114.084C140.947 114.23 140.982 114.378 141.061 114.496C141.293 114.866 141.637 115.133 142.03 115.248C142.42 115.362 142.821 115.423 143.224 115.431L143.962 115.479C143.937 115.525 143.929 115.58 143.938 115.633C143.947 115.686 143.973 115.734 144.011 115.767C144.091 115.83 144.185 115.867 144.283 115.874C144.585 115.922 144.892 115.927 145.195 115.889C145.271 115.887 145.345 115.857 145.405 115.805C145.418 115.792 145.43 115.775 145.437 115.756C145.445 115.737 145.449 115.717 145.449 115.697C145.449 115.676 145.445 115.656 145.437 115.637C145.43 115.618 145.418 115.601 145.405 115.588C145.449 115.587 145.492 115.571 145.527 115.542C145.563 115.514 145.59 115.474 145.605 115.428C145.634 115.335 145.643 115.235 145.633 115.138C145.612 114.762 145.582 114.212 145.403 113.879C145.224 113.547 144.847 113.803 144.605 113.92Z" fill="#3F3D56"/>
  <path d="M152.383 110.596C152.144 110.399 151.883 110.238 151.607 110.116C151.595 110.105 151.582 110.098 151.568 110.095C151.554 110.091 151.539 110.091 151.525 110.095C151.511 110.099 151.498 110.107 151.487 110.117C151.476 110.128 151.468 110.141 151.462 110.156C150.967 110.901 150.581 111.727 150.317 112.605C150.173 113.105 150.049 113.636 149.74 114.046C149.699 114.099 149.637 114.153 149.581 114.123C149.524 114.092 149.55 113.937 149.507 113.852C149.464 113.767 149.303 113.795 149.218 113.868C149.069 113.992 148.946 114.15 148.857 114.333C148.808 114.42 148.785 114.522 148.792 114.624C148.805 114.686 148.83 114.743 148.866 114.793C148.901 114.842 148.946 114.882 148.997 114.911C149.386 115.16 149.874 114.981 150.297 114.795C150.412 114.75 150.521 114.69 150.623 114.616C150.827 114.456 150.947 114.179 151.155 114.019C151.266 113.952 151.374 113.877 151.477 113.795C151.67 113.601 151.69 113.274 151.828 113.029C152.063 112.607 152.587 112.498 152.792 112.05C153.019 111.545 152.742 110.919 152.383 110.596Z" fill="#3F3D56"/>
  <path d="M146.532 87.3789C147.357 88.0657 147.703 89.284 147.667 90.4207C147.631 91.5574 147.267 92.662 146.909 93.7283C146.395 95.2588 145.882 96.7904 145.37 98.323C145.429 98.4902 145.466 98.666 145.48 98.8449C145.496 98.9342 145.494 99.0262 145.475 99.1148C145.457 99.2034 145.421 99.2866 145.371 99.3588C145.324 99.4213 145.263 99.4677 145.214 99.5285C145.148 99.6306 145.103 99.7465 145.079 99.8691C145.056 99.9917 145.056 100.118 145.078 100.241C145.125 100.486 145.131 100.738 145.096 100.985C145.071 101.089 145.028 101.187 145.01 101.293C144.999 101.345 145 101.399 145.013 101.451C145.027 101.502 145.052 101.549 145.087 101.586C145.195 101.677 145.397 101.648 145.432 101.794C146.842 103.139 148.024 104.752 148.924 106.557C149.263 107.234 149.607 107.986 150.239 108.318C149.622 108.861 149.03 109.439 148.466 110.048C147.579 109.189 147.137 107.937 146.414 106.907C145.955 106.269 145.403 105.721 144.779 105.287C145.123 105.848 145.213 106.614 145.181 107.29C145.15 107.629 145.102 107.967 145.036 108.3C144.875 109.358 144.892 110.513 145.403 111.422C144.854 111.742 144.223 111.973 143.61 111.878C143.225 111.818 142.876 111.597 142.633 111.26C142.459 109.001 142.008 106.848 141.501 104.65C141.387 104.215 141.306 103.771 141.257 103.321C141.184 102.386 141.402 101.357 141.174 100.499C141.056 100.083 140.986 99.6528 140.964 99.2179C140.964 99.1731 140.964 99.1267 140.964 99.0803C140.956 98.7633 140.923 98.4477 140.865 98.1373L140.417 95.9312C140.222 94.9706 140.027 93.9684 140.238 93.0126C140.137 92.9709 140.04 92.9172 139.949 92.8525C139.779 92.7437 139.805 92.4619 139.884 92.2618C139.963 92.0617 140.066 91.8343 139.978 91.6406C139.932 91.5609 139.878 91.4863 139.819 91.4181C139.719 91.2354 139.669 91.0248 139.675 90.8113L139.62 89.9724C139.937 90.1113 140.201 90.3676 140.366 90.6976C139.953 89.9884 140.158 88.9766 140.462 88.2033C140.518 87.9659 140.643 87.7552 140.816 87.6027C140.99 87.4503 141.203 87.3645 141.425 87.358C143.114 87.0298 145.168 86.2406 146.532 87.3789Z" fill="#3F3D56"/>
  <path opacity="0.1" d="M145.767 92.1513C145.767 92.1513 144.94 92.7629 144.94 93.2207C144.94 93.6786 144.733 97.8011 144.733 97.8011V100.702C144.733 100.702 144.877 102.229 144.733 102.61C144.589 102.991 144.733 104.748 144.733 104.977C144.733 105.206 144.94 102.61 144.94 102.61V99.8615L145.146 93.6018L145.767 92.1513Z" fill="black"/>
  <path d="M141.159 70.9802L140.677 70.7673C139.695 70.3302 138.71 69.8915 137.757 69.3792C137.065 69.0062 136.365 68.5691 135.933 67.8615C135.789 67.6342 135.689 67.3812 135.551 67.1571C135.394 66.9123 135.22 66.682 135.029 66.4687L133.743 64.9446C133.646 65.1479 133.772 65.388 133.871 65.585C133.976 65.7967 134.057 66.0228 134.109 66.2574C134.135 66.3333 134.132 66.4172 134.102 66.4911C134.066 66.5599 133.99 66.5888 133.926 66.6272C133.809 66.7071 133.72 66.828 133.672 66.9707C133.624 67.1134 133.62 67.2697 133.662 67.4149C133.708 67.5582 133.787 67.6858 133.891 67.7852C133.995 67.8845 134.121 67.9522 134.255 67.9816C134.346 67.9933 134.435 68.0175 134.521 68.0536C134.675 68.1369 134.749 68.3306 134.86 68.4779C135.062 68.7436 135.387 68.8445 135.691 68.931C136.166 69.5313 136.661 70.1077 137.135 70.708C137.857 71.6174 138.59 72.5411 139.529 73.1575C139.863 73.384 140.229 73.5464 140.612 73.6378C140.738 72.7387 140.921 71.8507 141.159 70.9802Z" fill="#A1616A"/>
  <path opacity="0.15" d="M141.159 70.9802L140.677 70.7673C139.695 70.3302 138.71 69.8915 137.757 69.3792C137.065 69.0062 136.365 68.5691 135.933 67.8615C135.789 67.6342 135.689 67.3812 135.551 67.1571C135.394 66.9123 135.22 66.682 135.029 66.4687L133.743 64.9446C133.646 65.1479 133.772 65.388 133.871 65.585C133.976 65.7967 134.057 66.0228 134.109 66.2574C134.135 66.3333 134.132 66.4172 134.102 66.4911C134.066 66.5599 133.99 66.5888 133.926 66.6272C133.809 66.7071 133.72 66.828 133.672 66.9707C133.624 67.1134 133.62 67.2697 133.662 67.4149C133.708 67.5582 133.787 67.6858 133.891 67.7852C133.995 67.8845 134.121 67.9522 134.255 67.9816C134.346 67.9933 134.435 68.0175 134.521 68.0536C134.675 68.1369 134.749 68.3306 134.86 68.4779C135.062 68.7436 135.387 68.8445 135.691 68.931C136.166 69.5313 136.661 70.1077 137.135 70.708C137.857 71.6174 138.59 72.5411 139.529 73.1575C139.863 73.384 140.229 73.5464 140.612 73.6378C140.738 72.7387 140.921 71.8507 141.159 70.9802Z" fill="black"/>
  <path d="M140.273 74.0156C140.194 74.012 140.117 73.9907 140.046 73.9529C139.976 73.9152 139.913 73.8619 139.861 73.7963C139.806 73.6721 139.79 73.5313 139.816 73.396C139.899 72.5227 140.074 71.6631 140.336 70.8345C140.57 71.3148 141.031 71.5934 141.467 71.8463C141.855 72.0866 142.261 72.2917 142.68 72.4595C142.58 72.4227 142.319 74.2109 142.174 74.3214C141.991 74.4639 141.552 74.2734 141.35 74.2333L140.273 74.0156Z" fill="#FF6F61"/>
  <path d="M141.393 73.4873C142.61 73.4873 143.597 72.3935 143.597 71.0442C143.597 69.6949 142.61 68.6011 141.393 68.6011C140.176 68.6011 139.189 69.6949 139.189 71.0442C139.189 72.3935 140.176 73.4873 141.393 73.4873Z" fill="#A1616A"/>
  <path d="M140.947 73.0679C140.947 73.0679 142.391 74.4415 141.773 75.3572C141.155 76.273 140.808 76.8846 141.636 76.9582C142.463 77.0318 145.215 75.4309 145.215 75.4309C145.215 75.4309 142.668 73.1399 143.081 71.7663C143.494 70.3927 140.947 73.0679 140.947 73.0679Z" fill="#FBBEBE"/>
  <path d="M142.333 75.2179C142.025 75.3001 141.744 75.4756 141.521 75.7246C141.297 75.9736 141.141 76.2865 141.068 76.6283C140.906 77.4528 141.252 78.367 140.924 79.1306C140.771 79.4908 140.491 79.7598 140.296 80.0912C140.106 80.4431 140.02 80.8519 140.05 81.2606C140.079 81.6692 140.223 82.0574 140.462 82.371C140.606 82.5519 140.79 82.728 140.805 82.9681C140.803 83.0755 140.794 83.1826 140.777 83.2883C140.759 83.5477 140.869 83.7926 140.921 84.044C140.951 84.147 140.962 84.2559 140.952 84.3638C140.942 84.4716 140.912 84.5759 140.863 84.67C140.752 84.8453 140.701 85.0586 140.719 85.2719C140.771 85.5921 140.648 85.9203 140.628 86.2485C140.618 86.391 140.628 86.5335 140.616 86.676C140.601 86.8104 140.575 86.9432 140.54 87.073L140.356 87.8287C141.354 88.2828 142.428 88.4952 143.506 88.4514C144.475 88.4306 145.429 88.2081 146.376 87.9871C146.665 87.9199 146.954 87.8527 147.243 87.7662C146.644 86.8953 146.579 85.7442 146.563 84.6507C146.537 82.8299 146.414 81.0123 146.194 79.2075C146.483 78.5991 146.613 77.9267 146.733 77.2463C146.787 76.9742 146.81 76.6955 146.801 76.417C146.771 75.8295 146.531 75.2851 146.294 74.7568C146.079 74.2765 145.844 73.769 145.363 73.5625C145.246 73.5063 145.118 73.4848 144.991 73.5C144.865 73.5151 144.744 73.5664 144.641 73.6489C144.275 73.9531 144.385 74.4782 144.291 74.9297C144.169 75.5093 143.686 75.9271 143.171 76.0968C142.786 76.2078 142.389 76.2489 141.992 76.2185C141.954 76.2158 141.916 76.2013 141.885 76.1764C141.853 76.1515 141.828 76.1173 141.813 76.0777C141.798 76.0381 141.794 75.9946 141.8 75.9521C141.806 75.9097 141.823 75.8699 141.848 75.8375C142.02 75.6261 142.19 75.4148 142.333 75.2179Z" fill="#FF6F61"/>
  <path d="M144.041 84.662C143.226 85.4016 142.401 86.1477 141.458 86.6712C140.906 86.977 140.319 87.2043 139.779 87.5341C139.643 87.5989 139.531 87.7115 139.459 87.8543C139.418 87.9955 139.412 88.1469 139.444 88.2914L139.683 90.1181C139.748 90.6128 140.177 90.9282 140.525 91.2387C140.486 91.0931 140.494 90.937 140.547 90.7969C140.572 90.7505 140.599 90.7056 140.628 90.6624C140.758 90.401 140.799 90.0964 140.743 89.8043C140.688 89.5146 140.658 89.2198 140.652 88.9238C140.649 88.8741 140.658 88.8244 140.678 88.7795C140.697 88.7347 140.727 88.6961 140.763 88.6676C141.935 88.0432 143.195 87.5645 144.374 86.9706C144.687 86.8307 144.982 86.645 145.252 86.4182C145.522 86.1889 145.704 85.8542 145.761 85.4817C145.771 85.4324 145.763 85.3807 145.74 85.3376C145.716 85.3094 145.685 85.2894 145.652 85.28C145.129 85.0702 144.57 84.8733 144.041 84.662Z" fill="#A1616A"/>
  <path opacity="0.1" d="M141.776 76.995C141.37 77.0703 140.945 77.3024 140.807 77.7331C140.758 77.9206 140.74 78.1164 140.753 78.311C140.742 78.5843 140.784 78.8572 140.875 79.1115C140.944 79.252 141.027 79.384 141.122 79.5053C142.091 80.8822 142.576 82.6112 143.52 84.0088C143.604 84.1321 143.757 84.2922 143.709 84.4379C143.692 84.4737 143.677 84.5106 143.664 84.5484C143.66 84.586 143.664 84.6241 143.676 84.6596C143.688 84.695 143.708 84.7266 143.734 84.7517C143.784 84.8023 143.823 84.8653 143.848 84.9358C143.865 85.0094 143.822 85.1055 143.754 85.0959C143.867 85.4849 144.215 85.7107 144.542 85.8964C145.09 86.2022 145.698 86.4423 146.306 86.3767C146.42 85.8692 146.58 85.296 146.515 84.7757C146.448 84.381 146.33 83.9992 146.164 83.6422L145.754 82.6496C145.405 81.8027 145.052 80.9494 144.566 80.1905C144.392 79.9495 144.247 79.6854 144.132 79.4045C144.008 79.0459 143.665 78.7945 143.458 78.4855C143.149 78.026 142.833 77.5586 142.415 77.2208C142.244 77.0895 141.978 76.9566 141.776 76.995Z" fill="black"/>
  <path d="M141.776 76.7692C141.37 76.8445 140.945 77.0766 140.807 77.5073C140.758 77.6948 140.74 77.8906 140.753 78.0852C140.742 78.3586 140.784 78.6314 140.875 78.8857C140.944 79.0262 141.027 79.1582 141.122 79.2795C142.091 80.6564 142.576 82.3854 143.52 83.7831C143.604 83.9063 143.757 84.0664 143.709 84.2121C143.692 84.2479 143.677 84.2848 143.665 84.3226C143.66 84.3602 143.664 84.3983 143.676 84.4338C143.688 84.4692 143.708 84.5009 143.734 84.5259C143.784 84.5765 143.823 84.6396 143.848 84.71C143.865 84.7837 143.822 84.8797 143.754 84.8701C143.867 85.2591 144.215 85.4849 144.542 85.6706C145.09 85.9764 145.698 86.2165 146.306 86.1509C146.42 85.6434 146.58 85.0702 146.515 84.5499C146.448 84.1552 146.33 83.7734 146.164 83.4164L145.754 82.4238C145.405 81.5769 145.052 80.7236 144.566 79.9632C144.392 79.7229 144.246 79.4593 144.132 79.1787C144.008 78.8201 143.665 78.5687 143.458 78.2597C143.149 77.8002 142.833 77.3328 142.415 76.995C142.244 76.8653 141.978 76.7276 141.776 76.7692Z" fill="#FF6F61"/>
  <path d="M140.85 67.0306C140.556 67.0397 140.265 67.1075 139.992 67.2307C139.857 67.2947 139.739 67.3978 139.652 67.5293C139.564 67.6608 139.51 67.8159 139.496 67.9784C139.496 68.1673 139.558 68.3546 139.536 68.5435C139.498 68.8541 139.239 69.0638 139.103 69.344C138.869 69.8243 139.051 70.4327 139.356 70.8601C139.66 71.2876 140.078 71.6094 140.384 72.0288C140.63 72.3654 140.808 72.7567 140.906 73.1762C141.005 73.5958 141.02 74.0338 140.953 74.4607C140.913 74.6262 140.894 74.797 140.896 74.9682C140.921 75.274 141.111 75.5253 141.291 75.759C142.189 76.922 143.019 78.1471 143.777 79.4268C144.005 79.7972 144.209 80.1845 144.389 80.5859C144.568 81.0022 144.703 81.4472 144.953 81.8155C145.18 82.1322 145.46 82.3984 145.777 82.5999C146.576 83.1463 147.482 83.4704 148.418 83.5445L147.878 82.0604C147.763 81.8049 147.707 81.5214 147.716 81.2359C147.776 80.7028 148.262 80.3506 148.421 79.8431C148.505 79.5067 148.495 79.1499 148.392 78.8201C148.202 78.0676 147.815 77.3904 147.614 76.6444C147.435 75.9889 147.395 75.2963 147.497 74.6208C147.564 74.328 147.593 74.026 147.582 73.7242C147.482 72.8165 146.521 72.3826 146.076 71.611C145.787 71.1163 145.734 70.5063 145.643 69.9268C145.498 69.0815 145.254 68.2377 144.776 67.5637C144.298 66.8897 143.556 66.4062 142.781 66.4431C142.369 66.4849 141.965 66.5972 141.584 66.7761L140.573 67.1827" fill="#3F3D56"/>
  <g opacity="0.1">
  <path opacity="0.1" d="M145.363 68.9245C145.449 69.4465 145.507 69.994 145.725 70.4599C145.695 70.279 145.669 70.0964 145.639 69.9171C145.567 69.4616 145.454 69.0153 145.301 68.5851C145.327 68.7036 145.344 68.8157 145.363 68.9245Z" fill="black"/>
  <path opacity="0.1" d="M147.223 73.6234C147.12 74.2989 147.16 74.9915 147.34 75.647C147.389 75.8246 147.447 75.9993 147.513 76.1705C147.424 75.6575 147.419 75.131 147.498 74.616C147.565 74.3232 147.594 74.0213 147.584 73.7195C147.551 73.4651 147.457 73.2253 147.311 73.0262C147.295 73.2248 147.253 73.4249 147.223 73.6234Z" fill="black"/>
  <path opacity="0.1" d="M148.394 78.8153C148.337 78.5972 148.268 78.3833 148.187 78.1749C148.223 78.3994 148.209 78.6302 148.147 78.8473C147.989 79.3548 147.501 79.707 147.442 80.2402C147.433 80.5258 147.489 80.8094 147.605 81.0647L147.714 81.3624C147.711 81.3193 147.711 81.2759 147.714 81.2328C147.773 80.6996 148.259 80.3474 148.418 79.8399C148.504 79.5036 148.496 79.1461 148.394 78.8153Z" fill="black"/>
  <path opacity="0.1" d="M145.503 81.6026C145.186 81.401 144.906 81.1348 144.678 80.8181C144.43 80.4499 144.294 80.0048 144.115 79.5902C143.935 79.188 143.731 78.8001 143.503 78.4295C142.745 77.1497 141.914 75.9246 141.016 74.7617L140.922 74.6368C140.901 74.7418 140.893 74.8495 140.898 74.957C140.922 75.2628 141.113 75.5141 141.292 75.7478C142.19 76.9108 143.021 78.1359 143.778 79.4157C144.006 79.786 144.211 80.1733 144.391 80.5747C144.57 80.991 144.704 81.4361 144.954 81.8043C145.182 82.121 145.461 82.3872 145.778 82.5887C146.577 83.1351 147.483 83.4592 148.42 83.5333L148.056 82.5327C147.151 82.4476 146.277 82.1291 145.503 81.6026Z" fill="black"/>
  <path opacity="0.1" d="M140.109 71.0314C139.797 70.612 139.387 70.2918 139.081 69.8644C139.054 69.8243 139.028 69.7827 139.002 69.7411C138.993 70.1501 139.12 70.5485 139.357 70.8617C139.66 71.2908 140.079 71.611 140.385 72.0305C140.506 72.1945 140.611 72.3727 140.697 72.562C140.634 72.0009 140.431 71.4706 140.109 71.0314Z" fill="black"/>
  </g>
  <path d="M138.138 50.616L137.408 49.8011C137.372 49.7608 137.329 49.7288 137.282 49.7069C137.234 49.6851 137.184 49.6738 137.132 49.6738C137.081 49.6738 137.031 49.6851 136.983 49.7069C136.936 49.7288 136.893 49.7608 136.857 49.8011L132.271 54.8361L130.332 52.6684C130.296 52.6284 130.254 52.5967 130.207 52.575C130.16 52.5534 130.11 52.5422 130.059 52.5422C130.008 52.5422 129.958 52.5534 129.911 52.575C129.864 52.5967 129.822 52.6284 129.786 52.6684L129.048 53.4769C128.976 53.5584 128.935 53.6682 128.935 53.7827C128.935 53.8971 128.976 54.007 129.048 54.0885L131.992 57.3784C132.066 57.4588 132.165 57.5038 132.268 57.5038C132.372 57.5038 132.471 57.4588 132.544 57.3784L138.138 51.2211C138.21 51.1408 138.251 51.032 138.251 50.9186C138.251 50.8052 138.21 50.6964 138.138 50.616Z" fill="#3ACC6C"/>
  <path d="M95.6839 80.714L94.9532 79.8991C94.9172 79.8588 94.8744 79.8268 94.8272 79.8049C94.78 79.7831 94.7293 79.7719 94.6782 79.7719C94.627 79.7719 94.5763 79.7831 94.5291 79.8049C94.4819 79.8268 94.4391 79.8588 94.4031 79.8991L89.8168 84.9341L87.8775 82.7664C87.8418 82.7265 87.7993 82.6947 87.7524 82.6731C87.7056 82.6514 87.6554 82.6402 87.6046 82.6402C87.5538 82.6402 87.5036 82.6514 87.4567 82.6731C87.4099 82.6947 87.3674 82.7265 87.3317 82.7664L86.5938 83.5669C86.5213 83.6484 86.4807 83.7583 86.4807 83.8727C86.4807 83.9872 86.5213 84.097 86.5938 84.1785L89.5381 87.4685C89.6116 87.5488 89.7107 87.5939 89.814 87.5939C89.9172 87.5939 90.0163 87.5488 90.0898 87.4685L95.6839 81.3112C95.7539 81.2311 95.793 81.124 95.793 81.0126C95.793 80.9011 95.7539 80.794 95.6839 80.714Z" fill="#3ACC6C"/>
  </g>
  <defs>
  <linearGradient id="paint0_linear" x1="143.263" y1="115.914" x2="143.263" y2="64.2498" gradientUnits="userSpaceOnUse">
  <stop stop-color="#808080" stop-opacity="0.25"/>
  <stop offset="0.54" stop-color="#808080" stop-opacity="0.12"/>
  <stop offset="1" stop-color="#808080" stop-opacity="0.1"/>
  </linearGradient>
  <clipPath id="clip0">
  <rect width="163" height="120" fill="white"/>
  </clipPath>
  </defs>
  </svg>
