<svg width="auto" height="auto" viewBox="0 0 163 120" fill="none" xmlns="http://www.w3.org/2000/svg">
  <g clip-path="url(#clip0)">
  <path d="M109.878 4.15347C109.878 4.15347 110.259 4.63334 109.606 5.56185C108.953 6.49035 109.48 8.50511 110.721 8.55644C111.961 8.60776 112.563 9.17867 112.264 9.93071C111.965 10.6828 111.605 12.4697 112.956 12.198C114.307 11.9263 114.734 12.5173 114.495 12.9715C114.256 13.4257 115.097 12.0682 115.097 12.0682C115.097 12.0682 115.85 13.3006 116.774 12.4379C117.698 11.5752 118.065 3.75512 116.182 3.62258C114.298 3.49004 109.878 4.15347 109.878 4.15347Z" fill="#2F2E41"/>
  <path d="M119.427 41.3422L119.856 44.6438H121.788L121.144 40.8705L119.427 41.3422Z" fill="#9F616A"/>
  <path d="M122.003 42.6393C122.003 42.6393 124.578 45.2335 123.934 45.4694C123.29 45.7052 120.929 48.5353 120.5 48.7712C120.116 48.9821 115.993 50.4221 116.637 48.7712C117.281 47.1203 118.783 46.1769 118.783 46.1769L119.212 43.3468L122.003 42.6393Z" fill="#F2F2F2"/>
  <path opacity="0.1" d="M122.003 42.6393C122.003 42.6393 124.578 45.2335 123.934 45.4694C123.29 45.7052 120.929 48.5353 120.5 48.7712C120.116 48.9821 115.993 50.4221 116.637 48.7712C117.281 47.1203 118.783 46.1769 118.783 46.1769L119.212 43.3468L122.003 42.6393Z" fill="black"/>
  <path d="M122.003 38.8657L122.432 42.1676H124.364L123.72 38.394L122.003 38.8657Z" fill="#9F616A"/>
  <path d="M113.931 30.1012L116.744 19.8806C116.744 19.8806 112.022 15.1637 115.242 13.7487C118.461 12.3337 119.32 19.4089 119.32 19.4089L118.247 31.6727H113.954L113.931 30.1012Z" fill="#FFB8B8"/>
  <path d="M120.5 22.5928C120.5 22.5928 114.953 30.4107 115.795 31.5723C116.637 32.734 118.139 39.8092 118.139 39.8092C118.139 39.8092 117.925 42.6393 118.783 42.6393C119.642 42.6393 121.788 42.1676 121.788 41.4601C121.788 40.7526 119.856 31.7906 119.856 31.7906L125.437 23.772L120.5 22.5928Z" fill="#9BC269"/>
  <path d="M120.93 23.0644L126.51 19.7627C126.51 19.7627 130.373 21.8852 129.3 23.772C128.227 25.6587 123.29 30.6114 123.29 30.6114C123.29 30.6114 124.793 38.63 124.578 38.8658C124.364 39.1017 122.003 40.045 121.359 39.8092C120.715 39.5734 117.281 30.3755 118.139 29.9038C118.998 29.4322 121.788 24.4795 121.788 24.4795L120.93 23.0644Z" fill="#9BC269"/>
  <path d="M105.691 109.618C105.691 109.618 109.554 112.213 109.983 112.213C110.413 112.213 116.208 113.863 113.632 115.043C111.057 116.222 101.184 114.571 101.398 113.863C101.613 113.156 101.398 108.911 101.828 108.911C102.257 108.911 105.691 109.618 105.691 109.618Z" fill="#2F2E41"/>
  <path d="M109.983 112.92C109.983 112.92 113.847 115.514 114.276 115.514C114.705 115.514 120.5 117.165 117.925 118.344C115.349 119.524 105.476 117.873 105.691 117.165C105.905 116.458 105.691 112.213 106.12 112.213C106.549 112.213 109.983 112.92 109.983 112.92Z" fill="#2F2E41"/>
  <path d="M105.905 62.9216C105.905 62.9216 106.549 66.4593 107.622 69.0535C108.696 71.6478 107.408 83.9115 106.764 85.7983C106.12 87.685 99.8959 110.09 101.828 110.326C103.759 110.562 107.622 110.326 107.622 110.326L113.847 88.8642L112.774 60.0916L105.905 62.9216Z" fill="#575A88"/>
  <path opacity="0.1" d="M105.905 62.9216C105.905 62.9216 106.549 66.4593 107.622 69.0535C108.696 71.6478 107.408 83.9115 106.764 85.7983C106.12 87.685 99.8959 110.09 101.828 110.326C103.759 110.562 107.622 110.326 107.622 110.326L113.847 88.8642L112.774 60.0916L105.905 62.9216Z" fill="black"/>
  <path d="M107.193 63.1575C107.193 63.1575 108.052 69.5252 109.983 70.9403C111.915 72.3553 111.271 73.7704 111.271 73.7704L110.413 86.2699C110.413 86.2699 102.042 108.911 104.618 111.741C107.193 114.571 109.554 113.392 110.627 113.156C111.7 112.92 113.632 107.967 112.559 106.552C111.486 105.137 114.705 96.647 115.564 95.2319C116.422 93.8169 115.564 91.9301 116.637 91.4585C117.71 90.9868 120.071 87.9208 120.071 85.7983C120.071 83.6757 123.076 61.0349 121.144 59.6199C119.212 58.2048 106.831 62.5404 106.831 62.5404L107.193 63.1575Z" fill="#575A88"/>
  <path d="M103.115 30.1397C105.723 30.1397 107.837 27.8167 107.837 24.9512C107.837 22.0856 105.723 19.7627 103.115 19.7627C100.507 19.7627 98.3934 22.0856 98.3934 24.9512C98.3934 27.8167 100.507 30.1397 103.115 30.1397Z" fill="#FFB8B8"/>
  <path d="M113.847 10.329C115.98 10.329 117.71 8.42836 117.71 6.08383C117.71 3.7393 115.98 1.83868 113.847 1.83868C111.713 1.83868 109.983 3.7393 109.983 6.08383C109.983 8.42836 111.713 10.329 113.847 10.329Z" fill="#9F616A"/>
  <path d="M106.335 24.9512C106.335 24.9512 108.91 30.1397 110.198 30.1397C111.486 30.1397 105.047 35.564 105.047 35.564C105.047 35.564 102.901 28.7246 102.471 28.4888C102.042 28.253 106.335 24.9512 106.335 24.9512Z" fill="#FFB8B8"/>
  <path d="M107.193 29.668C107.193 29.668 101.613 31.7906 101.828 32.4981C102.042 33.2056 100.325 34.8565 100.325 35.564C100.325 36.2715 99.8959 42.6393 102.471 47.8278C105.047 53.0163 109.125 56.7898 107.193 59.1482C105.262 61.5066 102.257 65.5159 105.476 65.5159C108.696 65.5159 113.847 60.3274 118.569 62.2141C123.29 64.1008 122.217 57.0256 122.217 57.0256C122.217 57.0256 122.861 51.6012 121.573 49.9503C120.286 48.2995 115.778 36.5074 115.778 35.0923C115.778 33.6773 111.486 28.2529 110.413 28.2529C109.34 28.2529 107.193 29.668 107.193 29.668Z" fill="#8985A8"/>
  <path d="M114.92 8.67811C114.92 8.67811 116.668 12.3295 116.76 12.9801C116.852 13.6308 119.856 8.67811 119.856 8.67811L116.422 6.08386L114.92 8.67811Z" fill="#9F616A"/>
  <path d="M115.564 11.5082L119.212 7.26306L123.505 9.38564C123.505 9.38564 127.508 19.0551 127.76 19.7627C128.012 20.4702 121.359 23.772 120.715 23.772C120.071 23.772 115.564 16.4609 115.564 16.4609C115.564 16.4609 114.491 12.9233 115.564 11.5082Z" fill="#F2F2F2"/>
  <path d="M113.847 17.1684V21.4136H116.422L115.575 17.1684H113.847Z" fill="#9F616A"/>
  <path d="M115.316 20.3523C114.991 20.3474 114.672 20.4517 114.402 20.6513C114.131 20.8508 113.923 21.1361 113.804 21.4691C113.637 21.9677 113.693 22.4917 114.491 22.7107C116.208 23.1824 116.422 22.7107 116.422 22.7107C116.422 22.7107 119.403 22.239 118.771 21.2956C118.139 20.3523 116.422 20.3523 116.422 20.3523H115.316Z" fill="#9F616A"/>
  <path d="M124.578 40.7526C124.578 40.7526 127.154 43.3468 126.51 43.5827C125.866 43.8185 123.505 46.6486 123.076 46.8844C122.692 47.0954 118.569 48.5353 119.213 46.8844C119.856 45.2335 121.359 44.2902 121.359 44.2902L121.788 41.4601L124.578 40.7526Z" fill="#F2F2F2"/>
  <path d="M101.433 20.9573C101.728 20.7671 102.077 20.5302 102.086 20.1541C102.078 20.0159 102.034 19.8831 101.958 19.7722C101.883 19.6612 101.78 19.5769 101.661 19.5295C101.423 19.4392 101.171 19.4018 100.92 19.4196C100.823 19.4142 100.727 19.4247 100.633 19.4509C100.388 19.5337 100.248 19.8065 100.055 19.9916C99.7754 20.2604 99.3903 20.3394 99.0306 20.4419C98.4281 20.6136 97.8503 20.8768 97.3138 21.2237C97.2079 21.2825 97.1151 21.3664 97.0421 21.4693C96.9577 21.6588 96.9201 21.8693 96.933 22.0797C96.8845 22.8799 96.4479 23.5764 96.122 24.294C95.7961 25.0115 95.5819 25.9054 95.9645 26.5883C96.1163 26.8008 96.258 27.0218 96.389 27.2505C96.6601 27.8713 96.3217 28.6356 96.5176 29.2897C96.6053 29.5471 96.7459 29.7789 96.9286 29.9667C97.3055 30.3838 97.7699 30.6928 98.2809 30.8665C98.7687 31.0315 99.3738 31.1415 99.5648 31.6615C99.6468 31.8845 99.63 32.1474 99.7456 32.3516C99.8889 32.6047 100.184 32.6864 100.451 32.7404C100.75 32.8156 101.058 32.8401 101.364 32.8131C101.517 32.7985 101.666 32.7499 101.802 32.6703C101.937 32.5906 102.057 32.4815 102.152 32.3495C102.239 32.1634 102.346 31.9897 102.472 31.8325C102.782 31.5471 103.254 31.7725 103.653 31.6969C103.815 31.6634 103.965 31.5798 104.085 31.456C104.205 31.3323 104.29 31.1735 104.331 30.9982C104.342 30.8116 104.389 30.6296 104.468 30.4643C104.716 30.1158 105.368 30.3618 105.532 29.9577C105.638 29.6951 105.416 29.4177 105.201 29.2542C104.85 28.9876 104.458 28.7825 104.143 28.4661C103.829 28.1496 103.596 27.6761 103.694 27.2202C103.842 26.5364 104.655 26.1598 104.682 25.4576C104.697 25.0554 104.434 24.7024 104.139 24.4628C103.845 24.2233 103.504 24.0512 103.24 23.7712C103.048 23.5665 102.903 23.3096 102.694 23.1258C102.315 22.7934 101.798 22.7531 101.316 22.6988C101.057 22.6696 100.027 22.5384 100.067 22.1059C100.101 21.7466 101.171 21.1262 101.433 20.9573Z" fill="#2F2E41"/>
  <path d="M115.564 11.2724C115.564 11.2724 113.203 12.2157 113.203 13.3949C113.203 14.5741 112.13 18.3476 113.203 18.3476C114.276 18.3476 116.422 17.4423 116.422 17.4423L115.564 11.2724Z" fill="#F2F2F2"/>
  <path d="M114.92 28.2529C114.92 28.2529 121.144 25.8945 121.359 25.8945C121.573 25.8945 124.578 24.0078 124.364 23.3003L123.505 17.4042C123.505 17.4042 120.071 9.62146 122.432 9.62146C124.793 9.62146 126.081 15.7533 126.081 15.7533C126.081 15.7533 131.232 26.3662 128.441 28.7246C125.651 31.083 114.061 35.3282 113.417 34.6207C112.774 33.9131 114.92 28.2529 114.92 28.2529Z" fill="#FFB8B8"/>
  <path d="M120.929 12.9233L122.378 14.4574L120.5 16.4609C120.5 16.4609 117.925 15.2817 118.139 15.9892C118.354 16.6967 119.642 18.8193 120.5 18.8193C121.359 18.8193 125.827 15.7534 125.846 14.81C125.866 13.8666 123.076 10.5648 122.432 10.329C121.788 10.0931 120.929 12.9233 120.929 12.9233Z" fill="#9F616A"/>
  <path d="M118.205 11.2793C118.205 11.2793 121.359 14.3383 121.788 14.3383C122.217 14.3383 122.998 9.74226 122.998 9.74226C122.998 9.74226 120.454 7.92063 119.511 8.41728C118.569 8.91393 118.205 11.2793 118.205 11.2793Z" fill="#F2F2F2"/>
  <path d="M107.193 31.083C107.193 31.083 107.193 27.7812 113.632 27.7812H116.422L115.134 35.564L110.842 36.9791L107.193 31.083Z" fill="#8985A8"/>
  <path d="M121.258 4.36323C120.627 4.35989 119.997 4.31718 119.37 4.23529C118.878 2.92849 118.251 1.83198 117.573 1.42317C117.092 0.950021 116.35 0.606179 115.767 0.334321C114.337 -0.333269 111.957 0.0831234 111.818 0.842371C109.004 2.31987 109.715 4.9146 109.715 4.9146C110.152 5.9302 111.133 5.48009 111.965 5.02017C112.178 5.75638 112.679 6.38116 113.398 6.4109C114.772 6.46775 115.439 7.1002 115.107 7.93332C114.776 8.76644 114.378 10.746 115.875 10.445C117.371 10.144 117.844 10.7987 117.579 11.3019C117.314 11.8051 118.247 10.3012 118.247 10.3012C118.247 10.3012 119.08 11.6665 120.104 10.7108C120.208 10.6012 120.281 10.4623 120.317 10.3094C120.793 10.5345 121.17 10.6199 121.384 10.5147C122.61 9.91188 121.849 8.49642 121.849 8.49642C121.849 8.49642 123.486 8.22051 122.958 8.26625C122.431 8.31199 122.097 7.56077 122.99 6.20677C123.882 4.85278 122.085 4.39396 121.258 4.36323Z" fill="#2F2E41"/>
  <path d="M112.955 3.30181L112.344 3.0784L111.734 5.09238L112.345 5.31579L112.955 3.30181Z" fill="#9BC269"/>
  <path d="M40.243 21.3337C40.243 21.3337 39.9868 22.2721 41.4385 23.1166C42.8902 23.9611 43.3172 27.1515 41.6093 28.0898C39.9014 29.0282 39.3891 30.248 40.243 31.0925C41.0969 31.9371 42.6341 34.1891 40.5846 34.7521C38.5351 35.3151 38.2789 36.4411 38.8767 36.9103C39.4745 37.3795 37.5104 36.0658 37.5104 36.0658C37.5104 36.0658 37.1688 38.3178 35.3755 37.7548C33.5822 37.1918 28.544 26.4946 31.1058 24.9933C33.6676 23.4919 40.243 21.3337 40.243 21.3337Z" fill="#2F2E41"/>
  <path d="M33.6263 100.885L34.1815 106.579L31.7757 108.205L29.5551 107.799L30.6653 100.885H33.6263Z" fill="#9F616A"/>
  <path d="M35.477 32.5581C38.3388 32.5581 40.6588 30.0088 40.6588 26.8642C40.6588 23.7195 38.3388 21.1703 35.477 21.1703C32.6152 21.1703 30.2953 23.7195 30.2953 26.8642C30.2953 30.0088 32.6152 32.5581 35.477 32.5581Z" fill="#9F616A"/>
  <path d="M37.2351 29.6094C37.2351 29.6094 37.6978 38.252 38.253 38.252C38.8081 38.252 31.7758 37.8453 31.7758 37.8453C31.7758 37.8453 34.7368 32.1514 33.2563 30.3212C31.7758 28.491 37.2351 29.6094 37.2351 29.6094Z" fill="#9F616A"/>
  <path d="M29.5551 75.2624L31.9609 85.4299L30.1101 102.715L34.3667 102.308L36.0321 75.2624H29.5551Z" fill="#2F2E41"/>
  <path opacity="0.2" d="M29.5551 75.2624L31.9609 85.4299L30.1101 102.715L34.3667 102.308L36.0321 75.2624H29.5551Z" fill="black"/>
  <path d="M33.2563 105.562C33.2563 105.562 33.4413 104.342 35.2919 105.562C37.1426 106.782 44.9152 110.646 40.8438 111.459C36.7725 112.273 28.4446 110.442 28.4446 109.832C28.4446 109.222 28.2596 105.359 28.9998 105.765C29.7401 106.172 32.1459 108.816 33.2563 105.562Z" fill="#2F2E41"/>
  <path d="M30.8505 104.138C30.8505 104.138 27.8895 109.222 27.7044 110.646C27.5193 112.069 24.7434 107.392 24.7434 107.392L27.3343 102.105L30.8505 104.138Z" fill="#9F616A"/>
  <path d="M40.6588 76.0757L37.3276 88.2769C37.3276 88.2769 31.4056 105.562 31.0355 105.359C30.6654 105.155 26.2239 103.935 26.0388 103.325C25.8537 102.715 31.5907 86.2434 31.5907 86.2434L32.3309 75.669L40.6588 76.0757Z" fill="#2F2E41"/>
  <path d="M24.1882 106.579C24.6935 106.54 25.197 106.677 25.6284 106.968C26.0597 107.26 26.3973 107.693 26.594 108.206C27.3342 110.036 28.2595 110.239 28.4446 110.442C28.6297 110.646 27.8894 114.916 28.4446 115.323C28.9998 115.73 29.555 120 27.7044 120C25.8537 120 22.8927 117.763 23.0778 117.356C23.2629 116.95 23.2629 114.103 22.7077 112.883C22.1525 111.663 21.2272 109.629 22.7077 108.409C24.1882 107.189 24.1882 106.579 24.1882 106.579Z" fill="#2F2E41"/>
  <path d="M41.7691 57.1638L42.1393 60.8242C42.1393 60.8242 44.9152 63.8745 45.8405 67.5349C46.7658 71.1952 54.3534 77.2958 52.1327 78.1092C49.9119 78.9227 47.321 79.3294 40.8438 78.1092C34.3666 76.8891 24.1882 79.5327 24.1882 72.8221C24.1882 72.8221 22.8927 70.9919 21.9674 73.6355C21.3157 75.4411 20.5743 77.2062 19.7467 78.9227C19.7467 78.9227 17.5259 74.6522 18.2662 72.8221C19.0064 70.9919 18.2662 71.1952 19.1915 69.1617C20.1168 67.1282 24.7434 59.6041 26.594 59.1974C28.4446 58.7907 31.9608 53.5035 31.7758 52.8934C31.5907 52.2834 41.7691 57.1638 41.7691 57.1638Z" fill="#9BC269"/>
  <path d="M31.7757 34.3882C31.7757 34.3882 39.3633 36.2184 39.7334 37.4385C39.9416 38.1249 40.911 39.3903 41.7194 40.3661C43.0841 41.9891 43.9914 44.0121 44.3314 46.19C44.5244 47.4873 43.713 48.6539 43.3422 50.1481C42.2318 54.6219 41.399 53.5035 42.5094 56.7571C43.6198 60.0108 36.9575 61.2309 34.3666 59.8074C31.7757 58.3839 28.9073 49.9448 28.9073 48.928C28.9073 47.9112 26.4089 36.4218 28.4446 35.6084C30.4803 34.795 31.7757 34.3882 31.7757 34.3882Z" fill="#575A88"/>
  <path d="M42.3243 44.1492L44.5451 54.927L51.855 58.4856C51.855 58.4856 57.4069 57.0622 57.592 59.299C57.7128 60.7594 51.2998 61.3326 51.2998 61.3326L40.6587 56.7571L38.2529 46.7928L42.3243 44.1492Z" fill="#9F616A"/>
  <path d="M39.7334 40.0822C39.7334 40.0822 44.36 43.1325 43.2496 44.7593C42.1393 46.3861 39.3633 49.0297 38.6231 49.0297C37.8828 49.0297 37.3276 44.1492 37.3276 42.7257C37.3276 41.3023 39.7334 40.0822 39.7334 40.0822Z" fill="#575A88"/>
  <path d="M35.1042 19.4704C35.1042 19.4704 34.8203 20.5099 36.4286 21.4454C38.0368 22.381 38.5098 25.9153 36.6178 26.9548C34.7258 27.9943 34.1582 29.3456 35.1042 30.2812C36.0502 31.2167 37.753 33.7115 35.4825 34.3352C33.2121 34.9589 32.9283 36.2063 33.5906 36.7261C34.2528 37.2458 32.0769 35.7905 32.0769 35.7905C32.0769 35.7905 31.6985 38.2853 29.7119 37.6616C27.7253 37.0379 25.7432 25.7005 27.9577 22.7805C30.0168 20.0654 35.1042 19.4704 35.1042 19.4704Z" fill="#2F2E41"/>
  <path d="M35.7085 18.4004C35.708 16.8775 31.5616 17.9718 29.7839 20.0981C28.5528 21.5706 26.6829 23.7858 28.2498 25.3474C29.8167 26.9089 25.5641 28.9559 24.4235 29.5766C23.283 30.1972 21.0311 32.0951 23.0644 33.3684C25.0977 34.6416 25.0649 35.9269 24.2997 36.2312C23.5345 36.5355 25.9868 35.7787 25.9868 35.7787C25.9868 35.7787 25.7391 38.2933 27.8051 38.2812C29.8712 38.2692 35.7986 25.7924 34.3826 22.3245C33.066 19.0999 35.7085 18.4004 35.7085 18.4004Z" fill="#2F2E41"/>
  <path d="M34.8104 18.0667C40.3553 17.6998 40.9117 22.2861 40.9117 22.2861C40.8734 24.9402 37.0377 23.647 35.9723 24.0427C34.687 23.0267 32.2096 21.1043 30.4377 19.7325C31.7241 18.7372 33.2394 18.1599 34.8104 18.0667Z" fill="#2F2E41"/>
  <path d="M77.9643 71.2365H76.1912V116.699H77.9643V71.2365Z" fill="#381E1D"/>
  <path d="M76.1912 71.2365C76.1912 71.2365 79.2055 67.0799 81.688 72.4705C81.688 72.4705 80.5059 74.8735 80.1512 73.7045C79.7966 72.5354 78.9471 70.7877 77.9533 71.824" fill="#381E1D"/>
  <path d="M75.9247 63.2959C75.9247 63.2959 80.3846 68.1203 78.1883 72.1954C78.1204 72.3214 78.0271 72.4288 77.9156 72.5093C77.8042 72.5898 77.6775 72.6413 77.5452 72.6599C77.4129 72.6785 77.2785 72.6637 77.1522 72.6166C77.0259 72.5696 76.9111 72.4915 76.8164 72.3883C76.0593 71.5655 74.862 69.5216 73.3914 64.4648L75.9247 63.2959Z" fill="#FDA57D"/>
  <path opacity="0.1" d="M72.7926 37.8863C72.7926 37.8863 77.4028 39.445 76.5162 45.55C75.6296 51.655 75.9843 55.9415 75.9843 55.9415L77.1664 63.7352L75.0386 66.9176C75.0386 66.9176 71.3741 62.8909 70.1328 58.7992C68.8916 54.7076 69.0099 38.5358 72.7926 37.8863Z" fill="black"/>
  <path d="M72.7335 37.8213C72.7335 37.8213 77.3437 39.38 76.4571 45.485C75.5706 51.59 75.9252 55.8765 75.9252 55.8765L77.1073 63.6702L74.9795 66.8526C74.9795 66.8526 71.315 62.8259 70.0738 58.7342C68.8326 54.6425 68.9508 38.4708 72.7335 37.8213Z" fill="#9BC269"/>
  <path d="M67.3274 107.342L66.5717 113.561C66.5717 113.561 68.5117 114.434 69.0931 114.236C69.6745 114.039 70.6935 114.841 70.6935 114.841C70.6935 114.841 75.0288 116.346 75.8801 114.994C76.7315 113.642 74.8004 113.228 73.2337 112.209C71.6669 111.189 71.0044 107.255 71.0044 107.255L67.3274 107.342Z" fill="black"/>
  <path d="M75.6002 63.4429V86.4341L71.581 108.386H67.3255L67.9756 87.3434C67.9756 87.3434 63.5427 70.3272 65.4932 63.9624L75.6002 63.4429Z" fill="#333333"/>
  <path d="M72.3216 66.3436C72.3216 66.3436 78.5183 67.3075 78.9582 72.0188C78.9718 72.1646 78.9549 72.3118 78.9089 72.4494C78.8629 72.5869 78.7889 72.7111 78.6926 72.8125C78.5963 72.9139 78.4803 72.9899 78.3532 73.0346C78.2262 73.0793 78.0916 73.0915 77.9596 73.0704C76.9057 72.9037 74.8369 72.0431 70.9177 68.9388L72.3216 66.3436Z" fill="#FDA57D"/>
  <path d="M73.0882 36.7822C73.0882 36.7822 72.0834 38.6656 72.4971 41.913C72.4971 41.913 66.557 41.3609 66.7344 37.594C66.7344 37.594 69.6305 36.8146 70.3102 33.9245L73.0882 36.7822Z" fill="#FDA57D"/>
  <path d="M63.1901 108.706L62.4343 114.925C62.4343 114.925 64.3744 115.798 64.9558 115.6C65.5372 115.403 66.5562 116.205 66.5562 116.205C66.5562 116.205 70.8915 117.71 71.7428 116.358C72.5942 115.006 70.6631 114.592 69.0963 113.573C67.5296 112.553 66.8671 108.619 66.8671 108.619L63.1901 108.706Z" fill="black"/>
  <path opacity="0.1" d="M71.1377 65.2289V88.2202L67.1185 110.172H62.8629L63.5131 89.1294C63.5131 89.1294 59.0802 72.1133 61.0307 65.7485L71.1377 65.2289Z" fill="black"/>
  <path d="M70.9604 65.2289V88.2202L66.9412 110.172H62.6857L63.3358 89.1294C63.3358 89.1294 58.9029 72.1133 60.8534 65.7485L70.9604 65.2289Z" fill="#333333"/>
  <path opacity="0.1" d="M68.8327 37.9512C68.8327 37.9512 65.109 35.2884 62.6266 43.2119C60.1442 51.1355 61.149 65.7485 61.149 65.7485C61.149 65.7485 71.7288 69.5155 75.5116 64.2548V56.3962C75.5116 56.3962 77.5211 47.4335 74.6841 39.6399C74.6841 39.6399 72.2017 40.744 68.8327 37.9512Z" fill="black"/>
  <path opacity="0.1" d="M68.7144 38.1461C68.7144 38.1461 64.9907 35.4832 62.5083 43.4068C60.0259 51.3303 61.0307 65.9434 61.0307 65.9434C61.0307 65.9434 71.6106 69.7103 75.3933 64.4496V56.591C75.3933 56.591 77.4029 47.6283 74.5658 39.8347C74.5658 39.8347 72.0834 40.9388 68.7144 38.1461Z" fill="black"/>
  <path d="M68.7144 37.9512C68.7144 37.9512 64.9907 35.2884 62.5083 43.2119C60.0259 51.1355 61.0307 65.7485 61.0307 65.7485C61.0307 65.7485 71.6106 69.5155 75.3933 64.2548V56.3962C75.3933 56.3962 77.4029 47.4335 74.5658 39.6399C74.5658 39.6399 72.0834 40.744 68.7144 37.9512Z" fill="#9BC269"/>
  <path opacity="0.1" d="M64.9316 41.913C64.9316 41.913 69.5418 43.4717 68.6552 49.5767C67.7687 55.6817 68.1233 59.9682 68.1233 59.9682L74.0338 66.5279L71.9061 69.7103C71.9061 69.7103 63.5131 66.9175 62.2719 62.8259C61.0307 58.7342 61.1489 42.5624 64.9316 41.913Z" fill="black"/>
  <path opacity="0.1" d="M64.6361 42.1078C64.6361 42.1078 69.2463 43.6665 68.3597 49.7715C67.4732 55.8765 67.8278 60.163 67.8278 60.163L73.7383 66.7227L71.6105 69.9051C71.6105 69.9051 63.2176 67.1124 61.9764 63.0207C60.7351 58.9291 60.8534 42.7573 64.6361 42.1078Z" fill="black"/>
  <path d="M64.7544 41.913C64.7544 41.913 69.3646 43.4717 68.478 49.5767C67.5914 55.6817 67.9461 59.9682 67.9461 59.9682L73.8566 66.5279L71.7288 69.7103C71.7288 69.7103 63.3359 66.9175 62.0946 62.8259C60.8534 58.7342 60.9716 42.5624 64.7544 41.913Z" fill="#9BC269"/>
  <path opacity="0.1" d="M70.2216 34.1518L72.9995 37.0095C72.9542 37.0994 72.9129 37.1917 72.876 37.2862C72.4729 37.4043 72.0574 37.4642 71.6401 37.4641C70.5791 37.4641 69.6558 36.872 68.8622 36.2301C69.4169 35.6793 69.8928 35.1454 70.2216 34.1518Z" fill="black"/>
  <path d="M70.9308 34.8013C73.5749 34.8013 75.7184 32.446 75.7184 29.5406C75.7184 26.6351 73.5749 24.2798 70.9308 24.2798C68.2868 24.2798 66.1433 26.6351 66.1433 29.5406C66.1433 32.446 68.2868 34.8013 70.9308 34.8013Z" fill="#E0E0E0"/>
  <path d="M71.7288 37.2368C74.3729 37.2368 76.5163 34.8815 76.5163 31.9761C76.5163 29.0707 74.3729 26.7154 71.7288 26.7154C69.0847 26.7154 66.9413 29.0707 66.9413 31.9761C66.9413 34.8815 69.0847 37.2368 71.7288 37.2368Z" fill="#FDA57D"/>
  <path d="M66.9708 29.5406C66.9708 29.5406 65.178 34.6988 68.9705 36.2763C69.2863 36.0991 69.5593 35.8421 69.7672 35.5265C69.9752 35.2109 70.112 34.8456 70.1666 34.4606C70.2213 34.0756 70.192 33.6819 70.0814 33.3117C69.9707 32.9416 69.7818 32.6055 69.5301 32.3311L66.9708 29.5406Z" fill="#E0E0E0"/>
  <path d="M75.6023 28.3857C75.6023 28.3857 77.2551 28.8262 74.3589 29.9303C73.8822 30.106 73.4435 30.3878 73.0701 30.7579C72.6968 31.128 72.3967 31.5786 72.1887 32.0816C72.059 32.3884 71.8734 32.6627 71.6435 32.8875C71.4135 33.1124 71.1441 33.283 70.8517 33.389C70.5594 33.4949 70.2504 33.5338 69.9438 33.5034C69.6372 33.4729 69.3396 33.3737 69.0693 33.2119L68.1529 32.6581L66.557 28.5664L68.4484 26.1634L71.6992 25.7087L75.6023 28.3857Z" fill="#E0E0E0"/>
  <path d="M70.458 34.6064C70.7191 34.6064 70.9308 34.1993 70.9308 33.6972C70.9308 33.195 70.7191 32.7879 70.458 32.7879C70.1968 32.7879 69.9851 33.195 69.9851 33.6972C69.9851 34.1993 70.1968 34.6064 70.458 34.6064Z" fill="#FDA57D"/>
  <path d="M68.8326 37.9512C68.8326 37.9512 72.0539 43.5042 73.8861 43.5042C75.7184 43.5042 72.6012 38.2972 72.6012 38.2972L72.5267 39.7373L68.8326 37.9512Z" fill="#333333"/>
  <path d="M87.388 86.4856C76.683 86.4856 65.5958 85.2905 54.2435 82.9048C23.7133 76.489 7.21578 64.0452 6.31271 63.5107L3.59131 58.5376L3.59199 58.5381V58.538C3.84675 58.6883 25.5267 71.3598 55.3156 77.5942C82.6525 83.3149 122.652 84.629 157.967 58.399L157.191 64.3887C140.942 76.4573 125.968 82.4963 105.687 85.2665C99.6163 86.087 93.5048 86.4942 87.388 86.4856Z" fill="#F55F44"/>
  <path d="M8.16165 54.4857H4.59094V109.977H8.16165V54.4857Z" fill="#E0E0E0"/>
  <path d="M3.42634 108.155H9.3262C10.2349 108.155 11.1064 108.552 11.749 109.258C12.3915 109.964 12.7525 110.922 12.7525 111.92V115.162H0V111.92C4.78558e-07 110.922 0.360989 109.964 1.00355 109.258C1.64612 108.552 2.51762 108.155 3.42634 108.155Z" fill="#E0E0E0"/>
  <path opacity="0.1" d="M6.37625 60.9317C8.3483 60.9317 9.94696 59.175 9.94696 57.008C9.94696 54.8411 8.3483 53.0844 6.37625 53.0844C4.4042 53.0844 2.80554 54.8411 2.80554 57.008C2.80554 59.175 4.4042 60.9317 6.37625 60.9317Z" fill="black"/>
  <path d="M6.37625 60.6514C8.3483 60.6514 9.94696 58.8947 9.94696 56.7278C9.94696 54.5608 8.3483 52.8041 6.37625 52.8041C4.4042 52.8041 2.80554 54.5608 2.80554 56.7278C2.80554 58.8947 4.4042 60.6514 6.37625 60.6514Z" fill="#E0E0E0"/>
  <path opacity="0.1" d="M4.59094 108.434C4.59094 108.434 6.8864 109.273 8.16165 108.434L4.59094 108.434Z" fill="black"/>
  <path d="M158.409 54.4857H154.838V109.977H158.409V54.4857Z" fill="#E0E0E0"/>
  <path d="M153.674 108.155H159.574C160.482 108.155 161.354 108.552 161.996 109.258C162.639 109.964 163 110.922 163 111.92V115.162H150.247V111.92C150.247 110.922 150.608 109.964 151.251 109.258C151.894 108.552 152.765 108.155 153.674 108.155Z" fill="#E0E0E0"/>
  <path opacity="0.1" d="M156.624 61.3282C158.596 61.3282 160.194 59.4828 160.194 57.2063C160.194 54.9299 158.596 53.0844 156.624 53.0844C154.652 53.0844 153.053 54.9299 153.053 57.2063C153.053 59.4828 154.652 61.3282 156.624 61.3282Z" fill="black"/>
  <path d="M156.624 61.0479C158.596 61.0479 160.194 59.2025 160.194 56.926C160.194 54.6496 158.596 52.8041 156.624 52.8041C154.652 52.8041 153.053 54.6496 153.053 56.926C153.053 59.2025 154.652 61.0479 156.624 61.0479Z" fill="#E0E0E0"/>
  <path opacity="0.1" d="M154.838 108.434C154.838 108.434 157.134 110.165 158.409 108.434L154.838 108.434Z" fill="black"/>
  </g>
  <defs>
  <clipPath id="clip0">
  <rect width="163" height="120" fill="white"/>
  </clipPath>
  </defs>
  </svg>
