<svg width="auto" height="auto" viewBox="0 0 163 120" fill="none" xmlns="http://www.w3.org/2000/svg">
<g clip-path="url(#clip0)">
<g opacity="0.6">
<path opacity="0.6" d="M24.9435 54.285L25.3702 33.5932C25.3766 33.2936 25.4859 33.0068 25.6772 32.7873C25.8686 32.5678 26.1288 32.4308 26.4086 32.4023C35.5896 31.4753 44.8322 31.4753 54.0133 32.4023C54.2977 32.4299 54.5622 32.5695 54.7553 32.7939C54.9483 33.0183 55.056 33.3114 55.0573 33.616V54.3048C55.0573 54.6188 54.944 54.9208 54.7409 55.1482C54.5378 55.3755 54.2605 55.5108 53.9664 55.526C44.4566 56.0024 35.1375 56.0252 26.0359 55.526C25.7384 55.5111 25.4579 55.3732 25.254 55.1416C25.0501 54.9099 24.9388 54.6027 24.9435 54.285Z" fill="#36334A"/>
<path opacity="0.6" d="M24.9435 54.285L25.3702 33.5932C25.3766 33.2936 25.4859 33.0068 25.6772 32.7873C25.8686 32.5678 26.1288 32.4308 26.4086 32.4023C35.5896 31.4753 44.8322 31.4753 54.0133 32.4023C54.2977 32.4299 54.5622 32.5695 54.7553 32.7939C54.9483 33.0183 55.056 33.3114 55.0573 33.616V54.3048C55.0573 54.6188 54.944 54.9208 54.7409 55.1482C54.5378 55.3755 54.2605 55.5108 53.9664 55.526C44.4566 56.0024 35.1375 56.0252 26.0359 55.526C25.7384 55.5111 25.4579 55.3732 25.254 55.1416C25.0501 54.9099 24.9388 54.6027 24.9435 54.285Z" fill="#36334A"/>
<path opacity="0.2" d="M24.9435 54.285L25.3702 33.5932C25.3766 33.2936 25.4859 33.0068 25.6772 32.7873C25.8686 32.5678 26.1288 32.4308 26.4086 32.4023C35.5896 31.4753 44.8322 31.4753 54.0133 32.4023C54.2977 32.4299 54.5622 32.5695 54.7553 32.7939C54.9483 33.0183 55.056 33.3114 55.0573 33.616V54.3048C55.0573 54.6188 54.944 54.9208 54.7409 55.1482C54.5378 55.3755 54.2605 55.5108 53.9664 55.526C44.4566 56.0024 35.1375 56.0252 26.0359 55.526C25.7384 55.5111 25.4579 55.3732 25.254 55.1416C25.0501 54.9099 24.9388 54.6027 24.9435 54.285Z" fill="#3C9DC0"/>
<path opacity="0.6" d="M38.2964 36.1799H28.4112C28.2344 36.1799 28.0912 36.3328 28.0912 36.5213V38.4177C28.0912 38.6062 28.2344 38.759 28.4112 38.759H38.2964C38.4732 38.759 38.6165 38.6062 38.6165 38.4177V36.5213C38.6165 36.3328 38.4732 36.1799 38.2964 36.1799Z" fill="#3C9DC0"/>
<path opacity="0.3" d="M51.8798 40.6554H28.4823C28.3056 40.6554 28.1623 40.8082 28.1623 40.9967V41.5277C28.1623 41.7162 28.3056 41.8691 28.4823 41.8691H51.8798C52.0565 41.8691 52.1998 41.7162 52.1998 41.5277V40.9967C52.1998 40.8082 52.0565 40.6554 51.8798 40.6554Z" fill="#3C9DC0"/>
<path opacity="0.3" d="M51.8798 43.8413H28.4823C28.3056 43.8413 28.1623 43.9941 28.1623 44.1827V44.7136C28.1623 44.9022 28.3056 45.055 28.4823 45.055H51.8798C52.0565 45.055 52.1998 44.9022 52.1998 44.7136V44.1827C52.1998 43.9941 52.0565 43.8413 51.8798 43.8413Z" fill="#3C9DC0"/>
<path opacity="0.3" d="M43.7724 47.0272H28.4823C28.3056 47.0272 28.1623 47.18 28.1623 47.3686V47.8996C28.1623 48.0881 28.3056 48.2409 28.4823 48.2409H43.7724C43.9492 48.2409 44.0925 48.0881 44.0925 47.8996V47.3686C44.0925 47.18 43.9492 47.0272 43.7724 47.0272Z" fill="#3C9DC0"/>
</g>
<g opacity="0.6">
<path opacity="0.6" d="M94.4959 22.5773L94.9226 1.88548C94.929 1.58582 95.0382 1.29907 95.2296 1.07957C95.4209 0.860071 95.6812 0.723079 95.9609 0.694556C105.142 -0.232414 114.385 -0.232414 123.566 0.694556C123.85 0.722104 124.115 0.86172 124.308 1.08614C124.501 1.31056 124.608 1.60367 124.61 1.90824V22.597C124.608 22.9097 124.494 23.2098 124.291 23.4356C124.088 23.6613 123.812 23.7956 123.519 23.8107C114.009 24.2871 104.69 24.3098 95.5882 23.8107C95.2919 23.7958 95.0126 23.659 94.8089 23.429C94.6052 23.1989 94.493 22.8937 94.4959 22.5773Z" fill="#36334A"/>
<path opacity="0.6" d="M94.4959 22.5773L94.9226 1.88548C94.929 1.58582 95.0382 1.29907 95.2296 1.07957C95.4209 0.860071 95.6812 0.723079 95.9609 0.694556C105.142 -0.232414 114.385 -0.232414 123.566 0.694556C123.85 0.722104 124.115 0.86172 124.308 1.08614C124.501 1.31056 124.608 1.60367 124.61 1.90824V22.597C124.608 22.9097 124.494 23.2098 124.291 23.4356C124.088 23.6613 123.812 23.7956 123.519 23.8107C114.009 24.2871 104.69 24.3098 95.5882 23.8107C95.2919 23.7958 95.0126 23.659 94.8089 23.429C94.6052 23.1989 94.493 22.8937 94.4959 22.5773Z" fill="#36334A"/>
<path opacity="0.2" d="M94.4959 22.5773L94.9226 1.88548C94.929 1.58582 95.0382 1.29907 95.2296 1.07957C95.4209 0.860071 95.6812 0.723079 95.9609 0.694556C105.142 -0.232414 114.385 -0.232414 123.566 0.694556C123.85 0.722104 124.115 0.86172 124.308 1.08614C124.501 1.31056 124.608 1.60367 124.61 1.90824V22.597C124.608 22.9097 124.494 23.2098 124.291 23.4356C124.088 23.6613 123.812 23.7956 123.519 23.8107C114.009 24.2871 104.69 24.3098 95.5882 23.8107C95.2919 23.7958 95.0126 23.659 94.8089 23.429C94.6052 23.1989 94.493 22.8937 94.4959 22.5773Z" fill="#3C9DC0"/>
<path opacity="0.6" d="M107.849 4.47241H97.9635C97.7868 4.47241 97.6435 4.62524 97.6435 4.81376V6.71014C97.6435 6.89866 97.7868 7.05149 97.9635 7.05149H107.849C108.026 7.05149 108.169 6.89866 108.169 6.71014V4.81376C108.169 4.62524 108.026 4.47241 107.849 4.47241Z" fill="#3C9DC0"/>
<path opacity="0.3" d="M121.432 8.94788H98.0347C97.858 8.94788 97.7147 9.1007 97.7147 9.28922V9.82021C97.7147 10.0087 97.858 10.1616 98.0347 10.1616H121.432C121.609 10.1616 121.752 10.0087 121.752 9.82021V9.28922C121.752 9.1007 121.609 8.94788 121.432 8.94788Z" fill="#3C9DC0"/>
<path opacity="0.3" d="M121.432 12.1338H98.0347C97.858 12.1338 97.7147 12.2866 97.7147 12.4751V13.0061C97.7147 13.1946 97.858 13.3475 98.0347 13.3475H121.432C121.609 13.3475 121.752 13.1946 121.752 13.0061V12.4751C121.752 12.2866 121.609 12.1338 121.432 12.1338Z" fill="#3C9DC0"/>
<path opacity="0.3" d="M113.325 15.3197H98.0347C97.858 15.3197 97.7147 15.4725 97.7147 15.661V16.192C97.7147 16.3806 97.858 16.5334 98.0347 16.5334H113.325C113.502 16.5334 113.645 16.3806 113.645 16.192V15.661C113.645 15.4725 113.502 15.3197 113.325 15.3197Z" fill="#3C9DC0"/>
</g>
<path d="M163 104.299C163 105.739 161.994 107.132 160.111 108.456C158.766 109.403 156.974 110.313 154.779 111.178C148.521 113.649 139.002 115.755 127.302 117.289C126.317 117.417 125.317 117.543 124.301 117.665C111.863 119.146 97.1998 120.002 81.5 120.002C36.4887 120.002 0 112.971 0 104.299C0 95.6277 36.4887 88.5974 81.5 88.5974C126.511 88.5974 163 95.6262 163 104.299Z" fill="#3F3D56"/>
<path opacity="0.1" d="M76.9485 115.145C93.4448 115.145 106.818 112.292 106.818 108.773C106.818 105.254 93.4448 102.402 76.9485 102.402C60.4523 102.402 47.0794 105.254 47.0794 108.773C47.0794 112.292 60.4523 115.145 76.9485 115.145Z" fill="black"/>
<path opacity="0.1" d="M153.897 98.8379C153.897 102.358 143.372 105.284 126.873 105.284C110.373 105.284 97.0035 102.43 97.0035 98.9122C97.0035 95.394 110.373 92.5403 126.873 92.5403C143.372 92.5403 153.897 95.3182 153.897 98.8379Z" fill="black"/>
<path opacity="0.1" d="M159.685 108.244C158.427 109.26 156.78 110.242 154.779 111.176C148.521 113.648 139.002 115.754 127.302 117.287C126.317 117.416 125.317 117.541 124.301 117.664C121.337 116.671 119.619 115.497 119.619 114.235C119.619 110.715 132.989 107.863 149.488 107.863C153.069 107.863 156.503 107.998 159.685 108.244Z" fill="black"/>
<path d="M102.494 29.1284H101.679C101.499 29.1284 101.353 29.284 101.353 29.4758V41.6794C101.353 41.8713 101.499 42.0269 101.679 42.0269H102.494C102.674 42.0269 102.819 41.8713 102.819 41.6794V29.4758C102.819 29.284 102.674 29.1284 102.494 29.1284Z" fill="#3F3D56"/>
<path d="M53.2026 19.0245H52.8058C52.6879 19.0245 52.5924 19.1264 52.5924 19.252V23.0433C52.5924 23.169 52.6879 23.2709 52.8058 23.2709H53.2026C53.3204 23.2709 53.4159 23.169 53.4159 23.0433V19.252C53.4159 19.1264 53.3204 19.0245 53.2026 19.0245Z" fill="#3F3D56"/>
<path d="M53.2495 26.7981H52.8029C52.6702 26.7981 52.5625 26.9129 52.5625 27.0545V33.933C52.5625 34.0746 52.6702 34.1894 52.8029 34.1894H53.2495C53.3823 34.1894 53.4899 34.0746 53.4899 33.933V27.0545C53.4899 26.9129 53.3823 26.7981 53.2495 26.7981Z" fill="#3F3D56"/>
<path d="M53.2311 36.7746H52.8058C52.6793 36.7746 52.5768 36.884 52.5768 37.0189V43.9854C52.5768 44.1203 52.6793 44.2297 52.8058 44.2297H53.2311C53.3575 44.2297 53.46 44.1203 53.46 43.9854V37.0189C53.46 36.884 53.3575 36.7746 53.2311 36.7746Z" fill="#3F3D56"/>
<path d="M97.0675 4.99127H58.1352C55.3317 4.99127 53.0589 7.41545 53.0589 10.4058V105.982C53.0589 108.972 55.3317 111.397 58.1352 111.397H97.0675C99.8711 111.397 102.144 108.972 102.144 105.982V10.4058C102.144 7.41545 99.8711 4.99127 97.0675 4.99127Z" fill="#3F3D56"/>
<path d="M79.3594 8.16809H73.2277C73.0281 8.16809 72.8664 8.34062 72.8664 8.55344V9.26799C72.8664 9.48082 73.0281 9.65334 73.2277 9.65334H79.3594C79.5589 9.65334 79.7206 9.48082 79.7206 9.26799V8.55344C79.7206 8.34062 79.5589 8.16809 79.3594 8.16809Z" fill="#36334A"/>
<path d="M81.547 9.75345C81.9829 9.75345 82.3363 9.37647 82.3363 8.91145C82.3363 8.44643 81.9829 8.06946 81.547 8.06946C81.111 8.06946 80.7576 8.44643 80.7576 8.91145C80.7576 9.37647 81.111 9.75345 81.547 9.75345Z" fill="#36334A"/>
<path d="M99.1128 11.9214V104.465C99.1124 105.567 98.7015 106.625 97.9704 107.404C97.2393 108.184 96.2479 108.622 95.2142 108.622H59.9886C58.9548 108.622 57.9634 108.184 57.2323 107.404C56.5012 106.625 56.0903 105.567 56.0899 104.465V11.9214C56.0899 10.8185 56.5007 9.7608 57.2318 8.98096C57.9629 8.20111 58.9546 7.76299 59.9886 7.76299H65.2597V8.48513C65.2605 9.39288 65.599 10.2632 66.2009 10.9049C66.8028 11.5466 67.6189 11.9073 68.47 11.9077H86.3914C87.2428 11.9077 88.0594 11.547 88.6614 10.9048C89.2634 10.2627 89.6016 9.39175 89.6016 8.48362V7.76147H95.2213C96.2543 7.76348 97.2443 8.20269 97.9739 8.98265C98.7036 9.76261 99.1132 10.8196 99.1128 11.9214Z" fill="#36334A"/>
<path d="M61.7295 16.6077H57.3203V17.2146H61.7295V16.6077Z" fill="#3F3D56"/>
<path d="M61.7295 17.6697H57.3203V18.2765H61.7295V17.6697Z" fill="#3F3D56"/>
<path d="M61.7295 18.7317H57.3203V19.3385H61.7295V18.7317Z" fill="#3F3D56"/>
<path d="M61.7295 16.6077H57.3203V17.2146H61.7295V16.6077Z" fill="#3F3D56"/>
<path d="M61.7295 17.6697H57.3203V18.2765H61.7295V17.6697Z" fill="#3F3D56"/>
<path d="M61.7295 18.7317H57.3203V19.3385H61.7295V18.7317Z" fill="#3F3D56"/>
<path d="M97.0974 18.1279H96.9679L96.9182 18.0839C97.0817 17.876 97.1713 17.6133 97.1713 17.342C97.1702 17.1188 97.107 16.9009 96.9898 16.716C96.8726 16.531 96.7066 16.3873 96.5128 16.303C96.319 16.2187 96.1061 16.1975 95.9011 16.2422C95.696 16.287 95.508 16.3956 95.3608 16.5543C95.2136 16.713 95.1139 16.9147 95.0741 17.1338C95.0344 17.353 95.0565 17.5798 95.1376 17.7856C95.2188 17.9914 95.3553 18.1669 95.5299 18.2899C95.7046 18.413 95.9095 18.478 96.1188 18.4768C96.3724 18.4749 96.6177 18.3795 96.8129 18.2067L96.8613 18.2492V18.3888L97.6777 19.2627L97.9223 19.0002L97.0974 18.1279ZM96.1188 18.1279C95.973 18.1285 95.8302 18.0829 95.7087 17.9969C95.5872 17.9109 95.4923 17.7884 95.4361 17.6448C95.3799 17.5013 95.3649 17.3432 95.393 17.1906C95.4211 17.0379 95.491 16.8976 95.594 16.7874C95.6969 16.6772 95.8282 16.602 95.9712 16.5715C96.1142 16.5409 96.2625 16.5563 96.3972 16.6157C96.532 16.6751 96.6473 16.7758 96.7284 16.9051C96.8094 17.0344 96.8527 17.1864 96.8527 17.342C96.8533 17.4451 96.8347 17.5473 96.7981 17.6427C96.7614 17.7382 96.7074 17.8249 96.6392 17.898C96.571 17.971 96.4899 18.0289 96.4005 18.0684C96.3112 18.1079 96.2155 18.1281 96.1188 18.1279Z" fill="#3F3D56"/>
<path d="M5.06354 102.652C5.49024 101.816 5.00664 100.792 4.45335 100.047C3.90006 99.3021 3.22872 98.5299 3.24294 97.5756C3.26428 96.2103 4.62261 95.4032 5.70786 94.6795C6.51369 94.143 7.25665 93.5058 7.92101 92.7816C8.199 92.5027 8.4291 92.1741 8.60089 91.8107C8.82562 91.2766 8.81993 90.6698 8.80571 90.0857C8.75735 88.1327 8.66679 86.1863 8.53404 84.2464" stroke="#3F3D56" stroke-width="4" stroke-miterlimit="10"/>
<path d="M10.5979 84.1402C10.5827 83.7835 10.4836 83.4367 10.3096 83.1318C10.1355 82.8269 9.89227 82.5736 9.60223 82.3955L9.15561 83.3376L9.16984 82.1968C8.9562 82.13 8.73369 82.1013 8.51129 82.1118C8.11843 82.1326 7.74013 82.277 7.42413 82.5268C7.10813 82.7767 6.86858 83.1208 6.7357 83.5156C6.60283 83.9105 6.58257 84.3385 6.6775 84.7457C6.77243 85.1528 6.97828 85.5209 7.2691 85.8034C7.55991 86.0859 7.92265 86.2702 8.31156 86.3331C8.70046 86.3959 9.09812 86.3345 9.45435 86.1566C9.81058 85.9787 10.1094 85.6922 10.3132 85.3334C10.517 84.9745 10.6165 84.5593 10.5993 84.1402H10.5979Z" fill="#57B894"/>
<path d="M7.03775 98.5511C6.82836 98.984 6.48583 99.327 6.06758 99.5225C5.64933 99.7181 5.18077 99.7544 4.74042 99.6253C4.30008 99.4962 3.91471 99.2096 3.6489 98.8135C3.3831 98.4174 3.25301 97.9359 3.28045 97.4497C3.30788 96.9635 3.49116 96.5021 3.79958 96.1428C4.10799 95.7836 4.5228 95.5484 4.97448 95.4765C5.42616 95.4047 5.88727 95.5007 6.28051 95.7483C6.67376 95.996 6.97525 96.3802 7.13447 96.8368L5.88707 97.9185L7.25394 97.5802C7.2552 97.9175 7.18109 98.2504 7.03775 98.5511Z" fill="#57B894"/>
<path d="M6.05207 94.4171C5.55608 94.4544 5.06493 94.2925 4.6752 93.9632C4.28546 93.6338 4.02535 93.1609 3.94601 92.6373C3.86666 92.1137 3.97383 91.5774 4.24644 91.1339C4.51904 90.6904 4.93736 90.3716 5.41913 90.2404L5.40491 91.1173L5.85721 90.1631C6.11912 90.1494 6.38098 90.191 6.62776 90.2856C6.87454 90.3802 7.10138 90.5258 7.29525 90.7141C7.48913 90.9025 7.64622 91.1298 7.75751 91.383C7.8688 91.6363 7.9321 91.9105 7.94378 92.1899C7.95546 92.4356 7.92658 92.6816 7.85844 92.9166C7.73865 93.3346 7.50091 93.7029 7.17763 93.9714C6.85436 94.24 6.4613 94.3956 6.05207 94.4171Z" fill="#57B894"/>
<path d="M10.8979 90.9778C10.5915 90.9898 10.2866 90.9261 10.0071 90.7918C9.72749 90.6575 9.48076 90.4562 9.28613 90.2035C9.0915 89.9507 8.95421 89.6535 8.88496 89.3349C8.81572 89.0163 8.8164 88.6849 8.88694 88.3667C8.95747 88.0484 9.09597 87.7518 9.29164 87.5C9.4873 87.2481 9.73484 87.0479 10.015 86.9149C10.2951 86.7819 10.6002 86.7197 10.9066 86.7331C11.2129 86.7465 11.5123 86.8353 11.7812 86.9923L11.4285 88.024L12.1539 87.2806C12.5426 87.6603 12.7743 88.189 12.7982 88.7507C12.8077 88.9479 12.7909 89.1456 12.7484 89.3378C12.6488 89.7884 12.4143 90.1922 12.0805 90.4881C11.7466 90.7839 11.3315 90.9558 10.8979 90.9778Z" fill="#57B894"/>
<path opacity="0.1" d="M10.329 84.7075C9.86818 84.7606 9.42015 84.9139 8.95789 84.9442C8.49563 84.9745 7.98785 84.8562 7.69485 84.4739C7.53839 84.2676 7.45874 84.0051 7.32647 83.7806C7.20133 83.5711 7.0299 83.3977 6.82722 83.2754C6.70678 83.5439 6.64061 83.8365 6.633 84.134C6.62538 84.4316 6.6765 84.7276 6.78303 85.0027C6.88957 85.2779 7.04913 85.5261 7.25139 85.7312C7.45364 85.9363 7.69406 86.0938 7.95705 86.1934C8.22005 86.2931 8.49974 86.3326 8.77799 86.3095C9.05624 86.2864 9.32683 86.2012 9.57221 86.0594C9.81759 85.9176 10.0323 85.7223 10.2024 85.4863C10.3724 85.2503 10.4941 84.9787 10.5594 84.6893C10.4817 84.6924 10.4049 84.6984 10.329 84.7075Z" fill="black"/>
<path opacity="0.1" d="M10.898 90.9777C10.5537 90.9964 10.2108 90.9194 9.90277 90.7542C9.59477 90.5891 9.33223 90.3415 9.14085 90.0357C8.94947 89.7299 8.8358 89.3763 8.81096 89.0096C8.78612 88.6429 8.85096 88.2755 8.99914 87.9435C9.15739 88.0567 9.2936 88.2014 9.40024 88.3698C9.54247 88.5989 9.62923 88.8629 9.79565 89.0738C10.1071 89.4637 10.6377 89.5911 11.1198 89.5684C11.602 89.5456 12.0671 89.3984 12.5422 89.3514C12.609 89.3514 12.6759 89.3408 12.7442 89.3393C12.6445 89.7889 12.4105 90.1918 12.0776 90.4873C11.7446 90.7828 11.3306 90.955 10.898 90.9777Z" fill="black"/>
<path opacity="0.1" d="M6.05203 94.417C5.71096 94.4354 5.37117 94.36 5.06533 94.1979C4.75949 94.0358 4.49787 93.7926 4.3056 93.4915C4.11334 93.1904 3.9969 92.8417 3.96748 92.4788C3.93805 92.1159 3.99662 91.751 4.13756 91.4192C4.30318 91.5346 4.44776 91.6811 4.56427 91.8516C4.7193 92.0852 4.81602 92.3537 4.99808 92.5692C5.33517 92.9697 5.90126 93.1108 6.41046 93.0971C6.91966 93.0835 7.38192 92.9575 7.87263 92.9166C7.75201 93.3369 7.51213 93.7069 7.18605 93.9756C6.85996 94.2444 6.46375 94.3986 6.05203 94.417Z" fill="black"/>
<path opacity="0.1" d="M7.03773 98.5512C6.82177 99.066 6.42291 99.4682 5.92891 99.6694C5.43491 99.8705 4.88622 99.8541 4.40356 99.6238C3.9209 99.3934 3.54379 98.968 3.35521 98.4411C3.16662 97.9142 3.182 97.3289 3.39797 96.8141C3.56419 96.9281 3.71333 97.0683 3.84031 97.2298C4.03091 97.4771 4.15607 97.7577 4.37511 97.9883C4.78332 98.4162 5.44187 98.5952 6.02929 98.6088C6.36619 98.6101 6.70289 98.5909 7.03773 98.5512Z" fill="black"/>
<path d="M2.05245 101.69C2.05245 101.69 3.6284 101.638 4.10346 101.277C4.57853 100.916 6.52144 100.487 6.64376 101.065C6.76608 101.643 9.01196 103.947 7.23403 103.957C5.45611 103.966 3.10072 103.653 2.62565 103.35C2.15059 103.046 2.05245 101.69 2.05245 101.69Z" fill="#656380"/>
<path opacity="0.2" d="M7.26532 103.755C5.48598 103.77 3.13201 103.46 2.65837 103.148C2.29709 102.913 2.15344 102.071 2.10508 101.684H2.05245C2.05245 101.684 2.15202 103.039 2.62139 103.353C3.09076 103.667 5.45042 103.972 7.22976 103.96C7.74323 103.96 7.9196 103.761 7.90964 103.473C7.84279 103.643 7.64793 103.752 7.26532 103.755Z" fill="black"/>
<path d="M37.1614 95.0117C36.4873 93.6797 37.2525 92.0473 38.1315 90.8594C39.0105 89.6715 40.0844 88.432 40.0616 86.9149C40.0289 84.7394 37.8641 83.4544 36.1331 82.2999C34.85 81.444 33.6664 80.4291 32.6071 79.2763C32.1804 78.8136 31.7722 78.319 31.5233 77.7289C31.1649 76.8778 31.1748 75.9083 31.1976 74.9783C31.2725 71.8723 31.4147 68.7704 31.6243 65.6724" stroke="#3F3D56" stroke-width="4" stroke-miterlimit="10"/>
<path d="M28.3415 65.5101C28.366 64.9419 28.5242 64.3894 28.8016 63.9037C29.0791 63.4179 29.4667 63.0145 29.9289 62.7307L30.64 64.2342L30.6187 62.4137C31.2656 62.2095 31.9565 62.23 32.5918 62.4721C33.2271 62.7141 33.7737 63.1653 34.1529 63.7604C34.5321 64.3555 34.7241 65.0638 34.7013 65.7829C34.6785 66.502 34.4419 67.1948 34.0259 67.7611C33.6098 68.3275 33.0357 68.7382 32.3866 68.9339C31.7374 69.1295 31.0467 69.1 30.4143 68.8497C29.7819 68.5994 29.2404 68.1411 28.8681 67.5411C28.4958 66.9411 28.3119 66.2303 28.343 65.5116L28.3415 65.5101Z" fill="#57B894"/>
<path d="M34.0138 88.476C34.3475 89.1682 34.8942 89.7169 35.5622 90.0301C36.2302 90.3434 36.9788 90.402 37.6826 90.1964C38.3863 89.9907 39.0024 89.5331 39.4273 88.9005C39.8523 88.2678 40.0604 87.4985 40.0167 86.7216C39.973 85.9446 39.6802 85.2074 39.1873 84.6335C38.6945 84.0595 38.0315 83.6838 37.3098 83.5694C36.588 83.4549 35.8513 83.6087 35.2232 84.0048C34.5951 84.401 34.1139 85.0155 33.8602 85.7452L35.8514 87.4702L33.6653 86.9301C33.6644 87.4677 33.7838 87.9977 34.0138 88.476Z" fill="#57B894"/>
<path d="M35.5855 81.8873C36.3658 81.9257 37.1321 81.6565 37.7384 81.1312C38.3446 80.6058 38.7485 79.8609 38.8731 79.0384C38.9977 78.2159 38.8343 77.3733 38.414 76.671C37.9937 75.9687 37.3459 75.4559 36.5939 75.2302L36.611 76.629L35.8913 75.1119H35.8828C35.4636 75.0877 35.0441 75.1523 34.6485 75.3019C34.2528 75.4514 33.8888 75.683 33.5775 75.9833C33.2661 76.2835 33.0135 76.6465 32.8342 77.0514C32.655 77.4562 32.5526 77.8949 32.533 78.3422C32.5134 78.7894 32.5769 79.2364 32.72 79.6573C32.863 80.0782 33.0828 80.4648 33.3665 80.7947C33.6502 81.1247 33.9924 81.3915 34.3732 81.5798C34.7541 81.7681 35.1661 81.8741 35.5855 81.8918V81.8873Z" fill="#57B894"/>
<path d="M27.8622 76.4059C28.3545 76.4309 28.8454 76.3336 29.2964 76.1216C29.7474 75.9096 30.146 75.5888 30.4609 75.1844C30.7758 74.7801 30.9983 74.3032 31.1109 73.7915C31.2235 73.2797 31.2232 72.7471 31.1098 72.2355C30.9965 71.7239 30.7733 71.2474 30.4578 70.8436C30.1423 70.4397 29.7432 70.1196 29.292 69.9083C28.8407 69.6971 28.3496 69.6006 27.8573 69.6263C27.3651 69.6521 26.8852 69.7995 26.4555 70.0569L27.0244 71.6999L25.8681 70.515C25.4051 70.968 25.0783 71.557 24.9287 72.2078C24.7791 72.8586 24.8134 73.5421 25.0275 74.1721C25.2415 74.8021 25.6256 75.3504 26.1313 75.748C26.637 76.1455 27.2418 76.3744 27.8693 76.4059H27.8622Z" fill="#57B894"/>
<path opacity="0.1" d="M28.7683 66.4143C29.5036 66.4993 30.2176 66.7435 30.9544 66.7921C31.6912 66.8406 32.5005 66.6525 32.9656 66.0411C33.2173 65.7119 33.3425 65.2962 33.5544 64.9366C33.756 64.6031 34.0309 64.327 34.3552 64.1326C34.5601 64.5627 34.6767 65.0345 34.6972 65.5166C34.7177 65.9986 34.6415 66.4797 34.4739 66.9279C34.3062 67.376 34.0509 67.7809 33.7249 68.1154C33.399 68.45 33.0099 68.7066 32.5836 68.8681C32.1573 69.0296 31.7036 69.0923 31.2529 69.052C30.8021 69.0117 30.3645 68.8693 29.9694 68.6343C29.5743 68.3994 29.2307 68.0773 28.9615 67.6895C28.6923 67.3017 28.5038 66.8571 28.4084 66.3855C28.5293 66.39 28.6488 66.3991 28.7683 66.4143Z" fill="black"/>
<path opacity="0.1" d="M27.8622 76.406C28.4105 76.4331 28.956 76.3086 29.4459 76.0444C29.9357 75.7803 30.3532 75.3855 30.6578 74.8985C30.9624 74.4115 31.1437 73.8487 31.1842 73.2649C31.2247 72.681 31.123 72.0959 30.8889 71.5664C30.6357 71.747 30.4182 71.979 30.2489 72.2491C30.0227 72.6132 29.8848 73.035 29.6188 73.3702C29.1238 73.9923 28.2761 74.1956 27.508 74.1576C26.74 74.1197 26.0003 73.8876 25.2323 73.8132C25.1256 73.8026 25.0189 73.795 24.9108 73.792C25.0692 74.5109 25.443 75.155 25.9756 75.6268C26.5083 76.0985 27.1706 76.3721 27.8622 76.406Z" fill="black"/>
<path opacity="0.1" d="M35.5855 81.8873C36.1284 81.9143 36.6687 81.7926 37.155 81.5337C37.6413 81.2748 38.0573 80.8874 38.3633 80.4084C38.6694 79.9293 38.8553 79.3747 38.9033 78.7973C38.9514 78.2198 38.86 77.6389 38.6378 77.1099C38.3755 77.2936 38.1473 77.5276 37.9651 77.8001C37.7176 78.1718 37.564 78.5997 37.2738 78.944C36.7376 79.5812 35.8358 79.8058 35.0223 79.786C34.2343 79.7663 33.4762 79.5615 32.6925 79.4963C32.8851 80.1641 33.2664 80.7522 33.7842 81.1801C34.302 81.6081 34.9311 81.855 35.5855 81.8873Z" fill="black"/>
<path opacity="0.1" d="M34.0138 88.476C34.3855 89.2494 35.0211 89.8411 35.7897 90.1294C36.5583 90.4177 37.4013 90.3806 38.1449 90.0256C38.8886 89.6706 39.4763 89.0249 39.7868 88.2215C40.0973 87.4181 40.1071 86.5182 39.8141 85.7073C39.5518 85.8907 39.3164 86.1147 39.1157 86.3718C38.8128 86.7648 38.6137 87.2108 38.2623 87.5764C37.6123 88.2576 36.5626 88.5382 35.6282 88.5655C35.0889 88.5686 34.5499 88.5387 34.0138 88.476Z" fill="black"/>
<path d="M41.959 93.4779C41.959 93.4779 39.4486 93.396 38.6876 92.821C37.9267 92.246 34.8245 91.5603 34.6368 92.4812C34.449 93.4021 30.8647 97.0659 33.7094 97.0902C36.5541 97.1144 40.2963 96.6199 41.0515 96.1283C41.8068 95.6368 41.959 93.4779 41.959 93.4779Z" fill="#656380"/>
<path opacity="0.2" d="M33.6525 96.77C36.4872 96.7943 40.2394 96.2982 40.9946 95.8082C41.5636 95.435 41.7983 94.0939 41.8751 93.4749H41.959C41.959 93.4749 41.7997 95.6353 41.0444 96.1253C40.2892 96.6153 36.537 97.1114 33.7023 97.0871C32.8845 97.0871 32.6014 96.7701 32.6171 96.3104C32.7308 96.591 33.0423 96.764 33.6525 96.77Z" fill="black"/>
<path opacity="0.3" d="M99.1128 62.3212V104.468C99.1124 105.57 98.7015 106.628 97.9704 107.407C97.2393 108.187 96.2479 108.625 95.2142 108.625H59.9886C58.9548 108.625 57.9634 108.187 57.2323 107.407C56.5012 106.628 56.0903 105.57 56.0899 104.468V62.4031C70.3759 64.3254 84.8333 64.2978 99.1128 62.3212Z" fill="#3C9DC0"/>
<path opacity="0.3" d="M73.2505 54.3093C73.5647 54.3093 73.8194 54.0376 73.8194 53.7025C73.8194 53.3673 73.5647 53.0956 73.2505 53.0956C72.9362 53.0956 72.6815 53.3673 72.6815 53.7025C72.6815 54.0376 72.9362 54.3093 73.2505 54.3093Z" fill="#3C9DC0"/>
<path d="M75.8106 54.3093C76.1248 54.3093 76.3796 54.0376 76.3796 53.7025C76.3796 53.3673 76.1248 53.0956 75.8106 53.0956C75.4964 53.0956 75.2417 53.3673 75.2417 53.7025C75.2417 54.0376 75.4964 54.3093 75.8106 54.3093Z" fill="#3C9DC0"/>
<path opacity="0.3" d="M78.3709 54.3093C78.6851 54.3093 78.9398 54.0376 78.9398 53.7025C78.9398 53.3673 78.6851 53.0956 78.3709 53.0956C78.0566 53.0956 77.8019 53.3673 77.8019 53.7025C77.8019 54.0376 78.0566 54.3093 78.3709 54.3093Z" fill="#3C9DC0"/>
<path opacity="0.3" d="M80.9311 54.3093C81.2453 54.3093 81.5 54.0376 81.5 53.7025C81.5 53.3673 81.2453 53.0956 80.9311 53.0956C80.6169 53.0956 80.3622 53.3673 80.3622 53.7025C80.3622 54.0376 80.6169 54.3093 80.9311 54.3093Z" fill="#3C9DC0"/>
<path opacity="0.3" d="M62.6355 46.0927L63.0622 25.4009C63.0686 25.1012 63.1778 24.8144 63.3692 24.595C63.5605 24.3755 63.8208 24.2385 64.1005 24.2099C73.2816 23.283 82.5242 23.283 91.7052 24.2099C91.9896 24.2375 92.2541 24.3771 92.4472 24.6015C92.6402 24.8259 92.7479 25.1191 92.7492 25.4236V46.1124C92.7492 46.4264 92.6359 46.7284 92.4328 46.9558C92.2297 47.1832 91.9524 47.3185 91.6583 47.3337C82.1485 47.81 72.8294 47.8328 63.7278 47.3337C63.4303 47.3187 63.1499 47.1808 62.946 46.9492C62.7421 46.7176 62.6307 46.4104 62.6355 46.0927Z" fill="#3C9DC0"/>
<path opacity="0.3" d="M99.1128 24.4739V47.9345C98.0916 47.8404 97.0741 47.7393 96.0605 47.631C95.7627 47.6021 95.4876 47.4493 95.2947 47.2057C95.1017 46.9621 95.0064 46.6473 95.0293 46.3294L96.3819 25.6831C96.4015 25.3839 96.5234 25.1029 96.7246 24.8934C96.9257 24.6839 97.192 24.5605 97.4728 24.5468C98.019 24.5205 98.5657 24.4962 99.1128 24.4739Z" fill="#3C9DC0"/>
<path opacity="0.3" d="M56.1027 24.4739V47.9345C57.124 47.8404 58.1414 47.7393 59.1551 47.631C59.4528 47.6021 59.7279 47.4493 59.9209 47.2057C60.1138 46.9621 60.2092 46.6473 60.1862 46.3294L58.8336 25.6831C58.814 25.3839 58.6921 25.1029 58.4909 24.8934C58.2898 24.6839 58.0235 24.5605 57.7427 24.5468C57.1965 24.5205 56.6498 24.4962 56.1027 24.4739Z" fill="#3C9DC0"/>
<path d="M75.9885 27.9875H66.1032C65.9265 27.9875 65.7832 28.1404 65.7832 28.3289V30.2253C65.7832 30.4138 65.9265 30.5666 66.1032 30.5666H75.9885C76.1652 30.5666 76.3085 30.4138 76.3085 30.2253V28.3289C76.3085 28.1404 76.1652 27.9875 75.9885 27.9875Z" fill="#3C9DC0"/>
<path opacity="0.3" d="M89.5718 32.463H66.1743C65.9976 32.463 65.8543 32.6158 65.8543 32.8044V33.3354C65.8543 33.5239 65.9976 33.6767 66.1743 33.6767H89.5718C89.7486 33.6767 89.8918 33.5239 89.8918 33.3354V32.8044C89.8918 32.6158 89.7486 32.463 89.5718 32.463Z" fill="#3C9DC0"/>
<path opacity="0.3" d="M89.5718 35.6489H66.1743C65.9976 35.6489 65.8543 35.8018 65.8543 35.9903V36.5213C65.8543 36.7098 65.9976 36.8626 66.1743 36.8626H89.5718C89.7486 36.8626 89.8918 36.7098 89.8918 36.5213V35.9903C89.8918 35.8018 89.7486 35.6489 89.5718 35.6489Z" fill="#3C9DC0"/>
<path opacity="0.3" d="M81.4645 38.8348H66.1743C65.9976 38.8348 65.8543 38.9877 65.8543 39.1762V39.7072C65.8543 39.8957 65.9976 40.0485 66.1743 40.0485H81.4645C81.6412 40.0485 81.7845 39.8957 81.7845 39.7072V39.1762C81.7845 38.9877 81.6412 38.8348 81.4645 38.8348Z" fill="#3C9DC0"/>
<path d="M67.1543 80.3292C66.9098 80.4451 66.6504 80.5213 66.3848 80.5552C66.6645 80.3756 66.874 80.0944 66.9751 79.7633C66.7113 79.9303 66.4227 80.0478 66.1217 80.1107C65.9191 79.8821 65.6517 79.7309 65.3606 79.6804C65.0695 79.6298 64.7709 79.6828 64.5109 79.8312C64.2508 79.9796 64.0437 80.215 63.9215 80.5013C63.7993 80.7876 63.7687 81.1088 63.8346 81.4154C63.3007 81.3871 62.7784 81.2392 62.3018 80.9812C61.8251 80.7232 61.4047 80.3609 61.0681 79.9181C60.95 80.1373 60.8877 80.3858 60.8875 80.6387C60.8874 80.8747 60.9421 81.107 61.0466 81.3151C61.151 81.5231 61.3021 81.7004 61.4863 81.8311C61.2723 81.8252 61.0628 81.7638 60.8761 81.6521V81.6703C60.8759 82.0011 60.983 82.3217 61.1792 82.5778C61.3755 82.8339 61.6488 83.0096 61.9528 83.0752C61.8377 83.108 61.7192 83.1249 61.6001 83.1252C61.515 83.1254 61.4302 83.1162 61.3469 83.0979C61.4326 83.3826 61.5996 83.6317 61.8245 83.8101C62.0495 83.9886 62.3211 84.0875 62.6014 84.0931C62.1256 84.4897 61.5382 84.7035 60.9344 84.7C60.8274 84.6998 60.7206 84.6927 60.6144 84.6788C61.2245 85.1063 61.9383 85.3346 62.6682 85.3357C65.1388 85.3357 66.4901 83.151 66.4901 81.2577C66.4901 81.1955 66.4901 81.1333 66.4901 81.0726C66.7514 80.8692 66.9764 80.6174 67.1543 80.3292Z" fill="white"/>
<path d="M80.5997 79.6632H75.8647C75.7869 79.6632 75.7122 79.6961 75.657 79.7547C75.6018 79.8132 75.5706 79.8927 75.5703 79.9757V85.0322C75.5703 85.0735 75.5779 85.1143 75.5927 85.1524C75.6075 85.1905 75.6292 85.2251 75.6565 85.2543C75.6838 85.2835 75.7163 85.3066 75.752 85.3224C75.7877 85.3382 75.826 85.3463 75.8647 85.3463H78.2286V83.0934H77.5928V82.265H78.2286V81.6582C78.2286 80.9254 78.7051 80.5264 79.3195 80.5264C79.614 80.5264 79.9297 80.5507 80.0023 80.5598V81.3184H79.513C79.1802 81.3184 79.1162 81.4868 79.1162 81.7356V82.2635H79.9112L79.8074 83.0919H79.1162V85.3357H80.5968C80.6747 85.3353 80.7492 85.302 80.8041 85.2432C80.859 85.1843 80.8898 85.1047 80.8898 85.0216V79.9757C80.8898 79.8934 80.8593 79.8143 80.805 79.7558C80.7507 79.6973 80.6769 79.664 80.5997 79.6632Z" fill="white"/>
<path d="M93.0494 80.1213C93.3429 80.1225 93.6241 80.2474 93.8316 80.4688C94.0392 80.6902 94.1563 80.9901 94.1574 81.3032V83.6668C94.1563 83.9799 94.0392 84.2798 93.8316 84.5012C93.6241 84.7225 93.3429 84.8474 93.0494 84.8486H90.8305C90.537 84.8474 90.2559 84.7225 90.0483 84.5012C89.8408 84.2798 89.7237 83.9799 89.7225 83.6668V81.3001C89.7237 80.9871 89.8408 80.6871 90.0483 80.4658C90.2559 80.2444 90.537 80.1195 90.8305 80.1183H93.0494V80.1213ZM93.0494 79.645H90.8305C90.4193 79.6462 90.0253 79.8209 89.7345 80.1311C89.4437 80.4412 89.2799 80.8615 89.2788 81.3001V83.6668C89.2799 84.1054 89.4437 84.5257 89.7345 84.8359C90.0253 85.146 90.4193 85.3208 90.8305 85.322H93.0494C93.4606 85.3208 93.8546 85.146 94.1454 84.8359C94.4362 84.5257 94.6 84.1054 94.6012 83.6668V81.3001C94.5993 80.862 94.4351 80.4425 94.1444 80.133C93.8537 79.8235 93.4601 79.6492 93.0494 79.648V79.645Z" fill="white"/>
<path d="M93.3808 81.3031C93.3149 81.3031 93.2505 81.2823 93.1958 81.2432C93.141 81.2041 93.0983 81.1486 93.0732 81.0836C93.0481 81.0187 93.0415 80.9472 93.0545 80.8783C93.0675 80.8094 93.0993 80.7462 93.146 80.6966C93.1927 80.647 93.2521 80.6133 93.3168 80.5998C93.3814 80.5863 93.4484 80.5935 93.5092 80.6206C93.57 80.6477 93.6219 80.6934 93.6583 80.752C93.6947 80.8106 93.7139 80.8794 93.7137 80.9497C93.7137 80.9962 93.705 81.0423 93.6883 81.0853C93.6715 81.1283 93.647 81.1673 93.6161 81.2001C93.5852 81.233 93.5485 81.259 93.5081 81.2767C93.4677 81.2944 93.4245 81.3033 93.3808 81.3031ZM91.94 81.5429C92.1155 81.5429 92.2871 81.5984 92.4331 81.7024C92.579 81.8064 92.6928 81.9543 92.76 82.1273C92.8271 82.3002 92.8447 82.4906 92.8105 82.6742C92.7762 82.8579 92.6917 83.0265 92.5676 83.1589C92.4435 83.2913 92.2853 83.3815 92.1131 83.418C91.941 83.4545 91.7625 83.4358 91.6004 83.3641C91.4382 83.2925 91.2996 83.1712 91.202 83.0155C91.1045 82.8598 91.0525 82.6768 91.0525 82.4895C91.0528 82.2386 91.1465 81.998 91.3128 81.8206C91.4792 81.6431 91.7047 81.5433 91.94 81.5429ZM91.94 81.071C91.6766 81.071 91.4192 81.1544 91.2002 81.3105C90.9813 81.4666 90.8106 81.6884 90.7099 81.948C90.6092 82.2075 90.5829 82.4931 90.6344 82.7686C90.6859 83.0441 90.8128 83.2972 90.9991 83.4957C91.1855 83.6942 91.4228 83.8294 91.6811 83.884C91.9395 83.9386 92.2072 83.9103 92.4504 83.8025C92.6937 83.6948 92.9015 83.5126 93.0476 83.2789C93.1937 83.0451 93.2716 82.7704 93.2713 82.4895C93.2717 82.3029 93.2375 82.118 93.1708 81.9454C93.104 81.7729 93.006 81.6161 92.8823 81.484C92.7586 81.3519 92.6117 81.2472 92.45 81.1758C92.2883 81.1044 92.115 81.0678 91.94 81.068V81.071Z" fill="white"/>
<path d="M108.021 65.5526C109.48 65.5526 110.662 64.2912 110.662 62.7353C110.662 61.1794 109.48 59.918 108.021 59.918C106.562 59.918 105.38 61.1794 105.38 62.7353C105.38 64.2912 106.562 65.5526 108.021 65.5526Z" fill="#3F3D56"/>
<path d="M114.466 79.2308C118.558 79.2308 121.876 74.646 121.876 68.9903C121.876 63.3347 118.558 58.7499 114.466 58.7499C110.373 58.7499 107.055 63.3347 107.055 68.9903C107.055 74.646 110.373 79.2308 114.466 79.2308Z" fill="#3F3D56"/>
<path opacity="0.1" d="M114.466 76.1374C110.753 76.1374 107.678 72.3659 107.139 67.4444C107.083 67.9575 107.055 68.4737 107.055 68.9903C107.055 74.6461 110.372 79.2308 114.466 79.2308C118.559 79.2308 121.874 74.6461 121.874 68.9903C121.875 68.4737 121.847 67.9575 121.791 67.4444C121.252 72.3659 118.176 76.1374 114.466 76.1374Z" fill="black"/>
<path d="M129.544 98.9805C129.384 99.6783 128.699 100.237 127.938 100.627C126.341 101.447 124.371 101.689 122.459 101.775C121.971 101.806 121.482 101.796 120.996 101.746C120 101.619 119.067 101.164 118.487 100.516C118.438 100.482 118.398 100.435 118.37 100.38C118.343 100.325 118.329 100.264 118.33 100.202C118.331 100.14 118.347 100.079 118.376 100.025C118.405 99.971 118.447 99.9259 118.496 99.8938C119.513 98.7013 121.212 97.9716 122.923 97.4452C124.22 97.0446 126.479 96.0115 127.901 96.1511C129.266 96.2861 129.744 98.099 129.544 98.9805Z" fill="#3F3D56"/>
<path opacity="0.1" d="M129.544 98.9805C129.384 99.6783 128.699 100.237 127.938 100.627C126.341 101.447 124.371 101.689 122.459 101.775C121.971 101.806 121.482 101.796 120.996 101.746C120 101.619 119.067 101.164 118.487 100.516C118.438 100.482 118.398 100.435 118.37 100.38C118.343 100.325 118.329 100.264 118.33 100.202C118.331 100.14 118.347 100.079 118.376 100.025C118.405 99.971 118.447 99.9259 118.496 99.8938C119.513 98.7013 121.212 97.9716 122.923 97.4452C124.22 97.0446 126.479 96.0115 127.901 96.1511C129.266 96.2861 129.744 98.099 129.544 98.9805Z" fill="black"/>
<path d="M109.236 93.7677C108.994 94.2724 108.848 94.8229 108.806 95.3878C108.764 95.9527 108.827 96.5209 108.991 97.0598C109.326 98.1412 109.956 99.0918 110.799 99.7906C112.865 101.558 115.71 101.801 118.36 101.777C120.68 101.753 122.996 101.582 125.297 101.265C126.065 101.159 126.84 101.035 127.55 100.707C128.414 100.308 129.174 99.5767 129.483 98.627C129.791 97.6773 129.572 96.5137 128.841 95.8795C128.198 95.3228 127.312 95.2469 126.486 95.1938L121.752 94.8934C122.22 94.3897 122.842 94.1045 123.411 93.7374C124.164 93.2504 124.667 92.4342 125.216 91.6984C126.035 90.5985 127.003 89.6382 127.966 88.6809C128.121 89.6215 128.678 90.3952 129.336 91.0445C129.995 91.6938 130.751 92.2172 131.434 92.8362C133.088 94.3336 134.279 96.3665 136.02 97.7501C137.216 97.4149 138.335 96.8194 139.305 96.0009L138.63 94.6947C138.573 94.5602 138.486 94.4433 138.375 94.3548C138.183 94.2289 137.937 94.2942 137.714 94.2577C137.121 94.1637 136.86 93.4324 136.628 92.8408C135.988 91.2205 134.762 89.9583 133.717 88.6035C132.945 87.5999 132.259 86.5234 131.67 85.3872C131.317 84.7106 130.996 84.0051 130.519 83.415C130.043 82.8248 129.373 82.3727 128.648 82.3712C128.006 82.3712 127.415 82.7171 126.863 83.066C125.184 84.1307 123.569 85.3051 122.027 86.5827C121.22 87.2517 120.417 87.9572 119.466 88.3683C119.068 88.5398 118.647 88.6581 118.265 88.869C117.595 89.2361 117.086 89.8581 116.538 90.4119C114.591 92.3887 111.917 93.6646 109.236 93.7677Z" fill="#3F3D56"/>
<path d="M119.117 79.739C119.094 80.3416 118.973 80.9354 118.761 81.4943C118.528 82.042 118.117 82.5274 117.58 82.708C117.204 82.8159 116.81 82.8294 116.428 82.7474C116.095 82.711 115.775 82.5948 115.49 82.4076C115.047 82.0814 114.825 81.4973 114.746 80.9345C114.666 80.3716 114.7 79.7876 114.649 79.2171C114.599 78.7561 114.517 78.2997 114.403 77.8517C114.369 77.7 114.333 77.5483 114.298 77.4057C114.262 77.2631 114.231 77.1023 114.2 76.9612C114.168 76.8201 114.144 76.6805 114.123 76.5394C114.103 76.4211 114.087 76.3013 114.074 76.1814C114.037 75.8279 114.032 75.4623 113.909 75.1301C113.816 74.9094 113.7 74.7003 113.564 74.5065C113.505 74.417 113.449 74.329 113.396 74.235C113.245 73.9943 113.175 73.706 113.197 73.4172C113.203 73.3724 113.213 73.3282 113.227 73.2853C113.227 73.2686 113.238 73.2534 113.245 73.2367C113.303 73.2196 113.356 73.188 113.4 73.1444C113.444 73.1008 113.477 73.0466 113.497 72.9864C113.519 72.8563 113.508 72.7222 113.466 72.598C113.418 72.4244 113.352 72.257 113.269 72.0989C113.215 71.9942 113.032 71.8061 113.03 71.6862C113.03 71.445 113.468 71.2508 113.648 71.1568C114.192 70.8644 114.799 70.7314 115.407 70.7714C115.797 70.7987 116.221 70.9231 116.436 71.2751C116.629 71.5891 116.603 71.9972 116.686 72.3613C116.693 72.4169 116.714 72.4693 116.747 72.513C116.789 72.5538 116.842 72.5798 116.898 72.5874C116.991 72.6067 117.087 72.6108 117.182 72.5995C117.208 72.597 117.233 72.5929 117.258 72.5874C117.408 72.5582 117.551 72.4928 117.674 72.3962C117.754 72.3735 117.834 72.3553 117.916 72.3401H117.925C118.248 73.4264 118.29 74.5915 118.555 75.6974C118.684 76.2482 118.872 76.7913 118.899 77.3587C118.899 77.3829 118.899 77.4087 118.899 77.4345C118.899 77.6166 118.889 77.8002 118.899 77.9807C118.903 78.0621 118.911 78.1432 118.925 78.2234C118.954 78.3523 118.99 78.4795 119.033 78.6042C119.046 78.6437 119.057 78.6846 119.067 78.7241C119.077 78.7635 119.081 78.7832 119.085 78.8121C119.136 79.118 119.147 79.43 119.117 79.739Z" fill="#FBBEBE"/>
<path d="M114.594 72.6329C116.693 72.6329 118.395 70.8173 118.395 68.5777C118.395 66.338 116.693 64.5225 114.594 64.5225C112.494 64.5225 110.792 66.338 110.792 68.5777C110.792 70.8173 112.494 72.6329 114.594 72.6329Z" fill="#FBBEBE"/>
<path d="M138.731 90.6713C138.62 89.5652 138.252 88.5062 137.658 87.5916C137.753 88.2166 137.852 88.8417 137.954 89.4667C137.831 89.5048 137.7 89.5036 137.577 89.4635C137.455 89.4233 137.346 89.3459 137.264 89.2407C137.105 89.027 136.982 88.7844 136.903 88.5246C136.471 87.3811 135.906 86.3 135.222 85.3068C132.804 85.0914 130.41 84.0218 128.281 82.7733C126.151 81.5247 124.156 80.0318 122.059 78.7332C121.695 78.498 121.314 78.2912 120.922 78.1142C120.264 77.8336 119.526 77.6879 118.903 77.3557L118.778 77.2859C118.637 77.2047 118.504 77.1091 118.38 77.0007C118.313 76.9425 118.249 76.8802 118.189 76.8141C117.859 76.4484 117.656 75.9751 117.461 75.5139C117.125 74.725 117.007 73.7723 116.673 72.9834C116.826 72.8306 116.999 72.7009 117.185 72.598L117.266 72.554C117.398 72.4899 117.536 72.4391 117.677 72.4023C117.757 72.3796 117.836 72.3614 117.919 72.3462H117.928C118.304 72.2807 118.69 72.3129 119.053 72.4403C119.582 72.6314 120.028 73.0137 120.475 73.3733C121.186 73.9437 121.913 74.4792 122.553 75.1316C122.92 75.5078 123.256 75.919 123.651 76.2603C123.979 76.5314 124.325 76.7763 124.686 76.9931C126.823 78.3504 128.96 79.7082 131.098 81.0665C131.822 81.5216 132.546 81.9859 133.255 82.4729C134.328 83.2117 135.365 84.0127 136.401 84.8138L138.23 86.2292C138.43 86.3653 138.606 86.5384 138.749 86.7405C138.876 86.9696 138.954 87.2253 138.98 87.4899C139.132 88.5565 139.047 89.6464 138.731 90.6713Z" fill="#FBBEBE"/>
<path d="M120.058 82.7884C119.802 84.0158 118.636 84.7607 118.033 85.8348C117.278 87.1729 117.585 88.7279 117.869 90.2586L116.313 91.6878C116.029 91.9502 115.744 92.2127 115.434 92.4463C114.985 92.7672 114.515 93.0546 114.029 93.3065L112.652 94.0651C112.226 94.3204 111.774 94.5239 111.305 94.6719C110.401 94.9192 109.44 94.7462 108.547 94.4595C108.441 94.4312 108.34 94.3873 108.246 94.329C108.19 94.2933 108.142 94.2464 108.103 94.191C108.015 94.0221 107.983 93.8265 108.012 93.6357C108.103 92.0306 108.472 90.4589 108.837 88.8993C109.165 87.1295 109.809 85.4436 110.735 83.9338C111.227 83.06 111.713 82.1694 112.365 81.417C112.642 81.0923 112.952 80.7828 113.117 80.3808C113.346 79.824 113.259 79.1868 113.304 78.58C113.339 78.1246 113.453 77.6799 113.638 77.2677C113.737 77.0456 113.856 76.8347 113.995 76.6381L114.183 77.1038L114.305 77.4073L114.463 77.7987C114.605 78.1704 114.763 78.5421 114.912 78.9153C115.097 79.3704 115.286 79.8392 115.595 80.2124C115.904 80.5856 116.36 80.8572 116.825 80.8056C117.263 80.754 117.637 80.4248 117.873 80.0273C118.089 79.6167 118.246 79.1738 118.339 78.7135C118.465 78.1528 118.483 77.5703 118.39 77.0022C118.235 75.9084 117.798 74.7903 117.481 73.7738C117.353 73.4353 117.278 73.0764 117.26 72.7118C117.261 72.6706 117.265 72.6294 117.272 72.5889C117.272 72.5783 117.272 72.5677 117.272 72.5571C117.404 72.4929 117.542 72.4421 117.683 72.4054C117.763 72.3826 117.842 72.3644 117.925 72.3492C118.201 73.9543 118.481 75.5625 118.765 77.1736C118.765 77.2116 118.778 77.2495 118.785 77.2874C118.825 77.518 118.866 77.7425 118.91 77.9792C118.954 78.2159 118.996 78.3964 119.044 78.6027C119.061 78.6725 119.078 78.7423 119.097 78.8106C119.145 79.0002 119.201 79.1883 119.263 79.3734C119.641 80.5022 120.301 81.6278 120.058 82.7884Z" fill="#FF6584"/>
<path d="M135.488 100.029C135.475 100.265 135.518 100.502 135.613 100.716C135.85 101.18 136.421 101.285 136.916 101.323C139.801 101.576 142.705 101.481 145.571 101.041C145.726 101.028 145.877 100.976 146.01 100.889C146.418 100.586 146.167 99.8422 145.726 99.604C145.285 99.3658 144.753 99.4235 144.265 99.3203C143.777 99.2172 143.33 98.9532 142.898 98.6877C141.908 98.0809 140.932 97.4487 139.971 96.7913C139.402 96.3984 138.724 95.9812 138.079 96.2133C136.328 96.855 135.476 98.0202 135.488 100.029Z" fill="#FF6584"/>
<path d="M114.214 76.8762C114.214 76.9066 114.205 76.9339 114.2 76.9627C114.194 76.9915 114.184 77.0568 114.175 77.1038C114.096 77.5392 113.998 77.9746 113.891 78.4055C113.581 79.5979 113.167 80.7706 112.753 81.9267C111.651 85.0266 110.548 88.1266 109.443 91.2265C109.159 92.0078 108.887 92.7891 108.571 93.5538L108.24 94.326C107.852 95.256 107.479 96.2163 107.355 97.2085C107.274 97.8639 107.192 98.5344 107.315 99.1807C107.439 99.827 107.809 100.463 108.386 100.698C108.671 100.815 109.073 100.972 108.995 101.285C108.954 101.458 108.771 101.541 108.607 101.57C108.39 101.607 108.168 101.593 107.957 101.528C107.746 101.463 107.551 101.35 107.385 101.195C107.076 100.903 106.839 100.449 106.429 100.399C106.145 100.367 105.883 100.551 105.623 100.675C104.56 101.192 103.323 100.827 102.209 100.463C102.297 99.9817 102.751 99.6632 103.205 99.5676C103.659 99.472 104.122 99.5387 104.582 99.5266C104.729 99.5342 104.875 99.494 105 99.4113C105.112 99.3013 105.19 99.1581 105.225 99.0002C105.521 98.0647 105.741 97.1039 105.883 96.1283C106.025 95.1088 106.092 94.0741 106.31 93.0683C106.475 92.2824 106.728 91.5208 106.946 90.7502C107.392 89.1709 107.688 87.5475 107.983 85.9288C108.118 85.2534 108.215 84.57 108.274 83.8822C108.311 83.3118 108.293 82.7383 108.345 82.1694C108.43 81.4303 108.573 80.7 108.772 79.9863C108.968 79.2085 109.165 78.4302 109.362 77.6515C109.654 76.5 109.968 75.3045 110.708 74.4094C110.965 74.0947 111.279 73.8395 111.632 73.6597C111.985 73.4799 112.369 73.3793 112.76 73.3641C112.907 73.364 113.053 73.3807 113.197 73.4142L113.268 73.4339C113.424 73.4767 113.574 73.5426 113.713 73.6296C113.942 73.4779 114.057 73.5295 114.21 73.7677C114.342 74.0206 114.404 74.3083 114.39 74.5975C114.402 75.3615 114.343 76.1248 114.214 76.8762Z" fill="#FBBEBE"/>
<path d="M114.466 77.7881L114.456 77.7987L114.403 77.8533L113.885 78.4055L113.631 77.2677L112.76 73.3687C112.907 73.3685 113.053 73.3853 113.197 73.4188C113.203 73.3739 113.213 73.3298 113.227 73.2868L113.268 73.4385L113.564 74.5005L114.123 76.5334L114.214 76.8687L114.466 77.7881Z" fill="#FF6584"/>
<path d="M116.044 62.5988H111.21C110.267 62.5988 109.503 63.4138 109.503 64.4193V66.2762C109.503 67.2817 110.267 68.0968 111.21 68.0968H116.044C116.987 68.0968 117.751 67.2817 117.751 66.2762V64.4193C117.751 63.4138 116.987 62.5988 116.044 62.5988Z" fill="#3F3D56"/>
<path d="M120.651 65.5526C122.11 65.5526 123.293 64.2912 123.293 62.7353C123.293 61.1794 122.11 59.918 120.651 59.918C119.193 59.918 118.01 61.1794 118.01 62.7353C118.01 64.2912 119.193 65.5526 120.651 65.5526Z" fill="#3F3D56"/>
<path opacity="0.1" d="M120.586 59.918H120.489C121.171 59.9473 121.815 60.2566 122.288 60.7813C122.76 61.3061 123.024 62.0054 123.024 62.733C123.024 63.4606 122.76 64.16 122.288 64.6847C121.815 65.2094 121.171 65.5188 120.489 65.548H120.586C120.938 65.5567 121.288 65.4903 121.616 65.3526C121.944 65.2149 122.242 65.0087 122.494 64.7462C122.746 64.4836 122.946 64.17 123.083 63.8238C123.219 63.4775 123.29 63.1057 123.29 62.73C123.29 62.3543 123.219 61.9824 123.083 61.6362C122.946 61.29 122.746 60.9764 122.494 60.7138C122.242 60.4513 121.944 60.2451 121.616 60.1074C121.288 59.9697 120.938 59.9032 120.586 59.912V59.918Z" fill="black"/>
<path opacity="0.1" d="M108.021 59.9181H108.118C107.436 59.9473 106.791 60.2567 106.319 60.7814C105.846 61.3061 105.582 62.0055 105.582 62.7331C105.582 63.4606 105.846 64.16 106.319 64.6847C106.791 65.2094 107.436 65.5188 108.118 65.548H108.021C107.331 65.531 106.674 65.2266 106.192 64.6999C105.71 64.1733 105.44 63.4663 105.44 62.73C105.44 61.9938 105.71 61.2867 106.192 60.7601C106.674 60.2335 107.331 59.9291 108.021 59.912V59.9181Z" fill="black"/>
<path opacity="0.1" d="M116.977 67.5476H110.277C110.072 67.5468 109.875 67.4596 109.73 67.305C109.585 67.1504 109.504 66.9409 109.503 66.7223V67.2715C109.504 67.4901 109.585 67.6996 109.73 67.8542C109.875 68.0088 110.072 68.096 110.277 68.0968H116.977C117.182 68.096 117.379 68.0088 117.524 67.8542C117.669 67.6996 117.75 67.4901 117.751 67.2715V66.7223C117.75 66.9409 117.669 67.1504 117.524 67.305C117.379 67.4596 117.182 67.5468 116.977 67.5476Z" fill="black"/>
<path d="M124.365 111.176L124.792 90.4847C124.798 90.185 124.907 89.8982 125.099 89.6787C125.29 89.4592 125.55 89.3223 125.83 89.2937C135.011 88.3668 144.254 88.3668 153.435 89.2937C153.719 89.3213 153.984 89.4609 154.177 89.6853C154.37 89.9097 154.477 90.2029 154.479 90.5074V111.196C154.477 111.509 154.363 111.809 154.16 112.035C153.957 112.261 153.681 112.395 153.388 112.41C143.878 112.886 134.559 112.909 125.457 112.41C125.161 112.395 124.882 112.258 124.678 112.028C124.474 111.798 124.362 111.493 124.365 111.176Z" fill="#F2F2F2"/>
<path d="M137.718 93.0714H127.833C127.656 93.0714 127.513 93.2242 127.513 93.4127V95.3091C127.513 95.4976 127.656 95.6504 127.833 95.6504H137.718C137.895 95.6504 138.038 95.4976 138.038 95.3091V93.4127C138.038 93.2242 137.895 93.0714 137.718 93.0714Z" fill="#3C9DC0"/>
<path opacity="0.3" d="M151.301 97.5468H127.904C127.727 97.5468 127.584 97.6996 127.584 97.8882V98.4191C127.584 98.6077 127.727 98.7605 127.904 98.7605H151.301C151.478 98.7605 151.621 98.6077 151.621 98.4191V97.8882C151.621 97.6996 151.478 97.5468 151.301 97.5468Z" fill="#3C9DC0"/>
<path opacity="0.3" d="M151.301 100.733H127.904C127.727 100.733 127.584 100.886 127.584 101.074V101.605C127.584 101.794 127.727 101.946 127.904 101.946H151.301C151.478 101.946 151.621 101.794 151.621 101.605V101.074C151.621 100.886 151.478 100.733 151.301 100.733Z" fill="#3C9DC0"/>
<path opacity="0.3" d="M143.194 103.919H127.904C127.727 103.919 127.584 104.071 127.584 104.26V104.791C127.584 104.979 127.727 105.132 127.904 105.132H143.194C143.371 105.132 143.514 104.979 143.514 104.791V104.26C143.514 104.071 143.371 103.919 143.194 103.919Z" fill="#3C9DC0"/>
<path d="M136.678 87.9648C136.678 87.9648 137.345 90.0113 137.958 89.4667L137.473 86.7905L136.678 87.9648Z" fill="#FBBEBE"/>
</g>
<defs>
<clipPath id="clip0">
<rect width="163" height="120" fill="white"/>
</clipPath>
</defs>
</svg>
